
  <svg width="192" height="43" viewBox="0 0 192 43" fill="none" xmlns="http://www.w3.org/2000/svg">
<path d="M188.932 1.13511C186.428 1.13511 185.864 1.71105 185.864 4.12107C185.864 6.53108 186.428 7.10702 188.932 7.10702C191.436 7.10702 192 6.53108 192 4.12107C192 1.71105 191.424 1.13511 188.932 1.13511ZM188.932 6.57581C186.764 6.57581 186.428 6.20117 186.428 4.12666C186.428 2.05215 186.764 1.66073 188.932 1.66073C191.1 1.66073 191.436 2.04655 191.436 4.12666C191.436 6.20676 191.1 6.57581 188.932 6.57581Z" fill="white"/>
<path d="M190.486 3.37178C190.486 2.65046 190.111 2.3541 189.122 2.3541H187.54V5.88804H188.088V4.52367H189.161C189.804 4.52367 189.927 4.64668 189.927 5.19467V5.89363H190.474V5.07724C190.474 4.52926 190.312 4.32796 189.888 4.26086V4.24967C190.301 4.15462 190.491 3.91417 190.491 3.37737L190.486 3.37178ZM189.161 4.02601H188.088V2.84616H189.122C189.776 2.84616 189.938 2.95241 189.938 3.39415C189.938 3.87503 189.737 4.02601 189.161 4.02601Z" fill="white"/>
<path d="M39.3769 2.65045C34.9228 2.65045 30.8879 4.92068 28.5742 8.72861L24.4834 15.6902H32.8215L19.0178 36.5416L23.2316 36.564L39.3489 12.1843H30.5973L31.525 10.6298L31.5641 10.5739C33.2351 7.80598 36.1579 6.15644 39.3825 6.15644C44.4177 6.15644 48.5141 10.2551 48.5141 15.2932C48.5141 20.3313 44.4177 24.43 39.3825 24.43C37.9742 24.43 36.6217 24.1169 35.3643 23.5018L33.8219 26.6499C35.5599 27.5055 37.4321 27.936 39.3825 27.936C46.3514 27.936 52.0182 22.2661 52.0182 15.2932C52.0182 8.32042 46.3514 2.65045 39.3825 2.65045H39.3769Z" fill="white"/>
<path d="M25.8191 17.9157H17.3636C16.3521 16.4004 15.8212 14.639 15.8212 12.7882C15.8212 7.67178 19.9846 3.50598 25.0981 3.50598C26.4841 3.50598 27.8309 3.81352 29.066 4.39506C29.8261 3.66814 30.8655 2.80143 32.095 2.0857C30.0161 0.721326 27.5962 0 25.0981 0C20.0238 0 15.6312 2.97477 13.569 7.26918C12.8145 7.11261 12.0433 7.03433 11.2553 7.03433C5.04645 7.03433 0 12.0836 0 18.296C0 24.5083 5.04645 29.5576 11.2609 29.5576L19.5655 29.5352L25.8191 17.9157ZM11.2553 26.0516C6.98009 26.0516 3.50402 22.5736 3.50402 18.296C3.50402 14.0183 6.98009 10.5403 11.2553 10.5403C11.6745 10.5403 12.088 10.5739 12.496 10.641C12.3786 11.3399 12.3172 12.0557 12.3172 12.7882C12.3172 15.6791 13.3063 18.5085 15.1058 20.7619L15.6312 21.4217H19.6828L17.0003 26.0349L11.2609 26.0516H11.2553Z" fill="white"/>
<path d="M74.4618 13.0454C69.5382 12.7211 67.7108 12.7211 66.6937 11.7034C66.2466 11.256 66.0845 10.5235 66.0845 9.30455C66.0845 8.24772 66.2466 7.47048 66.6937 7.02315C67.5878 6.12848 69.3762 5.88244 72.6734 5.88244C75.9707 5.88244 77.759 6.12848 78.6532 7.02315C79.1841 7.55436 79.3461 8.52731 79.3461 9.62887V10.1992H86.2592V9.66801C86.2592 6.53667 85.8512 4.21613 84.3479 2.70637C82.3528 0.671001 78.8152 0.0615085 72.6343 0.0615085C66.9396 0.0615085 63.3182 0.794018 61.1666 2.90767C59.6186 4.41183 59.0933 6.73238 59.0933 9.62328C59.0933 13.0398 59.7415 14.9521 61.0045 16.255C62.6699 18.0052 65.481 18.7377 70.6057 19.0229C76.5016 19.3472 78.4576 19.3081 79.5529 20.4488C80.0391 20.9352 80.2012 21.7908 80.2012 23.0545C80.2012 24.033 80.0391 24.9277 79.5529 25.4142C78.6196 26.348 76.7028 26.594 72.964 26.594C69.2253 26.594 67.5934 26.4319 66.5763 25.4142C66.0454 24.883 65.8442 24.033 65.8442 22.6854V21.9138H58.8474V22.7302C58.8474 25.9845 59.4565 28.2659 60.9654 29.7701C62.9996 31.8055 65.928 32.4541 73.087 32.4541C79.2679 32.4541 82.9731 31.6377 85.1694 29.4402C86.5498 28.059 87.2819 25.9398 87.2819 22.7637C87.2819 19.3472 86.751 17.0267 85.4488 15.6847C83.5767 13.7332 79.9553 13.4033 74.4673 13.0398L74.4618 13.0454Z" fill="white"/>
<path d="M99.1128 18.8663H115.387V13.1293H99.1128V6.36892H116.443V0.430559H92.0377V32.0906H116.728V26.1523H99.1128V18.8663Z" fill="white"/>
<path d="M143.737 20.5326C143.737 25.0899 142.681 26.4319 136.21 26.4319C129.738 26.4319 128.727 25.0899 128.727 20.5326V0.430559H121.607V21.7181C121.607 29.0823 124.859 32.4653 136.21 32.4653C147.56 32.4653 150.852 29.0879 150.852 21.7181V0.430559H143.732V20.5382L143.737 20.5326Z" fill="white"/>
<path d="M171.233 13.0454C166.309 12.7211 164.482 12.7211 163.465 11.7034C163.018 11.256 162.856 10.5235 162.856 9.30455C162.856 8.24772 163.018 7.47048 163.465 7.02315C164.359 6.12848 166.147 5.88244 169.445 5.88244C172.742 5.88244 174.53 6.12848 175.424 7.02315C175.955 7.55436 176.117 8.52731 176.117 9.62887V10.1992H183.03V9.66801C183.03 6.53667 182.622 4.21613 181.119 2.70637C179.124 0.671001 175.586 0.0615085 169.406 0.0615085C163.711 0.0615085 160.089 0.794018 157.932 2.90767C156.384 4.41183 155.859 6.73238 155.859 9.62328C155.859 13.0398 156.507 14.9521 157.77 16.255C159.436 18.0052 162.247 18.7377 167.371 19.0229C173.267 19.3472 175.223 19.3081 176.319 20.4488C176.805 20.9352 176.967 21.7908 176.967 23.0545C176.967 24.033 176.805 24.9277 176.319 25.4142C175.385 26.348 173.474 26.594 169.73 26.594C165.985 26.594 164.359 26.4319 163.342 25.4142C162.811 24.883 162.61 24.033 162.61 22.6854V21.9138H155.613V22.7302C155.613 25.9845 156.222 28.2659 157.725 29.7701C159.76 31.8055 162.688 32.4541 169.847 32.4541C176.028 32.4541 179.733 31.6377 181.929 29.4402C183.31 28.059 184.047 25.9398 184.047 22.7637C184.047 19.3472 183.517 17.0267 182.214 15.6847C180.342 13.7332 176.721 13.4033 171.233 13.0398V13.0454Z" fill="white"/>
<path d="M61.3175 37.481H59.0262V36.659H64.5197V37.481H62.2284V43H61.3175V37.481Z" fill="white"/>
<path d="M84.3758 36.6534H85.6332L88.3158 43H87.3378L86.7566 41.6077H83.2414L82.6601 43H81.6989L84.3758 36.6534ZM86.4212 40.7857L85.0073 37.4083H84.9906L83.5767 40.7857H86.4212Z" fill="white"/>
<path d="M106.987 36.6534H107.898V42.1724H111.385V42.9944H106.987V36.6479V36.6534Z" fill="white"/>
<path d="M130.185 36.6534H134.891V37.4754H131.096V39.3207H134.701V40.1427H131.096V42.1724H134.919V42.9944H130.185V36.6479V36.6534Z" fill="white"/>
<path d="M154.009 36.6534H155.328L158.966 42.0997H158.972V36.6534H159.832V43H158.513L154.886 37.5537H154.881V43H154.009V36.6534Z" fill="white"/>
<path d="M180.923 37.481H178.632V36.659H184.126V37.481H181.834V43H180.923V37.481Z" fill="white"/>
</svg>

