<svg width="159" height="117" viewBox="0 0 159 117" fill="none" xmlns="http://www.w3.org/2000/svg">
<path d="M10.2878 89.128C9.43442 89.128 8.61842 89 7.83975 88.744C7.06108 88.4773 6.44775 88.136 5.99975 87.72L6.59175 86.472C7.01842 86.8453 7.56242 87.1547 8.22375 87.4C8.88508 87.6453 9.57308 87.768 10.2878 87.768C10.9384 87.768 11.4664 87.6933 11.8718 87.544C12.2771 87.3947 12.5758 87.192 12.7678 86.936C12.9598 86.6693 13.0558 86.3707 13.0558 86.04C13.0558 85.656 12.9278 85.3467 12.6718 85.112C12.4264 84.8773 12.1011 84.6907 11.6958 84.552C11.3011 84.4027 10.8638 84.2747 10.3838 84.168C9.90375 84.0613 9.41842 83.9387 8.92775 83.8C8.44775 83.6507 8.00508 83.464 7.59975 83.24C7.20508 83.016 6.88508 82.7173 6.63975 82.344C6.39442 81.96 6.27175 81.4693 6.27175 80.872C6.27175 80.296 6.42108 79.768 6.71975 79.288C7.02908 78.7973 7.49842 78.408 8.12775 78.12C8.76775 77.8213 9.57842 77.672 10.5598 77.672C11.2104 77.672 11.8558 77.7573 12.4958 77.928C13.1358 78.0987 13.6904 78.344 14.1597 78.664L13.6318 79.944C13.1518 79.624 12.6451 79.3947 12.1118 79.256C11.5784 79.1067 11.0611 79.032 10.5598 79.032C9.93042 79.032 9.41308 79.112 9.00775 79.272C8.60242 79.432 8.30375 79.6453 8.11175 79.912C7.93042 80.1787 7.83975 80.4773 7.83975 80.808C7.83975 81.2027 7.96242 81.5173 8.20775 81.752C8.46375 81.9867 8.78908 82.1733 9.18375 82.312C9.58908 82.4507 10.0318 82.5787 10.5118 82.696C10.9918 82.8027 11.4718 82.9253 11.9518 83.064C12.4424 83.2027 12.8851 83.384 13.2798 83.608C13.6851 83.832 14.0104 84.1307 14.2558 84.504C14.5011 84.8773 14.6238 85.3573 14.6238 85.944C14.6238 86.5093 14.4691 87.0373 14.1597 87.528C13.8504 88.008 13.3704 88.3973 12.7198 88.696C12.0798 88.984 11.2691 89.128 10.2878 89.128ZM20.3053 89.096C19.5799 89.096 18.9399 88.9627 18.3853 88.696C17.8413 88.4293 17.4146 88.024 17.1053 87.48C16.8066 86.9253 16.6573 86.232 16.6573 85.4V80.52H18.1933V85.224C18.1933 86.056 18.3906 86.68 18.7853 87.096C19.1906 87.512 19.7559 87.72 20.4813 87.72C21.0146 87.72 21.4786 87.6133 21.8733 87.4C22.2679 87.176 22.5719 86.856 22.7853 86.44C22.9986 86.0133 23.1053 85.5013 23.1053 84.904V80.52H24.6413V89H23.1853V86.712L23.4253 87.32C23.1479 87.8853 22.7319 88.3227 22.1773 88.632C21.6226 88.9413 20.9986 89.096 20.3053 89.096ZM32.0614 89.096C31.336 89.096 30.68 88.936 30.0934 88.616C29.5174 88.2853 29.0587 87.8 28.7174 87.16C28.3867 86.52 28.2214 85.72 28.2214 84.76C28.2214 83.8 28.392 83 28.7334 82.36C29.0854 81.72 29.5494 81.24 30.1254 80.92C30.712 80.6 31.3574 80.44 32.0614 80.44C32.8934 80.44 33.6294 80.6213 34.2694 80.984C34.9094 81.3467 35.416 81.8533 35.7894 82.504C36.1627 83.144 36.3494 83.896 36.3494 84.76C36.3494 85.624 36.1627 86.3813 35.7894 87.032C35.416 87.6827 34.9094 88.1893 34.2694 88.552C33.6294 88.9147 32.8934 89.096 32.0614 89.096ZM27.5654 89V77.128H29.1014V82.776L28.9414 84.744L29.0374 86.712V89H27.5654ZM31.9334 87.752C32.4774 87.752 32.9627 87.6293 33.3894 87.384C33.8267 87.1387 34.168 86.792 34.4134 86.344C34.6694 85.8853 34.7974 85.3573 34.7974 84.76C34.7974 84.152 34.6694 83.6293 34.4134 83.192C34.168 82.744 33.8267 82.3973 33.3894 82.152C32.9627 81.9067 32.4774 81.784 31.9334 81.784C31.4 81.784 30.9147 81.9067 30.4774 82.152C30.0507 82.3973 29.7094 82.744 29.4534 83.192C29.208 83.6293 29.0854 84.152 29.0854 84.76C29.0854 85.3573 29.208 85.8853 29.4534 86.344C29.7094 86.792 30.0507 87.1387 30.4774 87.384C30.9147 87.6293 31.4 87.752 31.9334 87.752ZM42.2476 89.096C41.341 89.096 40.541 88.9093 39.8476 88.536C39.165 88.1627 38.6316 87.6507 38.2476 87C37.8743 86.3493 37.6876 85.6027 37.6876 84.76C37.6876 83.9173 37.869 83.1707 38.2316 82.52C38.605 81.8693 39.1116 81.3627 39.7516 81C40.4023 80.6267 41.133 80.44 41.9436 80.44C42.765 80.44 43.4903 80.6213 44.1196 80.984C44.749 81.3467 45.2396 81.8587 45.5916 82.52C45.9543 83.1707 46.1356 83.9333 46.1356 84.808C46.1356 84.872 46.1303 84.9467 46.1196 85.032C46.1196 85.1173 46.1143 85.1973 46.1036 85.272H38.8876V84.168H45.3036L44.6796 84.552C44.6903 84.008 44.5783 83.5227 44.3436 83.096C44.109 82.6693 43.7836 82.3387 43.3676 82.104C42.9623 81.8587 42.4876 81.736 41.9436 81.736C41.4103 81.736 40.9356 81.8587 40.5196 82.104C40.1036 82.3387 39.7783 82.6747 39.5436 83.112C39.309 83.5387 39.1916 84.0293 39.1916 84.584V84.84C39.1916 85.4053 39.3196 85.912 39.5756 86.36C39.8423 86.7973 40.2103 87.1387 40.6796 87.384C41.149 87.6293 41.6876 87.752 42.2956 87.752C42.797 87.752 43.2503 87.6667 43.6556 87.496C44.0716 87.3253 44.4343 87.0693 44.7436 86.728L45.5916 87.72C45.2076 88.168 44.7276 88.5093 44.1516 88.744C43.5863 88.9787 42.9516 89.096 42.2476 89.096ZM56.1334 89.096C55.408 89.096 54.768 88.9627 54.2134 88.696C53.6694 88.4293 53.2427 88.024 52.9334 87.48C52.6347 86.9253 52.4854 86.232 52.4854 85.4V80.52H54.0214V85.224C54.0214 86.056 54.2187 86.68 54.6134 87.096C55.0187 87.512 55.584 87.72 56.3094 87.72C56.8427 87.72 57.3067 87.6133 57.7014 87.4C58.096 87.176 58.4 86.856 58.6134 86.44C58.8267 86.0133 58.9334 85.5013 58.9334 84.904V80.52H60.4694V89H59.0134V86.712L59.2534 87.32C58.976 87.8853 58.56 88.3227 58.0054 88.632C57.4507 88.9413 56.8267 89.096 56.1334 89.096ZM67.9215 80.44C68.6148 80.44 69.2228 80.5733 69.7455 80.84C70.2788 81.1067 70.6948 81.512 70.9935 82.056C71.2922 82.6 71.4415 83.288 71.4415 84.12V89H69.9055V84.296C69.9055 83.4747 69.7028 82.856 69.2975 82.44C68.9028 82.024 68.3428 81.816 67.6175 81.816C67.0735 81.816 66.5988 81.9227 66.1935 82.136C65.7882 82.3493 65.4735 82.664 65.2495 83.08C65.0362 83.496 64.9295 84.0133 64.9295 84.632V89H63.3935V80.52H64.8655V82.808L64.6255 82.2C64.9028 81.6453 65.3295 81.2133 65.9055 80.904C66.4815 80.5947 67.1535 80.44 67.9215 80.44ZM79.5481 89V87.208L79.4681 86.872V83.816C79.4681 83.1653 79.2761 82.664 78.8921 82.312C78.5188 81.9493 77.9535 81.768 77.1961 81.768C76.6948 81.768 76.2041 81.8533 75.7241 82.024C75.2441 82.184 74.8388 82.4027 74.5081 82.68L73.8681 81.528C74.3055 81.176 74.8281 80.9093 75.4361 80.728C76.0548 80.536 76.7001 80.44 77.3721 80.44C78.5348 80.44 79.4308 80.7227 80.0601 81.288C80.6895 81.8533 81.0041 82.7173 81.0041 83.88V89H79.5481ZM76.7641 89.096C76.1348 89.096 75.5801 88.9893 75.1001 88.776C74.6308 88.5627 74.2681 88.2693 74.0121 87.896C73.7561 87.512 73.6281 87.08 73.6281 86.6C73.6281 86.1413 73.7348 85.7253 73.9481 85.352C74.1721 84.9787 74.5295 84.68 75.0201 84.456C75.5215 84.232 76.1935 84.12 77.0361 84.12H79.7241V85.224H77.1001C76.3321 85.224 75.8148 85.352 75.5481 85.608C75.2815 85.864 75.1481 86.1733 75.1481 86.536C75.1481 86.952 75.3135 87.288 75.6441 87.544C75.9748 87.7893 76.4335 87.912 77.0201 87.912C77.5961 87.912 78.0975 87.784 78.5241 87.528C78.9615 87.272 79.2761 86.8987 79.4681 86.408L79.7721 87.464C79.5695 87.9653 79.2121 88.3653 78.7001 88.664C78.1881 88.952 77.5428 89.096 76.7641 89.096ZM88.1435 89V80.52H89.6795V89H88.1435ZM88.9115 78.888C88.6128 78.888 88.3622 78.792 88.1595 78.6C87.9675 78.408 87.8715 78.1733 87.8715 77.896C87.8715 77.608 87.9675 77.368 88.1595 77.176C88.3622 76.984 88.6128 76.888 88.9115 76.888C89.2102 76.888 89.4555 76.984 89.6475 77.176C89.8502 77.3573 89.9515 77.5867 89.9515 77.864C89.9515 78.152 89.8555 78.3973 89.6635 78.6C89.4715 78.792 89.2208 78.888 88.9115 78.888ZM103.22 80.44C103.903 80.44 104.506 80.5733 105.028 80.84C105.551 81.1067 105.956 81.512 106.244 82.056C106.543 82.6 106.692 83.288 106.692 84.12V89H105.156V84.296C105.156 83.4747 104.964 82.856 104.58 82.44C104.196 82.024 103.658 81.816 102.964 81.816C102.452 81.816 102.004 81.9227 101.62 82.136C101.236 82.3493 100.938 82.664 100.724 83.08C100.522 83.496 100.42 84.0133 100.42 84.632V89H98.8843V84.296C98.8843 83.4747 98.6923 82.856 98.3083 82.44C97.9349 82.024 97.3963 81.816 96.6923 81.816C96.1909 81.816 95.7483 81.9227 95.3643 82.136C94.9803 82.3493 94.6816 82.664 94.4683 83.08C94.2549 83.496 94.1483 84.0133 94.1483 84.632V89H92.6123V80.52H94.0843V82.776L93.8443 82.2C94.1109 81.6453 94.5216 81.2133 95.0763 80.904C95.6309 80.5947 96.2763 80.44 97.0123 80.44C97.8229 80.44 98.5216 80.6427 99.1083 81.048C99.6949 81.4427 100.079 82.0453 100.26 82.856L99.6363 82.6C99.8923 81.9493 100.34 81.4267 100.98 81.032C101.62 80.6373 102.367 80.44 103.22 80.44ZM114.783 89V87.208L114.703 86.872V83.816C114.703 83.1653 114.511 82.664 114.127 82.312C113.753 81.9493 113.188 81.768 112.431 81.768C111.929 81.768 111.439 81.8533 110.959 82.024C110.479 82.184 110.073 82.4027 109.743 82.68L109.103 81.528C109.54 81.176 110.063 80.9093 110.671 80.728C111.289 80.536 111.935 80.44 112.607 80.44C113.769 80.44 114.665 80.7227 115.295 81.288C115.924 81.8533 116.239 82.7173 116.239 83.88V89H114.783ZM111.999 89.096C111.369 89.096 110.815 88.9893 110.335 88.776C109.865 88.5627 109.503 88.2693 109.247 87.896C108.991 87.512 108.863 87.08 108.863 86.6C108.863 86.1413 108.969 85.7253 109.183 85.352C109.407 84.9787 109.764 84.68 110.255 84.456C110.756 84.232 111.428 84.12 112.271 84.12H114.959V85.224H112.335C111.567 85.224 111.049 85.352 110.783 85.608C110.516 85.864 110.383 86.1733 110.383 86.536C110.383 86.952 110.548 87.288 110.879 87.544C111.209 87.7893 111.668 87.912 112.255 87.912C112.831 87.912 113.332 87.784 113.759 87.528C114.196 87.272 114.511 86.8987 114.703 86.408L115.007 87.464C114.804 87.9653 114.447 88.3653 113.935 88.664C113.423 88.952 112.777 89.096 111.999 89.096ZM122.793 92.2C122.014 92.2 121.257 92.088 120.521 91.864C119.796 91.6507 119.204 91.3413 118.745 90.936L119.481 89.752C119.876 90.0933 120.361 90.36 120.937 90.552C121.513 90.7547 122.116 90.856 122.745 90.856C123.748 90.856 124.484 90.6213 124.953 90.152C125.422 89.6827 125.657 88.968 125.657 88.008V86.216L125.817 84.536L125.737 82.84V80.52H127.193V87.848C127.193 89.3413 126.82 90.44 126.073 91.144C125.326 91.848 124.233 92.2 122.793 92.2ZM122.601 88.648C121.78 88.648 121.044 88.4773 120.393 88.136C119.753 87.784 119.241 87.2987 118.857 86.68C118.484 86.0613 118.297 85.3467 118.297 84.536C118.297 83.7147 118.484 83 118.857 82.392C119.241 81.7733 119.753 81.2933 120.393 80.952C121.044 80.6107 121.78 80.44 122.601 80.44C123.326 80.44 123.988 80.5893 124.585 80.888C125.182 81.176 125.657 81.624 126.009 82.232C126.372 82.84 126.553 83.608 126.553 84.536C126.553 85.4533 126.372 86.216 126.009 86.824C125.657 87.432 125.182 87.8907 124.585 88.2C123.988 88.4987 123.326 88.648 122.601 88.648ZM122.777 87.304C123.342 87.304 123.844 87.1867 124.281 86.952C124.718 86.7173 125.06 86.392 125.305 85.976C125.561 85.56 125.689 85.08 125.689 84.536C125.689 83.992 125.561 83.512 125.305 83.096C125.06 82.68 124.718 82.36 124.281 82.136C123.844 81.9013 123.342 81.784 122.777 81.784C122.212 81.784 121.705 81.9013 121.257 82.136C120.82 82.36 120.473 82.68 120.217 83.096C119.972 83.512 119.849 83.992 119.849 84.536C119.849 85.08 119.972 85.56 120.217 85.976C120.473 86.392 120.82 86.7173 121.257 86.952C121.705 87.1867 122.212 87.304 122.777 87.304ZM133.904 89.096C132.997 89.096 132.197 88.9093 131.504 88.536C130.821 88.1627 130.288 87.6507 129.904 87C129.531 86.3493 129.344 85.6027 129.344 84.76C129.344 83.9173 129.525 83.1707 129.888 82.52C130.261 81.8693 130.768 81.3627 131.408 81C132.059 80.6267 132.789 80.44 133.6 80.44C134.421 80.44 135.147 80.6213 135.776 80.984C136.405 81.3467 136.896 81.8587 137.248 82.52C137.611 83.1707 137.792 83.9333 137.792 84.808C137.792 84.872 137.787 84.9467 137.776 85.032C137.776 85.1173 137.771 85.1973 137.76 85.272H130.544V84.168H136.96L136.336 84.552C136.347 84.008 136.235 83.5227 136 83.096C135.765 82.6693 135.44 82.3387 135.024 82.104C134.619 81.8587 134.144 81.736 133.6 81.736C133.067 81.736 132.592 81.8587 132.176 82.104C131.76 82.3387 131.435 82.6747 131.2 83.112C130.965 83.5387 130.848 84.0293 130.848 84.584V84.84C130.848 85.4053 130.976 85.912 131.232 86.36C131.499 86.7973 131.867 87.1387 132.336 87.384C132.805 87.6293 133.344 87.752 133.952 87.752C134.453 87.752 134.907 87.6667 135.312 87.496C135.728 87.3253 136.091 87.0693 136.4 86.728L137.248 87.72C136.864 88.168 136.384 88.5093 135.808 88.744C135.243 88.9787 134.608 89.096 133.904 89.096ZM144.453 80.44C145.146 80.44 145.754 80.5733 146.277 80.84C146.81 81.1067 147.226 81.512 147.525 82.056C147.823 82.6 147.973 83.288 147.973 84.12V89H146.437V84.296C146.437 83.4747 146.234 82.856 145.829 82.44C145.434 82.024 144.874 81.816 144.149 81.816C143.605 81.816 143.13 81.9227 142.725 82.136C142.319 82.3493 142.005 82.664 141.781 83.08C141.567 83.496 141.461 84.0133 141.461 84.632V89H139.925V80.52H141.397V82.808L141.157 82.2C141.434 81.6453 141.861 81.2133 142.437 80.904C143.013 80.5947 143.685 80.44 144.453 80.44ZM50.9209 113.096C50.0996 113.096 49.3636 112.915 48.7129 112.552C48.0729 112.189 47.5663 111.683 47.1929 111.032C46.8196 110.381 46.6329 109.624 46.6329 108.76C46.6329 107.896 46.8196 107.144 47.1929 106.504C47.5663 105.853 48.0729 105.347 48.7129 104.984C49.3636 104.621 50.0996 104.44 50.9209 104.44C51.6356 104.44 52.2809 104.6 52.8569 104.92C53.4329 105.24 53.8916 105.72 54.2329 106.36C54.5849 107 54.7609 107.8 54.7609 108.76C54.7609 109.72 54.5903 110.52 54.2489 111.16C53.9183 111.8 53.4649 112.285 52.8889 112.616C52.3129 112.936 51.6569 113.096 50.9209 113.096ZM51.0489 111.752C51.5823 111.752 52.0623 111.629 52.4889 111.384C52.9263 111.139 53.2676 110.792 53.5129 110.344C53.7689 109.885 53.8969 109.357 53.8969 108.76C53.8969 108.152 53.7689 107.629 53.5129 107.192C53.2676 106.744 52.9263 106.397 52.4889 106.152C52.0623 105.907 51.5823 105.784 51.0489 105.784C50.5049 105.784 50.0196 105.907 49.5929 106.152C49.1663 106.397 48.8249 106.744 48.5689 107.192C48.3129 107.629 48.1849 108.152 48.1849 108.76C48.1849 109.357 48.3129 109.885 48.5689 110.344C48.8249 110.792 49.1663 111.139 49.5929 111.384C50.0196 111.629 50.5049 111.752 51.0489 111.752ZM53.9449 113V110.712L54.0409 108.744L53.8809 106.776V101.128H55.4169V113H53.9449ZM62.0992 113.096C61.1925 113.096 60.3925 112.909 59.6992 112.536C59.0165 112.163 58.4832 111.651 58.0992 111C57.7259 110.349 57.5392 109.603 57.5392 108.76C57.5392 107.917 57.7205 107.171 58.0832 106.52C58.4565 105.869 58.9632 105.363 59.6032 105C60.2539 104.627 60.9845 104.44 61.7952 104.44C62.6165 104.44 63.3419 104.621 63.9712 104.984C64.6005 105.347 65.0912 105.859 65.4432 106.52C65.8059 107.171 65.9872 107.933 65.9872 108.808C65.9872 108.872 65.9819 108.947 65.9712 109.032C65.9712 109.117 65.9659 109.197 65.9552 109.272H58.7392V108.168H65.1552L64.5312 108.552C64.5419 108.008 64.4299 107.523 64.1952 107.096C63.9605 106.669 63.6352 106.339 63.2192 106.104C62.8139 105.859 62.3392 105.736 61.7952 105.736C61.2619 105.736 60.7872 105.859 60.3712 106.104C59.9552 106.339 59.6299 106.675 59.3952 107.112C59.1605 107.539 59.0432 108.029 59.0432 108.584V108.84C59.0432 109.405 59.1712 109.912 59.4272 110.36C59.6939 110.797 60.0619 111.139 60.5312 111.384C61.0005 111.629 61.5392 111.752 62.1472 111.752C62.6485 111.752 63.1019 111.667 63.5072 111.496C63.9232 111.325 64.2859 111.069 64.5952 110.728L65.4432 111.72C65.0592 112.168 64.5792 112.509 64.0032 112.744C63.4379 112.979 62.8032 113.096 62.0992 113.096ZM76.9129 113.096C76.2089 113.096 75.5636 112.936 74.9769 112.616C74.4009 112.285 73.9369 111.8 73.5849 111.16C73.2436 110.52 73.0729 109.72 73.0729 108.76C73.0729 107.8 73.2383 107 73.5689 106.36C73.9103 105.72 74.3689 105.24 74.9449 104.92C75.5316 104.6 76.1876 104.44 76.9129 104.44C77.7449 104.44 78.4809 104.621 79.1209 104.984C79.7609 105.347 80.2676 105.853 80.6409 106.504C81.0143 107.144 81.2009 107.896 81.2009 108.76C81.2009 109.624 81.0143 110.381 80.6409 111.032C80.2676 111.683 79.7609 112.189 79.1209 112.552C78.4809 112.915 77.7449 113.096 76.9129 113.096ZM72.4169 116.104V104.52H73.8889V106.808L73.7929 108.776L73.9529 110.744V116.104H72.4169ZM76.7849 111.752C77.3289 111.752 77.8143 111.629 78.2409 111.384C78.6783 111.139 79.0196 110.792 79.2649 110.344C79.5209 109.885 79.6489 109.357 79.6489 108.76C79.6489 108.152 79.5209 107.629 79.2649 107.192C79.0196 106.744 78.6783 106.397 78.2409 106.152C77.8143 105.907 77.3289 105.784 76.7849 105.784C76.2516 105.784 75.7663 105.907 75.3289 106.152C74.9023 106.397 74.5609 106.744 74.3049 107.192C74.0596 107.629 73.9369 108.152 73.9369 108.76C73.9369 109.357 74.0596 109.885 74.3049 110.344C74.5609 110.792 74.9023 111.139 75.3289 111.384C75.7663 111.629 76.2516 111.752 76.7849 111.752ZM87.0992 113.096C86.1925 113.096 85.3925 112.909 84.6992 112.536C84.0165 112.163 83.4832 111.651 83.0992 111C82.7259 110.349 82.5392 109.603 82.5392 108.76C82.5392 107.917 82.7205 107.171 83.0832 106.52C83.4565 105.869 83.9632 105.363 84.6032 105C85.2539 104.627 85.9845 104.44 86.7952 104.44C87.6165 104.44 88.3419 104.621 88.9712 104.984C89.6005 105.347 90.0912 105.859 90.4432 106.52C90.8059 107.171 90.9872 107.933 90.9872 108.808C90.9872 108.872 90.9819 108.947 90.9712 109.032C90.9712 109.117 90.9659 109.197 90.9552 109.272H83.7392V108.168H90.1552L89.5312 108.552C89.5419 108.008 89.4299 107.523 89.1952 107.096C88.9605 106.669 88.6352 106.339 88.2192 106.104C87.8139 105.859 87.3392 105.736 86.7952 105.736C86.2619 105.736 85.7872 105.859 85.3712 106.104C84.9552 106.339 84.6299 106.675 84.3952 107.112C84.1605 107.539 84.0432 108.029 84.0432 108.584V108.84C84.0432 109.405 84.1712 109.912 84.4272 110.36C84.6939 110.797 85.0619 111.139 85.5312 111.384C86.0005 111.629 86.5392 111.752 87.1472 111.752C87.6485 111.752 88.1019 111.667 88.5072 111.496C88.9232 111.325 89.2859 111.069 89.5952 110.728L90.4432 111.72C90.0592 112.168 89.5792 112.509 89.0032 112.744C88.4379 112.979 87.8032 113.096 87.0992 113.096ZM93.1201 113V104.52H94.5921V106.824L94.4481 106.248C94.6827 105.661 95.0774 105.213 95.6321 104.904C96.1867 104.595 96.8694 104.44 97.6801 104.44V105.928C97.6161 105.917 97.5521 105.912 97.4881 105.912C97.4347 105.912 97.3814 105.912 97.3281 105.912C96.5067 105.912 95.8561 106.157 95.3761 106.648C94.8961 107.139 94.6561 107.848 94.6561 108.776V113H93.1201ZM100.141 113V103.768C100.141 102.936 100.381 102.275 100.861 101.784C101.352 101.283 102.045 101.032 102.941 101.032C103.272 101.032 103.586 101.075 103.885 101.16C104.194 101.235 104.456 101.357 104.669 101.528L104.205 102.696C104.045 102.568 103.864 102.472 103.661 102.408C103.458 102.333 103.245 102.296 103.021 102.296C102.573 102.296 102.232 102.424 101.997 102.68C101.762 102.925 101.645 103.293 101.645 103.784V104.92L101.677 105.624V113H100.141ZM98.7009 105.784V104.52H104.109V105.784H98.7009ZM105.565 113V104.52H107.101V113H105.565ZM106.333 102.888C106.034 102.888 105.784 102.792 105.581 102.6C105.389 102.408 105.293 102.173 105.293 101.896C105.293 101.608 105.389 101.368 105.581 101.176C105.784 100.984 106.034 100.888 106.333 100.888C106.632 100.888 106.877 100.984 107.069 101.176C107.272 101.357 107.373 101.587 107.373 101.864C107.373 102.152 107.277 102.397 107.085 102.6C106.893 102.792 106.642 102.888 106.333 102.888ZM110.026 113V101.128H111.562V113H110.026Z" fill="#47586E"/>
<path d="M80 43.1154C86.3118 43.1154 91.4286 38.0355 91.4286 31.7692C91.4286 25.5029 86.3118 20.4231 80 20.4231C73.6882 20.4231 68.5714 25.5029 68.5714 31.7692C68.5714 38.0355 73.6882 43.1154 80 43.1154Z" fill="#290A29"/>
<path d="M105.143 9.07692H99.6987L95.7589 1.2542C95.569 0.877283 95.2771 0.560302 94.916 0.338781C94.5549 0.11726 94.1388 -4.88762e-05 93.7143 1.52766e-08H66.2857C65.8612 -4.88762e-05 65.4451 0.11726 65.084 0.338781C64.7229 0.560302 64.431 0.877283 64.2411 1.2542L60.3013 9.07692H54.8571C53.0391 9.07891 51.2961 9.79678 50.0106 11.073C48.7251 12.3493 48.002 14.0797 48 15.8846V52.1923C48.002 53.9972 48.7251 55.7276 50.0106 57.0039C51.2961 58.2801 53.0391 58.998 54.8571 59H105.143C106.961 58.998 108.704 58.2801 109.989 57.0039C111.275 55.7276 111.998 53.9972 112 52.1923V15.8846C111.998 14.0797 111.275 12.3493 109.989 11.073C108.704 9.79678 106.961 9.07891 105.143 9.07692ZM80 47.6538C76.8355 47.6538 73.7421 46.7222 71.1109 44.9768C68.4797 43.2314 66.4289 40.7505 65.2179 37.848C64.0069 34.9455 63.6901 31.7516 64.3074 28.6703C64.9248 25.589 66.4487 22.7586 68.6863 20.5371C70.9239 18.3156 73.7749 16.8027 76.8786 16.1898C79.9823 15.5769 83.1993 15.8915 86.1229 17.0938C89.0466 18.296 91.5454 20.332 93.3035 22.9442C95.0616 25.5564 96 28.6276 96 31.7692C95.9951 35.9806 94.3078 40.0181 91.3083 42.996C88.3088 45.9739 84.242 47.649 80 47.6538Z" fill="#290A29"/>
</svg>
