<svg width="26" height="26" viewBox="0 0 26 26" fill="none" xmlns="http://www.w3.org/2000/svg">
<path fill-rule="evenodd" clip-rule="evenodd" d="M13.5881 6.25696C14.0728 5.77229 14.7301 5.5 15.4156 5.5C16.8429 5.5 18 6.65708 18 8.08442C18 8.76985 17.7277 9.42721 17.243 9.91188L8.81357 18.3413C8.71199 18.4429 8.57421 18.5 8.43056 18.5H5.54167C5.24251 18.5 5 18.2575 5 17.9583V15.0694C5 14.9258 5.05707 14.788 5.15865 14.6864L13.5881 6.25696ZM15.4156 6.58333C15.0175 6.58333 14.6357 6.74148 14.3542 7.02299L14.0716 7.30556L16.1944 9.42841L16.477 9.14585C16.7585 8.86434 16.9167 8.48253 16.9167 8.08442C16.9167 7.25539 16.2446 6.58333 15.4156 6.58333ZM15.4284 10.1944L13.3056 8.07159L6.08333 15.2938V17.4167H8.20619L15.4284 10.1944Z" fill="#023D6A"/>
<path d="M5 19.5H21V20.5H5V19.5Z" fill="#023D6A"/>
</svg>
