<svg width="25" height="26" viewBox="0 0 25 26" fill="none" xmlns="http://www.w3.org/2000/svg">
<g clip-path="url(#clip0_2040_8785)">
<path d="M12.5 0.5C5.5965 0.5 0 6.0965 0 13C0 18.862 4.036 23.781 9.4805 25.132V16.82H6.903V13H9.4805V11.354C9.4805 7.0995 11.406 5.1275 15.583 5.1275C16.375 5.1275 17.7415 5.283 18.3005 5.438V8.9005C18.0055 8.8695 17.493 8.854 16.8565 8.854C14.807 8.854 14.015 9.6305 14.015 11.649V13H18.098L17.3965 16.82H14.015V25.4085C20.2045 24.661 25.0005 19.391 25.0005 13C25 6.0965 19.4035 0.5 12.5 0.5Z" fill="white"/>
</g>
<defs>
<clipPath id="clip0_2040_8785">
<rect width="25" height="25" fill="white" transform="translate(0 0.5)"/>
</clipPath>
</defs>
</svg>
