<svg width="23" height="21" viewBox="0 0 23 21" fill="none" xmlns="http://www.w3.org/2000/svg">
<path d="M9.58624 3.94697C10.4156 1.87946 10.8302 0.845703 11.5433 0.845703C12.2564 0.845703 12.671 1.87946 13.5003 3.94697L13.539 4.04324C14.0075 5.21128 14.2418 5.79531 14.7192 6.15028C15.1967 6.50526 15.8234 6.56139 17.0769 6.67365L17.3035 6.69394C19.355 6.87767 20.3808 6.96953 20.6002 7.62214C20.8197 8.27474 20.058 8.96779 18.5344 10.3539L18.026 10.8165C17.2547 11.5182 16.8691 11.869 16.6894 12.3288C16.6558 12.4146 16.628 12.5025 16.6059 12.5919C16.4878 13.0712 16.6007 13.5802 16.8265 14.5981L16.8968 14.9149C17.3119 16.7856 17.5194 17.721 17.1571 18.1244C17.0217 18.2752 16.8457 18.3837 16.6502 18.4371C16.1271 18.5798 15.3843 17.9746 13.8988 16.7642C12.9234 15.9693 12.4357 15.5719 11.8758 15.4825C11.6555 15.4473 11.4311 15.4473 11.2108 15.4825C10.6509 15.5719 10.1632 15.9693 9.18774 16.7642C7.70226 17.9746 6.95952 18.5798 6.43637 18.4371C6.24088 18.3837 6.06491 18.2752 5.92951 18.1244C5.56716 17.721 5.77469 16.7856 6.18974 14.9149L6.26004 14.5981C6.48589 13.5802 6.59881 13.0712 6.48067 12.5919C6.45863 12.5025 6.43076 12.4146 6.39723 12.3288C6.2175 11.869 5.83188 11.5182 5.06064 10.8165L4.55216 10.3539C3.02863 8.96779 2.26687 8.27474 2.48635 7.62214C2.70584 6.96953 3.73159 6.87767 5.78309 6.69394L6.0097 6.67365C7.26319 6.56139 7.88994 6.50526 8.36738 6.15028C8.84483 5.79531 9.07909 5.21128 9.54762 4.04324L9.58624 3.94697Z" stroke="#023D6A" stroke-width="1.4"/>
<path d="M16.8145 3.28539L18.9231 1.17676" stroke="#023D6A" stroke-width="1.4" stroke-linecap="round"/>
<path d="M19.9775 13.8284L22.0862 15.937" stroke="#023D6A" stroke-width="1.4" stroke-linecap="round"/>
<path d="M11.543 17.5185V20.1543" stroke="#023D6A" stroke-width="1.4" stroke-linecap="round"/>
<path d="M6.27148 3.28539L4.16285 1.17676" stroke="#023D6A" stroke-width="1.4" stroke-linecap="round"/>
<path d="M3.1084 13.8284L0.999769 15.937" stroke="#023D6A" stroke-width="1.4" stroke-linecap="round"/>
</svg>
