<svg width="16" height="17" viewBox="0 0 16 17" fill="none" xmlns="http://www.w3.org/2000/svg">
<path d="M11.1976 2.30792L4.62875 4.6192C2.7611 5.27634 1.82727 5.6049 1.47745 6.01561C0.84085 6.763 0.84085 7.86194 1.47745 8.60932C1.82727 9.02003 2.77964 9.35512 4.68437 10.0253C5.02068 10.1436 5.18883 10.2028 5.33464 10.2833C5.68402 10.4762 5.9677 10.7693 6.14918 11.1247C6.22491 11.2731 6.2776 11.4399 6.38298 11.7736C6.93169 13.5112 7.20605 14.38 7.52394 14.7147C8.31249 15.5451 9.63591 15.5451 10.4245 14.7147C10.7424 14.38 11.0167 13.5112 11.5654 11.7736L13.7686 4.79681C14.2946 3.1312 14.5576 2.29839 14.1134 1.86836C13.6691 1.43832 12.8453 1.72819 11.1976 2.30792Z" stroke="#023D6A" stroke-width="1.4"/>
</svg>
