<svg width="20" height="20" viewBox="0 0 20 20" fill="none" xmlns="http://www.w3.org/2000/svg">
<path d="M17.5 10C17.5 8.43292 17.0091 6.90521 16.0964 5.63142C15.1836 4.35762 13.8947 3.40174 12.4108 2.89802C10.9269 2.3943 9.32246 2.36805 7.82287 2.82295C6.32327 3.27785 5.00383 4.19104 4.04985 5.43429C3.09587 6.67753 2.55529 8.18837 2.50402 9.75461C2.45274 11.3208 2.89336 12.8638 3.76398 14.1668C4.6346 15.4698 5.89149 16.4673 7.35812 17.0193C8.82476 17.5713 10.4275 17.65 11.9411 17.2444" stroke="#33363F" stroke-width="2" stroke-linecap="round"/>
<circle cx="9.99984" cy="10.0001" r="3.33333" stroke="#33363F" stroke-width="2"/>
<path d="M13.3335 7.5V11.25C13.3335 12.4006 14.2662 13.3333 15.4168 13.3333V13.3333C16.5674 13.3333 17.5002 12.4006 17.5002 11.25V10" stroke="#33363F" stroke-width="2" stroke-linecap="round"/>
</svg>
