<svg width="20" height="20" viewBox="0 0 20 20" fill="none" xmlns="http://www.w3.org/2000/svg">
<g clip-path="url(#clip0_3557_2614)">
<path fill-rule="evenodd" clip-rule="evenodd" d="M0.244091 4.133C1.68528 2.69175 4.38821 6.62273e-08 10.0001 0C14.3671 1.32455e-07 17.0857 1.46277 18.6448 3.02186C18.9702 3.3473 18.9702 3.87494 18.6448 4.20037C18.3194 4.52581 17.7917 4.52581 17.4663 4.20038C16.2476 2.98172 13.9662 1.66666 10.0001 1.66666C5.06724 1.66666 2.76941 3.96463 1.43157 5.30253L1.42262 5.31149C1.09719 5.63693 0.569556 5.63694 0.244113 5.31151C-0.0813293 4.98608 -0.081339 4.45844 0.244091 4.133ZM3.41304 5.51552C5.38435 3.80964 7.87506 3.05554 10 3.05554C13.8229 3.05554 16.355 4.38895 17.9205 6.18928C19.4615 7.9615 20 10.1101 20 11.6667C20 12.6399 19.9393 13.868 19.4194 14.8646C19.1483 15.3842 18.7487 15.8499 18.1747 16.1788C17.6052 16.505 16.9167 16.6666 16.1111 16.6666C14.0357 16.6666 12.2223 14.9545 12.2223 13.0555C12.2223 12.2933 11.9561 11.7564 11.5828 11.4065C11.2012 11.0488 10.6499 10.8333 10 10.8333C9.08147 10.8333 7.99683 11.5819 7.76944 13.1734C7.53643 14.8042 7.95097 16.2462 9.82446 18.655C10.107 19.0183 10.0416 19.5419 9.67828 19.8244C9.31499 20.107 8.79143 20.0415 8.50887 19.6782C6.49348 17.087 5.7969 15.1957 6.11953 12.9377C6.44777 10.6403 8.14074 9.16664 10 9.16664C11.0167 9.16664 11.9932 9.50674 12.7227 10.1906C13.4606 10.8824 13.8889 11.8733 13.8889 13.0555C13.8889 13.9343 14.8532 15 16.1111 15C16.6944 15 17.0823 14.8838 17.3461 14.7326C17.6054 14.5841 17.7961 14.3727 17.9417 14.0937C18.2551 13.493 18.3333 12.6378 18.3333 11.6667C18.3333 10.4455 17.8995 8.70514 16.6628 7.28291C15.4506 5.8888 13.3994 4.7222 10 4.7222C8.23608 4.7222 6.14345 5.35681 4.50364 6.77582C2.88706 8.17474 1.66666 10.3724 1.66666 13.6111C1.66666 14.0713 1.29357 14.4444 0.833332 14.4444C0.373095 14.4444 -6.62273e-08 14.0713 0 13.6111C3.31136e-07 9.90491 1.4185 7.24151 3.41304 5.51552ZM10.0001 7.77776C6.93658 7.77776 5.09244 10.3788 4.86249 12.5863C4.72866 13.8711 4.87065 15.3677 5.46892 16.5742C5.67338 16.9865 5.50487 17.4865 5.09254 17.691C4.68021 17.8955 4.1802 17.7269 3.97575 17.3146C3.19664 15.7434 3.04928 13.9066 3.2048 12.4136C3.49567 9.62116 5.84135 6.11109 10.0001 6.11109C11.6583 6.11109 12.9579 6.48946 13.965 7.09982C14.9705 7.70921 15.6381 8.52167 16.0775 9.3206C16.5143 10.1148 16.7288 10.9005 16.8354 11.4816C16.889 11.774 16.9162 12.0197 16.93 12.196C16.9369 12.2843 16.9406 12.3555 16.9424 12.407C16.9434 12.4328 16.9439 12.4537 16.9442 12.4693L16.9444 12.4887L16.9445 12.4954L16.9445 12.4979L16.9445 12.499C16.9445 12.4995 16.9445 12.5 16.1112 12.5H16.9445C16.9445 12.9602 16.5714 13.3333 16.1112 13.3333C15.6519 13.3333 15.2795 12.9618 15.2778 12.503C15.2778 12.5026 15.2778 12.5021 15.2778 12.5017L15.2778 12.5026L15.2778 12.4988C15.2777 12.4934 15.2775 12.483 15.2769 12.4681C15.2758 12.4382 15.2735 12.3902 15.2685 12.3265C15.2584 12.199 15.2379 12.0107 15.196 11.7822C15.1116 11.3217 14.9442 10.7185 14.6171 10.1238C14.2926 9.53384 13.8144 8.95742 13.1011 8.52514C12.3895 8.09383 11.3974 7.77776 10.0001 7.77776ZM15.2778 12.5012C15.2778 12.5014 15.2778 12.5015 15.2778 12.5017L15.2778 12.5015V12.5012ZM15.2778 12.5012C15.2778 12.5011 15.2778 12.5009 15.2778 12.5008C15.2778 12.5008 15.2778 12.5008 15.2778 12.5008L15.2778 12.5012ZM10.0001 12.2222C10.4603 12.2222 10.8334 12.5953 10.8334 13.0555C10.8334 15.7845 12.8056 18.3333 15.5556 18.3333C16.6447 18.3333 17.5566 18.3275 18.738 17.6187C19.1326 17.3819 19.6445 17.5099 19.8813 17.9046C20.1181 18.2992 19.9901 18.8111 19.5955 19.0479C18.0085 20 16.7045 20 15.5758 20H15.5556C11.6389 20 9.16672 16.4377 9.16672 13.0555C9.16672 12.5953 9.53982 12.2222 10.0001 12.2222Z" fill="#333333"/>
</g>
<defs>
<clipPath id="clip0_3557_2614">
<rect width="20" height="20" fill="white"/>
</clipPath>
</defs>
</svg>
