<svg width="62" height="53" viewBox="0 0 62 53" fill="none" xmlns="http://www.w3.org/2000/svg">
<path d="M20.6468 28.5134C20.4644 27.533 20.3688 26.5263 20.3688 25.4933C20.3688 16.4068 27.6734 9.0448 36.6891 9.0448C45.7047 9.0448 53.0093 16.4068 53.0093 25.4933C53.0093 34.5798 45.7047 41.9418 36.6891 41.9418C32.7632 41.9418 29.1587 40.5412 26.3445 38.2127M23.9213 46.8265C26.4401 48.3671 29.2629 49.4614 32.2681 50.0041L34.9519 47.0015C35.5252 47.0453 36.1071 47.0803 36.6891 47.0803C37.271 47.0803 37.8529 47.0541 38.4262 47.0015L41.11 50.0041C44.645 49.3563 47.9108 47.9645 50.751 45.9773L50.5426 41.9418C51.4285 41.1802 52.2536 40.3574 53.0006 39.4645L57.0046 39.6746C58.9763 36.812 60.3573 33.5206 61 29.9578L58.0208 27.2528C58.0643 26.6751 58.099 26.0886 58.099 25.5021C58.099 24.9156 58.073 24.329 58.0208 23.7513L61 21.0463C60.3573 17.4835 58.9763 14.1921 57.0046 11.3296L53.0006 11.5396C52.2449 10.6468 51.4285 9.81514 50.5426 9.06231L50.751 5.02678C47.9108 3.03965 44.645 1.64779 41.11 1L38.4262 4.00257C37.8529 3.95881 37.271 3.92379 36.6891 3.92379C36.1071 3.92379 35.5252 3.95005 34.9519 4.00257L32.2681 1C28.7331 1.64779 25.4673 3.03965 22.6271 5.02678L22.8356 9.06231C21.9496 9.82389 21.1245 10.6468 20.3775 11.5396L16.3735 11.3296C14.4019 14.1921 13.0208 17.4835 12.3781 21.0463L15.3573 23.7513C15.3138 24.329 15.2791 24.9156 15.2791 25.5021C15.2791 25.8172 15.2791 26.1236 15.3052 26.43M33.2148 28.5922C33.2148 28.5922 34.1094 30.947 36.5153 30.947C39.0168 30.947 40.1633 30.0716 40.1633 28.172C40.1633 25.9485 38.0961 25.397 36.2374 24.9768C34.3787 24.5566 33.623 23.5675 33.623 22.2719C33.623 20.9763 35.0648 19.9171 36.9236 20.0484C38.7823 20.1797 39.9548 21.3002 39.9548 22.4732M36.6369 19.8996V18.07M36.663 31.017V32.9166M47.5547 25.4933C47.5547 31.5366 42.6939 36.4356 36.6977 36.4356C30.7016 36.4356 25.8408 31.5366 25.8408 25.4933C25.8408 19.45 30.7016 14.551 36.6977 14.551C42.6939 14.551 47.5547 19.45 47.5547 25.4933ZM26.2403 39.2806C26.2403 46.3054 20.5901 52 13.6202 52C6.65023 52 1 46.3054 1 39.2806C1 32.2559 6.65023 26.5613 13.6202 26.5613C20.5901 26.5613 26.2403 32.2559 26.2403 39.2806ZM20.8813 34.5185C20.1865 33.7307 18.9705 33.6607 18.1888 34.361L11.8049 40.0947L9.21656 37.1622C8.52171 36.3744 7.30573 36.3043 6.52403 37.0046C5.74233 37.7049 5.67284 38.9305 6.36769 39.7183L10.1893 44.0427C10.7973 44.7343 11.8049 44.8744 12.5692 44.4279C12.7342 44.3491 12.8992 44.2528 13.0469 44.1215L20.725 37.2322C21.5067 36.5319 21.5761 35.3064 20.8813 34.5185Z" stroke="#F8D2EA" stroke-width="1.78" stroke-linecap="round" stroke-linejoin="round"/>
</svg>
