<svg width="70" height="69" viewBox="0 0 70 69" fill="none" xmlns="http://www.w3.org/2000/svg">
<path d="M35.4611 33.1504L36.1095 33.7745L35.4611 33.1504ZM63.1616 4.37535L62.5132 3.75118L63.1616 4.37535ZM65.2749 4.33515L64.6507 4.98353L64.6508 4.9836L65.2749 4.33515ZM65.3013 4.36058L65.9255 3.7122L65.9254 3.71213L65.3013 4.36058ZM65.3415 6.47387L64.6931 5.8497L65.3415 6.47387ZM37.641 35.2489L38.2894 35.8731L37.641 35.2489ZM35.5277 35.2891L34.9035 35.9375L34.9036 35.9375L35.5277 35.2891ZM35.5013 35.2636L36.1255 34.6153L36.1255 34.6153L35.5013 35.2636ZM52.6996 19.1207C52.2046 19.0761 51.7671 19.4412 51.7224 19.9363C51.6778 20.4313 52.0429 20.8688 52.538 20.9135L52.6996 19.1207ZM59.3307 20.6223L59.2499 21.5186C59.5285 21.5438 59.803 21.4379 59.9926 21.2322L59.3307 20.6223ZM68.2616 10.9303L68.9234 11.5402C69.1414 11.3037 69.2166 10.9689 69.1206 10.6619C69.0247 10.3549 68.7723 10.1225 68.4584 10.0521L68.2616 10.9303ZM62.6084 8.74092C62.1234 8.63221 61.6421 8.93727 61.5334 9.42229C61.4247 9.90731 61.7297 10.3886 62.2147 10.4973L62.6084 8.74092ZM49.2973 17.508C49.3649 18.0004 49.819 18.3448 50.3114 18.2771C50.8038 18.2095 51.1482 17.7555 51.0806 17.263L49.2973 17.508ZM49.272 10.7103L48.6315 10.078C48.4351 10.2769 48.3423 10.5558 48.3804 10.8328L49.272 10.7103ZM58.533 1.33009L59.4013 1.09341C59.3166 0.782863 59.0726 0.541166 58.7613 0.459526C58.4499 0.377886 58.1187 0.468732 57.8925 0.697781L58.533 1.33009ZM59.2418 7.35261C59.3725 7.83217 59.8672 8.11496 60.3468 7.98424C60.8263 7.85352 61.1091 7.35879 60.9784 6.87923L59.2418 7.35261ZM49.5577 34.8805C49.5577 34.3835 49.1547 33.9805 48.6577 33.9805C48.1606 33.9805 47.7577 34.3835 47.7577 34.8805H49.5577ZM22.4074 34.6146C22.4074 34.1176 22.0044 33.7146 21.5074 33.7146C21.0103 33.7146 20.6074 34.1176 20.6074 34.6146H22.4074ZM46.457 25.2147C45.96 25.2147 45.557 25.6176 45.557 26.1147C45.557 26.6117 45.96 27.0147 46.457 27.0147V25.2147ZM47.9333 34.9539L48.2184 35.8075C48.2405 35.8001 48.2624 35.7919 48.284 35.7827L47.9333 34.9539ZM37.5712 37.4653C37.0997 37.6228 36.8451 38.1326 37.0026 38.6041C37.16 39.0755 37.6698 39.3301 38.1413 39.1727L37.5712 37.4653ZM32.118 39.1643C32.5899 39.3204 33.099 39.0643 33.255 38.5924C33.411 38.1204 33.155 37.6114 32.683 37.4553L32.118 39.1643ZM22.2226 34.9447L21.9347 35.7974L21.9401 35.7992L22.2226 34.9447ZM42.1016 27.0055C42.5987 27.0055 43.0016 26.6026 43.0016 26.1055C43.0016 25.6085 42.5987 25.2055 42.1016 25.2055V27.0055ZM28.2546 26.0963C28.2546 26.5934 28.6575 26.9963 29.1546 26.9963C29.6516 26.9963 30.0546 26.5934 30.0546 26.0963H28.2546ZM40.1013 25.9771C40.1013 26.4742 40.5042 26.8771 41.0013 26.8771C41.4984 26.8771 41.9013 26.4742 41.9013 25.9771H40.1013ZM52.6612 20.0119C52.3444 19.6289 51.7771 19.5753 51.3941 19.8921C51.0111 20.209 50.9575 20.7763 51.2743 21.1593L52.6612 20.0119ZM49.0228 18.8287C49.3945 19.1587 49.9633 19.125 50.2934 18.7534C50.6234 18.3817 50.5897 17.8129 50.2181 17.4828L49.0228 18.8287ZM60.8152 19.6205C60.5658 19.1906 60.0151 19.0442 59.5851 19.2936C59.1552 19.543 59.0088 20.0938 59.2582 20.5237L60.8152 19.6205ZM49.584 10.6542C50.0088 10.9123 50.5624 10.7772 50.8205 10.3524C51.0786 9.92758 50.9435 9.37399 50.5187 9.11589L49.584 10.6542ZM34.1046 5.62132C34.1046 6.11838 34.5075 6.52132 35.0046 6.52132C35.5016 6.52132 35.9046 6.11838 35.9046 5.62132H34.1046ZM35.9046 1C35.9046 0.502944 35.5016 0.1 35.0046 0.1C34.5075 0.1 34.1046 0.502944 34.1046 1H35.9046ZM34.1046 68C34.1046 68.4971 34.5075 68.9 35.0046 68.9C35.5016 68.9 35.9046 68.4971 35.9046 68H34.1046ZM35.9046 63.3878C35.9046 62.8908 35.5016 62.4878 35.0046 62.4878C34.5075 62.4878 34.1046 62.8908 34.1046 63.3878H35.9046ZM63.8878 33.6046C63.3908 33.6046 62.9878 34.0075 62.9878 34.5046C62.9878 35.0016 63.3908 35.4046 63.8878 35.4046V33.6046ZM68.5 35.4046C68.9971 35.4046 69.4 35.0016 69.4 34.5046C69.4 34.0075 68.9971 33.6046 68.5 33.6046V35.4046ZM1.5 33.6046C1.00294 33.6046 0.6 34.0075 0.6 34.5046C0.6 35.0016 1.00294 35.4046 1.5 35.4046V33.6046ZM6.12132 35.4046C6.61838 35.4046 7.02132 35.0016 7.02132 34.5046C7.02132 34.0075 6.61838 33.6046 6.12132 33.6046V35.4046ZM36.1095 33.7745L63.81 4.99953L62.5132 3.75118L34.8127 32.5262L36.1095 33.7745ZM63.81 4.99953C64.0377 4.76295 64.4141 4.75579 64.6507 4.98353L65.899 3.68676C64.9463 2.76957 63.4304 2.79841 62.5132 3.75118L63.81 4.99953ZM64.6508 4.9836L64.6772 5.00904L65.9254 3.71213L65.899 3.68669L64.6508 4.9836ZM64.6771 5.00897C64.9137 5.23671 64.9209 5.61312 64.6931 5.8497L65.9899 7.09805C66.9071 6.14529 66.8782 4.62939 65.9255 3.7122L64.6771 5.00897ZM64.6931 5.8497L36.9926 34.6247L38.2894 35.8731L65.9899 7.09805L64.6931 5.8497ZM36.9926 34.6247C36.7649 34.8613 36.3885 34.8684 36.1519 34.6407L34.9036 35.9375C35.8563 36.8547 37.3722 36.8258 38.2894 35.8731L36.9926 34.6247ZM36.1519 34.6407L36.1255 34.6153L34.8771 35.912L34.9035 35.9375L36.1519 34.6407ZM36.1255 34.6153C35.8889 34.3875 35.8817 34.0111 36.1095 33.7745L34.8127 32.5262C33.8955 33.479 33.9244 34.9948 34.8771 35.912L36.1255 34.6153ZM52.538 20.9135L59.2499 21.5186L59.4115 19.7259L52.6996 19.1207L52.538 20.9135ZM59.9926 21.2322L68.9234 11.5402L67.5997 10.3205L58.6689 20.0124L59.9926 21.2322ZM68.4584 10.0521L62.6084 8.74092L62.2147 10.4973L68.0648 11.8085L68.4584 10.0521ZM51.0806 17.263L50.1636 10.5878L48.3804 10.8328L49.2973 17.508L51.0806 17.263ZM49.9124 11.3426L59.1734 1.96241L57.8925 0.697781L48.6315 10.078L49.9124 11.3426ZM57.6647 1.56678L59.2418 7.35261L60.9784 6.87923L59.4013 1.09341L57.6647 1.56678ZM36.8554 38.3007C36.8554 39.2671 36.0719 40.0506 35.1054 40.0506V41.8506C37.066 41.8506 38.6554 40.2612 38.6554 38.3007H36.8554ZM35.1054 40.0506C34.139 40.0506 33.3555 39.2671 33.3555 38.3007H31.5555C31.5555 40.2612 33.1449 41.8506 35.1054 41.8506V40.0506ZM33.3555 38.3007C33.3555 37.3342 34.139 36.5507 35.1054 36.5507V34.7507C33.1449 34.7507 31.5555 36.3401 31.5555 38.3007H33.3555ZM35.1054 36.5507C36.0719 36.5507 36.8554 37.3342 36.8554 38.3007H38.6554C38.6554 36.3401 37.066 34.7507 35.1054 34.7507V36.5507ZM47.7577 34.8805V44.9851H49.5577V34.8805H47.7577ZM47.7577 44.9851C47.7577 45.8726 47.0236 46.6066 46.1361 46.6066V48.4066C48.0177 48.4066 49.5577 46.8667 49.5577 44.9851H47.7577ZM46.1361 46.6066H24.0289V48.4066H46.1361V46.6066ZM24.0289 46.6066C23.1414 46.6066 22.4074 45.8726 22.4074 44.9851H20.6074C20.6074 46.8667 22.1473 48.4066 24.0289 48.4066V46.6066ZM22.4074 44.9851V34.6146H20.6074V44.9851H22.4074ZM46.457 27.0147H47.9333V25.2147H46.457V27.0147ZM47.9333 27.0147C48.6581 27.0147 49.2614 27.6136 49.2614 28.3428H51.0614C51.0614 26.6147 49.6474 25.2147 47.9333 25.2147V27.0147ZM49.2614 28.3428V32.2764H51.0614V28.3428H49.2614ZM49.2614 32.2764C49.2614 32.9738 48.8584 33.5853 47.5826 34.125L48.284 35.7827C49.869 35.1121 51.0614 34.0181 51.0614 32.2764H49.2614ZM47.6482 34.1002L37.5712 37.4653L38.1413 39.1727L48.2184 35.8075L47.6482 34.1002ZM32.683 37.4553L22.5051 34.0902L21.9401 35.7992L32.118 39.1643L32.683 37.4553ZM22.5105 34.092C21.3575 33.7027 20.8945 33.0081 20.8945 32.2673H19.0945C19.0945 33.9839 20.2635 35.2331 21.9347 35.7974L22.5105 34.092ZM20.8945 32.2673V28.3337H19.0945V32.2673H20.8945ZM20.8945 28.3337C20.8945 27.6088 21.4934 27.0055 22.2226 27.0055V25.2055C20.4944 25.2055 19.0945 26.6195 19.0945 28.3337H20.8945ZM22.2226 27.0055H42.1016V25.2055H22.2226V27.0055ZM30.0546 26.0963V24.1983H28.2546V26.0963H30.0546ZM30.0546 24.1983C30.0546 23.2466 30.8436 22.4575 31.7953 22.4575V20.6575C29.8495 20.6575 28.2546 22.2525 28.2546 24.1983H30.0546ZM31.7953 22.4575H38.3605V20.6575H31.7953V22.4575ZM38.3605 22.4575C39.3122 22.4575 40.1013 23.2466 40.1013 24.1983H41.9013C41.9013 22.2525 40.3063 20.6575 38.3605 20.6575V22.4575ZM40.1013 24.1983V25.9771H41.9013V24.1983H40.1013ZM51.2743 21.1593C54.2629 24.772 56.0559 29.412 56.0559 34.4679H57.8559C57.8559 28.9791 55.9077 23.9364 52.6612 20.0119L51.2743 21.1593ZM56.0559 34.4679C56.0559 46.0101 46.6935 55.3725 35.1513 55.3725V57.1725C47.6876 57.1725 57.8559 47.0042 57.8559 34.4679H56.0559ZM35.1513 55.3725C23.6091 55.3725 14.2467 46.0101 14.2467 34.4679H12.4467C12.4467 47.0042 22.615 57.1725 35.1513 57.1725V55.3725ZM14.2467 34.4679C14.2467 22.9257 23.6091 13.5633 35.1513 13.5633V11.7633C22.615 11.7633 12.4467 21.9316 12.4467 34.4679H14.2467ZM35.1513 13.5633C40.4794 13.5633 45.3302 15.5493 49.0228 18.8287L50.2181 17.4828C46.2085 13.9219 40.9364 11.7633 35.1513 11.7633V13.5633ZM59.2582 20.5237C61.6381 24.6263 62.997 29.3857 62.997 34.4679H64.797C64.797 29.0604 63.3501 23.9904 60.8152 19.6205L59.2582 20.5237ZM62.997 34.4679C62.997 49.8431 50.5353 62.3136 35.1513 62.3136V64.1136C51.5297 64.1136 64.797 50.8368 64.797 34.4679H62.997ZM35.1513 62.3136C19.7677 62.3136 7.31474 49.8435 7.31474 34.4679H5.51474C5.51474 50.8364 18.7725 64.1136 35.1513 64.1136V62.3136ZM7.31474 34.4679C7.31474 19.0926 19.7767 6.62218 35.1513 6.62218V4.82218C18.7818 4.82218 5.51474 18.0992 5.51474 34.4679H7.31474ZM35.1513 6.62218C40.4373 6.62218 45.3744 8.09644 49.584 10.6542L50.5187 9.11589C46.0359 6.39214 40.7768 4.82218 35.1513 4.82218V6.62218ZM35.9046 5.62132V1H34.1046V5.62132H35.9046ZM35.9046 68V63.3878H34.1046V68H35.9046ZM63.8878 35.4046H68.5V33.6046H63.8878V35.4046ZM1.5 35.4046H6.12132V33.6046H1.5V35.4046Z" fill="#F8D2EA"/>
</svg>
