<svg width="74" height="51" viewBox="0 0 74 51" fill="none" xmlns="http://www.w3.org/2000/svg">
<path d="M56.7272 10.1147C56.7272 10.1147 52.7397 12.4347 51.3293 12.148C49.9188 11.8613 44.2249 8.45509 41.9003 9.12416C39.5757 9.79323 27.9353 18.7431 26.4465 19.7423C24.9577 20.7416 25.8196 22.3143 27.4826 23.2267C29.1455 24.1391 32.5932 24.6344 35.1267 23.6785C37.6603 22.7227 42.2311 20.6113 44.0159 21.0283C45.8007 21.4454 57.9809 28.9094 58.9299 29.2831C59.8789 29.6567 63.0829 29.3265 63.5878 26.7111M17.7488 8.16835C17.7488 8.16835 20.9441 10.08 21.658 10.5318C22.3719 10.9836 25.7674 11.0705 27.2649 10.2798C28.7624 9.4891 35.327 9.24581 37.7386 11.3573M10.3136 25.1296C10.3136 25.1296 14.3011 27.6147 14.719 28.866C15.1369 30.1172 15.1369 33.4713 15.1369 33.4713M45.7137 28.9876L52.6526 33.1758C52.6526 33.1758 56.3964 35.6609 58.0941 33.4278C59.7919 31.1947 58.425 29.2396 57.3454 28.5792M40.1938 33.506L49.292 39.0671M49.292 39.0671C49.292 39.0671 52.7832 41.4306 54.6899 39.1105C56.5966 36.7905 54.7335 34.6356 53.7322 33.8883M49.292 39.0671C50.0407 39.6493 51.3728 42.1778 49.7099 44.1242C48.047 46.0706 45.1391 44.2893 45.1391 44.2893L39.7759 41.0569M37.6516 46.9395L39.9327 48.4775C39.9327 48.4775 42.3008 50.0155 44.251 48.3124C46.2012 46.6093 44.7037 44.1242 44.7037 44.1242M14.7026 1.3037L16.6316 2.17092C18.3633 2.94947 19.1347 4.98167 18.3547 6.70998L9.50439 26.3181C8.7243 28.0464 6.68808 28.8163 4.95636 28.0378L3.02739 27.1706C1.29567 26.392 0.524216 24.3598 1.3043 22.6315L10.1546 3.02339C10.9347 1.29509 12.9709 0.525154 14.7026 1.3037ZM15.1195 6.40444C15.1195 7.29224 14.3984 8.01194 13.5088 8.01194C12.6193 8.01194 11.8982 7.29224 11.8982 6.40444C11.8982 5.51665 12.6193 4.79694 13.5088 4.79694C14.3984 4.79694 15.1195 5.51665 15.1195 6.40444ZM70.8606 29.3083L68.9021 30.1068C67.1438 30.8237 65.1362 29.9822 64.4179 28.2274L56.2692 8.31873C55.5509 6.56393 56.394 4.56028 58.1523 3.84344L60.1108 3.04496C61.8691 2.32812 63.8767 3.16956 64.5949 4.92436L72.7437 24.833C73.462 26.5878 72.6189 28.5915 70.8606 29.3083ZM62.7433 8.18573C62.7433 9.07352 62.0222 9.79323 61.1326 9.79323C60.2431 9.79323 59.522 9.07352 59.522 8.18573C59.522 7.29793 60.2431 6.57823 61.1326 6.57823C62.0222 6.57823 62.7433 7.29793 62.7433 8.18573ZM21.9882 29.2543C23.3854 30.2413 23.7164 32.1719 22.7275 33.5663L19.4934 38.1268C18.5044 39.5212 16.5701 39.8516 15.1728 38.8646C13.7756 37.8776 13.4446 35.9471 14.4335 34.5526L17.6677 29.9922C18.6566 28.5977 20.591 28.2674 21.9882 29.2543ZM27.7305 32.8307C29.1277 33.8177 29.4587 35.7483 28.4698 37.1427L23.7971 43.7316C22.8082 45.1261 20.8738 45.4564 19.4766 44.4695C18.0794 43.4825 17.7484 41.5519 18.7373 40.1575L23.41 33.5686C24.3989 32.1741 26.3333 31.8438 27.7305 32.8307ZM33.9642 35.3978C35.3615 36.3848 35.6925 38.3154 34.7035 39.7098L30.0309 46.2987C29.0419 47.6932 27.1076 48.0235 25.7104 47.0365C24.3131 46.0496 23.9821 44.119 24.9711 42.7246L29.6437 36.1357C30.6327 34.7412 32.567 34.4109 33.9642 35.3978ZM38.8551 39.9203C40.2523 40.9073 40.5833 42.8379 39.5944 44.2323L36.4307 48.6935C35.4417 50.0879 33.5074 50.4183 32.1101 49.4313C30.7129 48.4443 30.3819 46.5138 31.3709 45.1193L34.5346 40.6582C35.5235 39.2637 37.4579 38.9334 38.8551 39.9203Z" stroke="#F8D2EA" stroke-width="1.7" stroke-linecap="round" stroke-linejoin="round"/>
</svg>

