<svg width="64" height="65" viewBox="0 0 64 65" fill="none" xmlns="http://www.w3.org/2000/svg">
<path d="M20.7856 57.6557L15.2408 58.5583L17.4277 64L20.7856 57.6557Z" fill="#F8D2EA"/>
<path d="M7.58658 19.7898L6.7342 14.1919L1.31857 16.3703L7.58658 19.7898Z" fill="#F8D2EA"/>
<path d="M43.2058 6.92768L48.8109 6.65863L47.2352 1L43.2058 6.92768Z" fill="#F8D2EA"/>
<path d="M56.7148 44.2295L57.3261 49.8534L62.8278 47.9267L56.7148 44.2295Z" fill="#F8D2EA"/>
<path d="M41.4752 31.298V38.2758C41.4752 39.2305 40.7003 40.0203 39.7446 40.0203H24.6084C23.6613 40.0203 22.8778 39.2392 22.8778 38.2758V31.1157M34.0793 33.6673L40.9844 31.3414C41.966 30.9248 42.5084 30.3433 42.5084 29.4928V26.7763C42.5084 25.9344 41.8196 25.2401 40.9844 25.2401H23.3772C22.542 25.2401 21.8532 25.9344 21.8532 26.7763V29.4928C21.8532 30.3346 22.4042 31.0116 23.3772 31.3414L30.3512 33.6673M28.1212 25.2401V23.9296C28.1212 22.9315 28.9306 22.107 29.9293 22.107H34.4237C35.4138 22.107 36.2318 22.9229 36.2318 23.9296V25.162M14.0526 6.79749C19.1153 3.16104 25.3058 1.02604 31.9957 1.02604C37.6696 1.02604 42.9819 2.5622 47.5538 5.24397M6.4673 50.001C3.02333 44.9585 1 38.8573 1 32.2787C1 25.7001 2.89418 19.9894 6.14012 15.0424M49.7666 57.8814C44.7384 61.4397 38.6081 63.5227 31.9957 63.5227C25.8913 63.5227 20.2001 61.7435 15.3958 58.6712M57.3605 14.3047C60.9078 19.3905 63 25.5873 63 32.27C63 38.9527 61.3297 43.839 58.4367 48.595M48.1737 32.2787C48.1737 41.2851 40.9306 48.5863 31.9957 48.5863C23.0608 48.5863 15.8177 41.2851 15.8177 32.2787C15.8177 23.2722 23.0608 15.9711 31.9957 15.9711C40.9306 15.9711 48.1737 23.2722 48.1737 32.2787ZM52.1515 18.2189L48.1823 18.4272C47.4333 17.5419 46.6239 16.7175 45.7457 15.9711L45.9524 11.9701C43.1369 10 39.8996 8.62006 36.3954 7.97782L33.7349 10.9547C33.1666 10.9113 32.5898 10.8766 32.0129 10.8766C31.436 10.8766 30.8592 10.9026 30.2909 10.9547L27.6305 7.97782C24.1262 8.62006 20.8889 10 18.0735 11.9701L18.2801 15.9711C17.4019 16.7261 16.5839 17.5419 15.8435 18.4272L11.8743 18.2189C9.91987 21.0569 8.5509 24.3202 7.91376 27.8525L10.867 30.5342C10.8239 31.107 10.7895 31.6885 10.7895 32.27C10.7895 32.8515 10.8153 33.433 10.867 34.0058L7.91376 36.6876C8.5509 40.2199 9.91987 43.4831 11.8743 46.3211L15.8435 46.1128C16.5926 46.9981 17.4019 47.8226 18.2801 48.5689L18.0735 52.5699C20.8889 54.54 24.1262 55.92 27.6305 56.5622L30.2909 53.5853C30.8592 53.6287 31.436 53.6634 32.0129 53.6634C32.5898 53.6634 33.1666 53.6374 33.7349 53.5853L36.3954 56.5622C39.8996 55.92 43.1369 54.54 45.9524 52.5699L45.7457 48.5689C46.6239 47.8139 47.4419 46.9981 48.1823 46.1128L52.1515 46.3211C54.106 43.4831 55.4749 40.2199 56.1121 36.6876L53.1589 34.0058C53.2019 33.433 53.2364 32.8515 53.2364 32.27C53.2364 31.6885 53.2105 31.107 53.1589 30.5342L56.1121 27.8525C55.4749 24.3202 54.106 21.0569 52.1515 18.2189ZM34.0104 33.6586C34.0104 34.67 33.1971 35.4899 32.1937 35.4899C31.1904 35.4899 30.377 34.67 30.377 33.6586C30.377 32.6473 31.1904 31.8274 32.1937 31.8274C33.1971 31.8274 34.0104 32.6473 34.0104 33.6586ZM20.7856 57.6557L15.2408 58.5583L17.4277 64L20.7856 57.6557ZM7.58658 19.7898L6.7342 14.1919L1.31857 16.3703L7.58658 19.7898ZM43.2058 6.92768L48.8109 6.65863L47.2352 1L43.2058 6.92768ZM56.7148 44.2295L57.3261 49.8534L62.8278 47.9267L56.7148 44.2295Z" stroke="#F8D2EA" stroke-width="1.7" stroke-linecap="round" stroke-linejoin="round"/>
</svg>
