<svg width="62" height="61" viewBox="0 0 62 61" fill="none" xmlns="http://www.w3.org/2000/svg">
<g clip-path="url(#clip0_2040_5017)">
<path d="M15.3493 53.7764L18.6252 52.3615L32.9187 56.234C32.9187 56.234 36.1444 57.3759 38.8674 55.5472C41.5904 53.7268 58.7912 42.8871 58.7912 42.8871C58.7912 42.8871 62.662 40.471 60.5422 37.3266C58.9755 35.0015 55.8839 36.0523 54.5433 36.8715C53.2028 37.6907 39.2779 46.0728 37.5687 46.2052C36.7225 46.2714 27.0036 43.1105 27.0036 43.1105M34.8625 45.4357C34.8625 45.4357 37.8117 45.9818 38.7836 43.4332C39.7555 40.8847 36.3371 39.3373 33.522 38.2368C30.7068 37.1446 23.4177 34.8691 22.7306 34.7781C22.0436 34.687 20.9795 34.7284 17.846 36.5571C14.7125 38.3775 8.52928 42.0679 8.52928 42.0679M54.9874 18.9323C54.9874 25.5632 49.5445 30.9387 42.8304 30.9387C36.1162 30.9387 30.6733 25.5632 30.6733 18.9323C30.6733 12.3014 36.1162 6.92592 42.8304 6.92592C49.5445 6.92592 54.9874 12.3014 54.9874 18.9323ZM60.6009 14.1827L57.7439 13.3387C57.4339 12.5361 57.0652 11.7665 56.6295 11.0301L57.769 8.30777C56.2693 6.24741 54.3171 4.47666 51.9963 3.16928L49.3655 4.56768C48.9717 4.39391 48.5779 4.22842 48.1674 4.08775C47.7568 3.94708 47.3463 3.82297 46.9274 3.7154L45.7795 0.99307C43.1404 0.562793 40.5012 0.720009 38.0212 1.39025L37.1666 4.21187C36.3539 4.51803 35.5747 4.88211 34.829 5.31239L32.0725 4.18705C29.9863 5.66819 28.1933 7.59616 26.8695 9.88821L28.2855 12.4864C28.1095 12.8753 27.942 13.2642 27.7995 13.6697C27.6571 14.0751 27.5314 14.4806 27.4225 14.8943L24.666 16.0279C24.2304 18.6344 24.3895 21.2409 25.0682 23.6902L27.9252 24.5342C28.2352 25.3368 28.6039 26.1063 29.0395 26.8428L27.9001 29.5651C29.3998 31.6255 31.352 33.3962 33.6728 34.7036L36.3036 33.3052C36.6974 33.479 37.0912 33.6445 37.5017 33.7851C37.9122 33.9258 38.3228 34.0499 38.7417 34.1575L39.8895 36.8798C42.5287 37.3101 45.1679 37.1529 47.6479 36.4826L48.5025 33.661C49.3152 33.3548 50.0944 32.9908 50.8401 32.5605L53.5966 33.6858C55.6828 32.2047 57.4758 30.2767 58.7996 27.9847L57.3836 25.3865C57.5595 24.9975 57.7271 24.6086 57.8695 24.2032C58.012 23.7977 58.1377 23.3923 58.2466 22.9786L61.0031 21.8449C61.4387 19.2385 61.2796 16.632 60.6009 14.1827ZM38.8758 25.9408H48.1339C48.1339 25.9408 50.2452 22.1263 48.6952 18.1959C47.8825 16.1355 44.682 12.8671 44.682 12.8671L45.0506 10.4757C45.0506 10.4757 43.3247 10.7488 42.4701 11.4521C41.9422 11.8907 38.1804 14.6875 37.3928 15.1426C36.6052 15.5977 37.2085 17.2857 37.3928 17.6911C37.5771 18.0966 41.0793 17.7987 41.3474 18.8082C41.8668 20.7692 38.1804 21.4312 38.8674 25.9326L38.8758 25.9408ZM2.17549 40.5805L3.82258 39.6414C5.15702 38.8805 6.86336 39.332 7.63379 40.6499L16.1169 55.161C16.8873 56.4789 16.4301 58.1641 15.0957 58.925L13.4486 59.8641C12.1142 60.625 10.4078 60.1735 9.63739 58.8556L1.15428 44.3445C0.383847 43.0266 0.841058 41.3414 2.17549 40.5805Z" stroke="#F8D2EA" stroke-width="1.86" stroke-linecap="round" stroke-linejoin="round"/>
<path d="M5.1108 45.121C5.85116 45.121 6.45134 44.5283 6.45134 43.7971C6.45134 43.0659 5.85116 42.4731 5.1108 42.4731C4.37044 42.4731 3.77026 43.0659 3.77026 43.7971C3.77026 44.5283 4.37044 45.121 5.1108 45.121Z" fill="#F8D2EA"/>
</g>
<defs>
<clipPath id="clip0_2040_5017">
<rect width="62" height="61" fill="white"/>
</clipPath>
</defs>
</svg>
