<svg width="49" height="64" viewBox="0 0 49 64" fill="none" xmlns="http://www.w3.org/2000/svg">
<g clip-path="url(#clip0_3547_2465)">
<path fill-rule="evenodd" clip-rule="evenodd" d="M34.6082 44.6593C34.9985 45.1204 34.3932 45.722 33.9233 45.3431C33.6579 44.866 34.1145 44.3757 34.6082 44.6593Z" fill="#07601F"/>
<path fill-rule="evenodd" clip-rule="evenodd" d="M11.6749 45.775C11.0882 45.2794 10.106 44.8924 9.31226 45.4649C7.93983 46.4534 8.54774 49.6761 10.4299 49.5595C11.0033 49.5224 11.1625 49.1911 11.6722 49.0003C12.158 50.0179 10.7458 50.2379 9.80868 50.116C7.15407 49.7741 7.16734 44.585 10.1803 44.532C10.8174 44.5188 12.2191 44.7599 11.6722 45.7723L11.6749 45.775Z" fill="#07601F"/>
<path fill-rule="evenodd" clip-rule="evenodd" d="M40.573 44.7201C40.7164 46.191 40.5943 47.9243 40.6341 49.4985C40.6235 49.7794 41.0721 49.6018 41.0058 49.9331C40.9394 50.1928 40.3129 50.0312 40.135 49.9967C39.7236 48.5444 40.0554 46.3527 39.9492 44.5982C40.2253 44.5717 40.4297 44.6141 40.5704 44.7228L40.573 44.7201Z" fill="#07601F"/>
<path fill-rule="evenodd" clip-rule="evenodd" d="M14.1598 46.2096C14.7677 46.1407 15.2641 46.2812 15.588 46.5807C16.3817 47.3174 16.1932 49.3157 15.4022 49.8696C13.613 51.1231 11.8768 48.7406 12.7927 47.0153C13.0236 46.578 13.4484 46.2891 14.1598 46.2096ZM14.6562 49.5595C15.7075 49.2945 15.7632 46.3501 14.035 46.8298C12.7529 47.1849 13.1404 49.9385 14.6562 49.5595Z" fill="#07601F"/>
<path fill-rule="evenodd" clip-rule="evenodd" d="M20.0025 46.6443C20.4724 46.154 21.4626 45.9791 21.9908 46.3342C22.8669 46.9199 22.2244 48.7379 22.4262 49.9968H21.7413C21.6723 49.0295 21.8873 47.7812 21.6165 47.018C21.2714 46.6072 20.329 46.7741 20.1246 47.2035C20.2414 48.0383 20.1671 49.0666 20.1857 49.9968H19.5008C19.3176 49.0613 19.822 47.6249 19.315 47.018C18.9513 46.5807 18.1549 46.7768 17.762 47.2035V49.9968H17.0771V46.2123C17.4541 46.1884 17.6107 46.3846 17.762 46.5833C18.2823 46.0665 19.5672 46.0109 19.9999 46.6469L20.0025 46.6443Z" fill="#07601F"/>
<path fill-rule="evenodd" clip-rule="evenodd" d="M26.7133 48.1947C25.9859 48.3378 24.9958 48.2186 24.1649 48.2557C24.1065 49.2018 24.7568 49.6709 25.5957 49.5596C25.9886 49.5066 26.1638 49.1938 26.4664 49.1885C26.862 50.1638 25.4444 50.2539 24.725 50.1188C23.3977 49.867 22.8482 47.336 24.1038 46.4588C25.2294 45.6691 27.0239 46.4297 26.7133 48.1974V48.1947ZM24.1649 47.7601H26.0284C26.1956 46.382 24.0189 46.4217 24.1649 47.7601Z" fill="#07601F"/>
<path fill-rule="evenodd" clip-rule="evenodd" d="M29.697 46.3341C29.8324 46.5912 29.6121 46.7608 29.5723 47.0152C29.2404 46.7078 28.4812 46.8059 28.3299 47.2008V49.9941H27.645V46.2096C27.9689 46.2175 28.2158 46.3023 28.2662 46.5806C28.5609 46.2599 29.2431 45.9737 29.697 46.3315V46.3341Z" fill="#07601F"/>
<path fill-rule="evenodd" clip-rule="evenodd" d="M32.9912 47.2035C32.5081 47.0684 32.5532 46.8351 32.1842 46.7689C30.3525 46.4482 30.1933 49.7981 32.1232 49.5622C32.5107 49.5145 32.6541 49.1753 32.9939 49.1912C33.3416 50.662 30.8197 50.1293 30.3844 49.4986C29.4686 48.1761 30.395 46.1673 31.8763 46.1487C32.2267 46.1461 33.4239 46.2653 32.9939 47.2035H32.9912Z" fill="#07601F"/>
<path fill-rule="evenodd" clip-rule="evenodd" d="M39.1449 49.8696C39.0015 50.2591 38.0645 50.0577 38.0884 49.6814C37.0132 50.7494 34.8657 49.6682 35.8505 48.2556C36.2354 47.7043 37.2999 47.6275 38.0884 47.5745C38.2052 46.4137 36.5965 46.7476 36.0363 47.0762C35.516 46.0135 37.8441 45.9552 38.3963 46.4561C39.0945 47.0842 38.4627 48.4862 38.7706 49.4959C38.7573 49.7583 39.2139 49.5515 39.1422 49.8696H39.1449ZM36.3469 48.8148C36.2222 49.8086 37.7114 49.7 38.0884 49.0029V48.1337C37.2283 48.1257 36.4292 48.1761 36.3469 48.8148Z" fill="#07601F"/>
<path fill-rule="evenodd" clip-rule="evenodd" d="M34.6081 46.395C34.7462 47.312 34.632 48.4807 34.6692 49.4958C34.6586 49.7767 35.1072 49.5991 35.0409 49.9304C34.94 50.1901 34.2392 50.0497 34.1091 49.9304C33.8383 48.9207 34.056 47.4206 33.9843 46.2068C34.2976 46.1618 34.4542 46.2758 34.6055 46.3924L34.6081 46.395Z" fill="#07601F"/>
<path fill-rule="evenodd" clip-rule="evenodd" d="M18.7548 53.1425C18.8955 53.7044 18.7787 54.526 18.8158 55.1912C19.7025 55.0003 21.9616 54.7936 21.3643 56.4315C20.5785 56.2486 19.652 56.1982 18.8158 56.3705C19.1662 57.8255 18.1894 60.9978 19.1901 61.769C19.652 62.1241 20.5466 61.9227 21.1784 61.7054C21.4598 63.8574 18.1469 63.3538 17.5124 62.201C17.0293 61.3264 17.2629 59.3864 17.2629 57.6108C17.2629 55.1461 16.7585 53.0789 18.7548 53.1425Z" fill="#07601F"/>
<path fill-rule="evenodd" clip-rule="evenodd" d="M27.2071 56.1822C25.8107 56.0762 24.5976 56.5215 24.348 57.7326C24.0242 59.2936 24.64 61.3687 24.287 63.0065C22.304 63.685 22.7951 60.9314 22.7951 59.1584V55.2494C23.6207 54.9048 24.5179 55.2732 24.348 56.3041C24.4755 55.1327 27.7247 54.0727 27.2071 56.1796V56.1822Z" fill="#07601F"/>
<path fill-rule="evenodd" clip-rule="evenodd" d="M29.1956 59.4713C29.2328 61.2417 30.6875 62.1825 32.5511 61.9519C33.0873 61.8857 33.5147 61.5518 33.9792 61.5173C34.3907 63.1101 32.4953 63.2664 31.4308 63.2558C30.5442 63.2452 29.5699 62.9882 29.0071 62.5747C26.2756 60.5685 27.4648 55.3026 30.6849 54.9421C32.7263 54.7142 34.8234 56.042 34.0403 58.1065C33.528 59.4554 31.2291 59.9484 29.193 59.4713H29.1956ZM32.5511 57.6109C32.7422 56.8476 32.1688 56.3388 31.7441 56.246C30.3822 55.9466 29.0204 57.0994 29.2593 58.3556C30.4433 58.5544 32.3095 58.5835 32.5537 57.6109H32.5511Z" fill="#07601F"/>
<path fill-rule="evenodd" clip-rule="evenodd" d="M40.6923 56.6171C40.0048 56.5561 39.296 56.0738 38.2076 56.1825C37.5094 56.2514 36.8697 56.5747 36.9652 57.3618C37.0953 58.4537 39.1314 58.2655 40.1959 58.9122C41.1595 59.4979 41.5763 61.1384 40.756 62.2011C40.2915 62.8027 39.0066 63.2559 37.7722 63.2559C36.6414 63.2559 35.0566 63.0041 35.5981 61.4564C36.506 61.9281 39.8667 62.5986 39.5747 60.7117C39.4606 59.9776 38.4863 59.8477 37.7112 59.6569C36.2538 59.2991 34.5841 58.2708 35.5344 56.307C35.8609 55.6339 36.8086 55.0535 37.8944 54.9422C39.1925 54.8096 41.1409 54.8945 40.6923 56.6171Z" fill="#07601F"/>
<path fill-rule="evenodd" clip-rule="evenodd" d="M48.5235 62.9482C47.9103 63.2345 46.8829 63.0675 46.9706 62.2645C45.9618 63.6055 42.6196 63.6081 42.248 61.5807C41.7755 58.9994 44.369 58.2044 46.9706 58.5409C46.9918 57.8121 46.9015 57.3589 46.66 56.9879C45.8795 55.798 43.7319 56.4314 42.7444 56.8024C42.0356 54.7511 45.9326 54.5179 47.2811 55.313C49.219 56.4526 48.3191 60.0701 48.5235 62.9456V62.9482ZM44.0478 60.2185C42.7842 62.1505 46.4927 62.7468 46.9679 61.0878C47.1086 60.5975 46.8644 60.1735 46.9679 59.5984C45.9432 59.5056 44.5018 59.5242 44.0478 60.2185Z" fill="#07601F"/>
<path fill-rule="evenodd" clip-rule="evenodd" d="M6.5728 63.0093C3.81997 63.6931 5.54812 58.6815 4.89508 57.0543C4.32169 55.6232 2.19269 56.3387 1.60071 57.3034V63.012C-0.422101 63.7169 0.0477655 60.9872 0.0477655 59.2884V55.2548C0.714073 54.9633 1.68035 55.162 1.60071 55.9995C2.45284 54.9553 4.98003 54.579 6.01268 55.7504C7.32671 57.2424 6.17992 60.5711 6.5728 63.0093Z" fill="#07601F"/>
<path fill-rule="evenodd" clip-rule="evenodd" d="M13.4719 55.1913C15.5053 54.5102 15.0249 57.2425 15.0249 58.9758C15.0249 60.6136 15.0726 61.9944 14.9638 63.0094C14.2311 63.2082 13.4507 63.0147 13.4719 62.2647C12.2933 63.5129 9.11569 63.7488 8.74936 61.52C8.46 59.7629 8.96438 57.1524 8.74936 55.1913C12.0172 54.2292 8.86881 61.5014 11.173 61.9546C12.0543 62.1295 12.8985 61.6604 13.4719 60.8998V55.1913Z" fill="#07601F"/>
<path d="M4.53129 23.129C4.53129 24.2554 3.5889 25.1671 2.42884 25.1671C1.26877 25.1671 0.32373 24.2527 0.32373 23.129C0.32373 22.0054 1.26612 21.0884 2.42884 21.0884C3.59156 21.0884 4.53129 22.0001 4.53129 23.129Z" fill="#4B9228"/>
<path d="M8.20805 10.4848C8.20805 11.6111 7.26566 12.5255 6.10294 12.5255C4.94022 12.5255 4.00049 11.6111 4.00049 10.4848C4.00049 9.35845 4.94288 8.44678 6.10294 8.44678C7.26301 8.44678 8.20805 9.3611 8.20805 10.4848Z" fill="#4B9228"/>
<path d="M19.323 2.70912C19.323 3.83546 18.3806 4.74714 17.2179 4.74714C16.0552 4.74714 15.1128 3.83281 15.1128 2.70912C15.1128 1.58543 16.0552 0.668457 17.2179 0.668457C18.3806 0.668457 19.323 1.58013 19.323 2.70912Z" fill="#4B9228"/>
<path d="M32.7498 2.70912C32.7498 3.83546 31.8074 4.74714 30.6447 4.74714C29.4819 4.74714 28.5396 3.83281 28.5396 2.70912C28.5396 1.58543 29.4819 0.668457 30.6447 0.668457C31.8074 0.668457 32.7498 1.58013 32.7498 2.70912Z" fill="#4B9228"/>
<path d="M44.1329 10.5668C44.1329 11.6932 43.1905 12.6048 42.0277 12.6048C40.865 12.6048 39.9253 11.6905 39.9253 10.5668C39.9253 9.44313 40.8677 8.52881 42.0277 8.52881C43.1878 8.52881 44.1329 9.44048 44.1329 10.5668Z" fill="#4B9228"/>
<path d="M48.2186 22.6413C48.2186 23.7676 47.2762 24.6793 46.1161 24.6793C44.9561 24.6793 44.0137 23.7649 44.0137 22.6413C44.0137 21.5176 44.9561 20.6006 46.1161 20.6006C47.2762 20.6006 48.2186 21.5123 48.2186 22.6413Z" fill="#4B9228"/>
<path d="M8.56383 25.5752C8.56383 25.5752 6.08708 26.1185 4.96949 26.9082C5.07832 26.7704 2.35469 28.5381 1.89014 29.1927C1.89014 29.1662 2.35204 27.2899 4.66951 25.713C4.86065 25.5778 7.91079 24.2183 8.78151 25.1432C8.75496 25.2518 8.8638 25.4135 8.56383 25.5778V25.5752Z" fill="#4B9228"/>
<path d="M12.5827 13.9434C12.5827 13.9434 11.3642 11.7834 11.2872 10.4477C11.2447 10.6173 10.9209 7.46359 11.1704 6.69238C11.1465 6.71093 9.83248 8.29841 10.0422 11.0281C10.0528 11.256 10.9554 14.3753 12.3544 14.3913C12.4313 14.2985 12.6464 14.2693 12.5827 13.9434Z" fill="#4B9228"/>
<path d="M38.5875 15.9284C38.5875 15.9284 40.8891 14.9372 42.2403 14.9663C42.0757 14.9133 45.2798 14.8471 46.0284 15.1466C46.0125 15.1227 44.5551 13.7499 41.7864 13.7393C41.5554 13.734 38.3221 14.3488 38.1602 15.6766C38.2451 15.7561 38.2531 15.9628 38.5875 15.9284Z" fill="#4B9228"/>
<path d="M3.36056 18.3718C3.36056 18.3718 4.02687 21.1572 7.7858 23.0892C7.88137 23.129 9.8564 24.2314 12.5376 24.2182C12.511 24.2314 13.4083 24.2447 13.8436 24.1095C13.8303 24.1095 14.1011 24.083 14.0746 23.7147C14.0613 23.7438 14.0613 23.4549 13.6259 23.4841C13.1906 23.5106 11.12 23.227 9.41839 22.3551C9.34937 22.3551 5.91696 20.7093 3.35791 18.3718H3.36056Z" fill="#4B9228"/>
<path d="M40.0449 24.7324C40.0449 24.7324 42.4579 25.5195 43.4906 26.4153C43.3976 26.2695 45.9301 28.2996 46.3257 28.9939C46.3257 28.9674 46.0549 27.054 43.91 25.2545C43.7348 25.1008 40.8333 23.4444 39.875 24.2766C39.8909 24.3879 39.7661 24.5389 40.0475 24.7297L40.0449 24.7324Z" fill="#4B9228"/>
<path d="M3.2915 15.4751C3.2915 15.4751 8.75204 15.2711 15.1523 18.9416C15.2611 19.0238 18.0113 20.4363 20.2465 22.53C20.273 22.6122 20.6288 22.9116 20.6288 22.9116C20.6288 22.9116 20.8464 23.0494 21.1464 22.7765C21.1199 22.7765 21.3083 22.5035 20.9287 22.0159C20.5465 21.5256 18.9139 18.3188 13.4374 15.9522C13.302 15.9522 6.71064 12.8806 3.2915 15.4778V15.4751Z" fill="#4B9228"/>
<path d="M34.1329 23.8418C34.1329 23.8418 37.645 24.5547 41.4039 22.3126C41.5473 22.1907 43.3843 21.2314 44.2417 18.9866C44.3028 18.8859 44.6717 17.847 44.3028 16.8665C44.324 16.9062 43.525 18.9071 40.2173 21.1068C40.1775 21.1068 39.0121 22.2278 34.8046 23.2084L34.0905 23.2906C34.0905 23.2906 33.7029 23.3091 33.6604 23.5344C33.6206 23.7597 34.1303 23.8392 34.1303 23.8392L34.1329 23.8418Z" fill="#4B9228"/>
<path d="M11.7441 5.20297C11.7441 5.20297 11.768 5.21092 11.8158 5.22947C12.3706 5.44678 16.095 7.03426 18.7736 11.6668C18.8134 11.7278 19.9389 13.3603 20.7353 15.9893C20.7353 16.0317 20.9185 16.8666 21.3273 16.8454C21.7361 16.8242 21.7759 16.09 21.614 15.1731C21.4494 14.2534 21.0618 10.9513 18.2639 7.74717C18.2426 7.66766 15.0359 4.17998 11.7468 5.19766L11.7441 5.20297Z" fill="#4B9228"/>
<path d="M23.0394 1.30713C23.0394 1.30713 21.3856 2.8575 20.9555 4.73385C20.9555 4.6729 20.5865 5.77539 20.5467 7.07929C20.5281 7.07929 20.7299 8.28249 20.3636 8.34344C19.9972 8.4044 19.4849 6.30543 20.0769 4.16406C20.6688 2.02269 21.9961 1.53505 23.0394 1.30978V1.30713Z" fill="#4B9228"/>
<path d="M25.4897 0.186035C25.4897 0.186035 26.2251 1.79736 26.5516 4.50853C26.5304 4.50853 26.6525 6.08011 26.4905 6.99708C26.3286 7.91406 26.6737 7.93526 26.8383 7.95646C27.0029 7.97501 27.6559 7.30451 27.7382 5.24264C27.8205 3.18343 26.9631 1.51114 25.4924 0.186035H25.4897Z" fill="#4B9228"/>
<path d="M33.9684 5.87594C33.9684 5.87594 30.4962 7.36536 27.7805 11.9529C27.6584 12.0562 25.8798 15.4406 26.1453 18.5811C26.1453 18.5387 26.1851 19.885 26.1851 19.885C26.1851 19.885 26.2064 20.415 25.8984 20.4362C25.5931 20.4574 25.102 19.9671 24.7331 17.4998C24.5605 16.339 24.6428 15.0934 24.8605 13.9458C25.1312 12.52 25.6489 11.1366 26.4878 9.94402C27.4726 8.54736 28.7601 7.33356 30.321 6.60475C30.767 6.39803 31.2395 6.23107 31.7147 6.10386C32.0731 6.00845 32.4394 5.94485 32.811 5.91304C32.9995 5.89449 33.1906 5.88654 33.3818 5.88124C33.5357 5.87859 33.8278 5.9316 33.9658 5.87329L33.9684 5.87594Z" fill="#4B9228"/>
<path d="M37.807 4.42892C37.7832 4.37327 38.5849 8.65071 36.4797 12.8089C36.3975 12.9123 35.4604 15.2974 32.8854 17.4998C32.8642 17.4786 32.089 18.051 32.4368 18.3955C32.7845 18.7427 33.4163 18.3531 33.865 18.0696C34.3136 17.7833 36.9708 16.3363 38.3194 12.5836C38.3194 12.5836 39.7635 8.64806 37.8097 4.42627L37.807 4.42892Z" fill="#4B9228"/>
<path d="M42.8269 42.6796C42.8269 42.6796 42.2535 42.4623 42.2827 42.3536C36.7187 39.6186 31.0272 38.7732 27.4647 38.5294C27.2789 38.0046 26.2542 34.8641 26.7586 31.1644C26.7373 31.0213 27.0028 28.0027 28.5956 24.7827C28.7389 24.5389 29.3097 23.3145 29.5778 22.9673C29.8432 22.6201 30.0689 22.2756 29.8008 22.0901C29.5353 21.9072 26.1454 24.947 25.0623 29.2086C23.9872 33.4383 25.1048 37.2228 25.9011 38.4552C24.6774 38.4207 23.9261 38.4605 23.8438 38.4658C23.2067 38.4658 22.5802 38.487 21.9643 38.5188C22.3705 37.9702 22.6731 37.1804 22.6731 37.1619C23.9819 33.2475 22.1422 30.6556 22.121 30.5549C21.6325 29.6989 21.3458 29.9427 21.3458 29.9427C21.0591 30.0858 21.2237 30.4727 21.2237 30.4727C21.2237 30.4727 21.4494 31.1856 21.6936 32.5531C21.9378 33.9207 21.7334 35.0629 21.7334 35.0629C21.6431 37.0824 20.7406 38.3704 20.5468 38.6221C12.2352 39.3642 6.3924 42.5471 6.3924 42.5471C5.99155 42.9552 6.52248 42.8731 6.52248 42.8731C6.52248 42.8731 6.95783 42.7379 6.95783 42.7644C16.3552 39.9101 23.735 40.2096 23.735 40.2096C33.703 39.8836 41.8208 42.7379 42.4447 42.8731C43.0712 43.0109 42.8269 42.6823 42.8269 42.6823V42.6796Z" fill="#4B9228"/>
</g>
<defs>
<clipPath id="clip0_3547_2465">
<rect width="48.5581" height="63.0698" fill="white" transform="translate(0 0.186035)"/>
</clipPath>
</defs>
</svg>
