<svg width="44" height="50" viewBox="0 0 44 50" fill="none" xmlns="http://www.w3.org/2000/svg">
<rect x="1.55566" y="2" width="28.1108" height="33.2218" rx="2" fill="#CDFDF3"/>
<path d="M11.7778 12.2222L21.9999 12.2222" stroke="#4A0E54" stroke-width="3" stroke-linecap="round"/>
<path d="M11.7778 32.6667L19.4444 32.6667" stroke="#4A0E54" stroke-width="3" stroke-linecap="round"/>
<path d="M11.7778 22.4443L27.111 22.4443" stroke="#4A0E54" stroke-width="3" stroke-linecap="round"/>
<path d="M37.333 22.4443V8.00007C37.333 5.17165 37.333 3.75744 36.4543 2.87876C35.5756 2.00008 34.1614 2.00008 31.333 2.00008H7.55566C4.72724 2.00008 3.31302 2.00008 2.43434 2.87876C1.55566 3.75744 1.55566 5.17165 1.55566 8.00008V41.9995C1.55566 44.8279 1.55566 46.2422 2.43434 47.1208C3.31302 47.9995 4.72724 47.9995 7.55566 47.9995H19.4443" stroke="#4A0E54" stroke-width="3" stroke-linecap="round"/>
<circle cx="33.5001" cy="39.0556" r="6.38881" stroke="#4A0E54" stroke-width="3" stroke-linecap="round"/>
<path d="M42.4441 48L38.6108 44.1667" stroke="#4A0E54" stroke-width="3" stroke-linecap="round"/>
</svg>
