<svg width="54" height="62" viewBox="0 0 54 62" fill="none" xmlns="http://www.w3.org/2000/svg">
<g clip-path="url(#clip0_2040_8850)">
<path fill-rule="evenodd" clip-rule="evenodd" d="M20.0849 28.4479H35.021V3.66558L2.86193 21.4321V59.1546H18.9039V29.6206C18.9039 28.9698 19.4295 28.4479 20.0849 28.4479ZM24.6244 40.1612H29.5189V42.5066H24.6244V40.1612ZM24.6244 34.7994H29.5189V37.1447H24.6244V34.7994ZM33.7581 34.7723H38.6526V37.1176H33.7581V34.7723ZM33.7581 40.1341H38.6526V42.4794H33.7581V40.1341ZM42.8918 34.7723H47.7863V37.1176H42.8918V34.7723ZM42.8918 45.4959H47.7863V47.8413H42.8918V45.4959ZM42.8918 40.1341H47.7863V42.4794H42.8918V40.1341ZM8.10459 30.9153H12.9991V33.2606H8.10459V30.9153ZM8.10459 25.5535H12.9991V27.8988H8.10459V25.5535ZM8.10459 41.6389H12.9991V43.9843H8.10459V41.6389ZM8.10459 36.2771H12.9991V38.6225H8.10459V36.2771ZM28.5837 59.1546V48.5123H36.2634V59.1546H28.5837ZM26.2218 59.1546H21.2727V30.7933H51.1381V59.1546H38.6253V47.3397C38.6253 46.6957 38.0997 46.167 37.4444 46.167H27.4028C26.7474 46.167 26.2218 46.6889 26.2218 47.3397V59.1546ZM37.3897 28.4411H52.3259C52.9812 28.4411 53.5068 28.9631 53.5068 29.6138V60.3273C53.5068 60.9781 52.9812 61.5 52.3259 61.5H1.68096C1.03246 61.5 0.5 60.9781 0.5 60.3273V20.7475C0.5 20.273 0.786708 19.8663 1.19629 19.6765L35.6285 0.649133C36.4204 0.215307 37.3829 0.791482 37.3761 1.67269V28.4479L37.3897 28.4411Z" fill="#360944"/>
</g>
<defs>
<clipPath id="clip0_2040_8850">
<rect width="53" height="61" fill="white" transform="translate(0.5 0.5)"/>
</clipPath>
</defs>
</svg>
