<svg width="101" height="38" viewBox="0 0 101 38" fill="none" xmlns="http://www.w3.org/2000/svg">
<g clip-path="url(#clip0_2040_8550)">
<path d="M3.83339 27.6014C3.89228 27.541 4.11101 27.083 4.24282 26.8252C4.24282 26.8252 4.32695 26.3315 4.60457 26.4028C4.60457 26.4028 4.89342 26.3425 4.61579 27.1187C4.61579 27.1187 3.74926 28.5422 2.50975 30.2975C2.50975 30.2975 1.54788 31.6141 1.06553 32.969C1.06553 32.969 0.414935 34.7326 0.919711 34.6997C0.919711 34.6997 1.02347 34.6805 1.16088 34.5598C1.45533 34.2965 1.93207 33.8165 2.03863 33.8878C2.03863 33.8878 2.18445 33.9701 2.01339 34.1456C2.01339 34.1456 1.26745 34.9602 0.942145 35.1221C0.942145 35.1221 0.412131 35.5335 0.25509 34.8286C0.25509 34.8286 -0.0926447 34.099 1.47216 31.145C1.47216 31.145 2.63875 29.2032 2.95283 28.8384L3.83058 27.6014H3.83339Z" fill="#ABB7C2"/>
<path d="M5.00011 31.5426C5.00011 31.5426 4.80662 32.0144 3.84474 32.5903C3.84474 32.5903 2.91932 33.3446 2.87164 32.9085C2.87164 32.9085 2.93053 32.7796 3.07636 32.7796C3.07636 32.7796 3.18572 32.7549 3.19694 32.5794C3.19694 32.5794 3.19694 32.3682 3.28107 32.3078L3.42409 32.1323C3.42409 32.1323 3.60357 31.9677 3.71293 31.8608C3.71293 31.8608 3.94008 31.6605 4.08591 31.5892C4.08591 31.5892 4.85709 30.9666 5.07302 31.1668C5.07302 31.1668 5.20483 31.3424 5.00011 31.5426ZM5.24128 30.7198C4.85709 30.6018 4.06347 31.1065 4.06347 31.1065C3.72696 31.2711 3.37642 31.6468 3.37642 31.6468C3.06514 31.8717 2.5828 32.5053 2.5828 32.5053L2.41454 32.7412C2.24628 32.7412 2.10046 32.9414 2.10046 32.9414L2.07802 33.7066C1.71627 34.1071 2.18739 34.2607 2.18739 34.2607C2.53513 34.7434 2.93334 34.7681 2.93334 34.7681C3.7522 34.8147 4.38877 34.3896 4.38877 34.3896C4.70286 34.1784 4.32988 34.1784 4.32988 34.1784C4.18406 34.1647 3.6905 34.2717 3.6905 34.2717C2.72862 34.4362 2.66973 33.9288 2.66973 33.9288C2.53793 33.6463 2.83799 33.6244 2.83799 33.6244C3.16329 33.6353 3.22218 33.4461 3.22218 33.4461C3.76341 33.1992 4.70286 32.53 4.70286 32.53C6.32655 31.1531 5.24409 30.7198 5.24409 30.7198" fill="#ABB7C2"/>
<path d="M11.624 30.5307C11.624 30.5307 11.467 31.3535 9.83207 32.1435C9.83207 32.1435 10.2667 31.2713 11.2034 30.5417C11.2034 30.5417 11.6745 30.2235 11.624 30.5307ZM11.7811 29.9081C11.6352 29.8725 11.2398 30.0836 11.2398 30.0836C10.8669 30.2482 9.92741 31.2246 9.92741 31.2246C9.75915 31.3782 9.31327 32.2011 9.31327 32.2011C9.12257 32.7085 8.83373 32.6728 8.83373 32.6728L8.43552 32.7441C8.07376 32.7908 8.15789 33.0513 8.15789 33.0513C8.2897 33.2515 8.79447 33.2515 8.79447 33.2515C8.98797 33.2515 9.03564 33.4765 9.03564 33.4765C9.11977 34.0771 9.67502 34.0771 9.67502 34.0771C10.048 34.0771 10.4686 33.8742 10.4686 33.8742C10.6846 33.7809 10.6846 33.6876 10.6846 33.6876C10.6734 33.5341 10.3368 33.5697 10.1546 33.6273C9.97228 33.6876 9.74513 33.663 9.74513 33.663C9.41983 33.6163 9.44507 33.1089 9.44507 33.1089C9.42264 32.9306 9.51798 32.9197 9.51798 32.9197C9.661 32.884 10.6257 32.2011 10.6257 32.2011C10.7098 32.1078 10.9622 31.9789 10.9622 31.9789C11.6605 31.4139 11.9605 30.7885 11.9605 30.7885C12.1877 30.0123 11.7783 29.9081 11.7783 29.9081" fill="#ABB7C2"/>
<path d="M11.6183 32.8566C11.6183 32.8566 11.4725 33.4408 12.0698 33.3667C12.0698 33.3667 12.4933 33.3311 12.5494 32.8895C12.5494 32.8895 12.297 31.7869 12.3503 31.2822C12.3503 31.2822 12.4681 30.1522 13.5421 30.4265C13.5421 30.4265 13.7749 30.5142 13.8758 30.6569C13.8758 30.6569 13.9039 30.7611 13.758 30.7446C13.758 30.7446 13.071 30.4868 12.9195 30.805C12.9195 30.805 12.4316 31.1231 12.9644 33.065C12.9644 33.065 13.0093 33.9372 11.9436 33.8769C11.9436 33.8769 10.9705 33.6574 11.2762 32.8538C11.2762 32.8538 11.3575 32.6152 11.537 32.6783C11.537 32.6783 11.6352 32.7496 11.6183 32.8538" fill="#ABB7C2"/>
<path d="M30.2248 33.2432C30.2248 33.2432 30.0734 33.8658 30.6931 33.789C30.6931 33.789 31.1362 33.7533 31.1923 33.2788C31.1923 33.2788 30.365 32.1954 30.4211 31.6551C30.4211 31.6551 30.5417 30.4455 31.6606 30.739C31.6606 30.739 31.9046 30.8323 32.0084 30.9859C32.0084 30.9859 32.0364 31.0983 31.885 31.0791C31.885 31.0791 31.1727 30.8049 31.0128 31.145C31.0128 31.145 30.4071 31.8197 31.4166 32.914C31.4166 32.914 32.1402 34.077 30.5641 34.3348C30.5641 34.3348 29.6864 34.1154 29.8687 33.2377C29.8687 33.2377 29.9528 32.9826 30.1407 33.0484C30.1407 33.0484 30.2444 33.1252 30.2248 33.2377" fill="#ABB7C2"/>
<path d="M15.5529 30.6403C15.5529 30.6403 16.7896 28.1088 16.9326 27.5767C16.9326 27.5767 17.1317 26.7127 17.4654 26.773C17.4654 26.773 17.8973 26.8361 17.6084 27.4423L16.1474 30.5142L16.1025 30.5773L18.3039 30.5855C18.3039 30.5855 18.7722 30.8159 18.2955 31.0106L15.8866 31.0435C15.8866 31.0435 14.9752 33.3941 14.748 33.7808C14.748 33.7808 14.5041 34.3102 14.3779 34.4418C14.3779 34.4418 14.1535 34.6722 14.0442 34.5022C14.0442 34.5022 13.7721 34.1593 13.9628 34.0359C13.9628 34.0359 14.3246 33.8055 14.4957 33.3831L15.379 31.2026L15.3874 31.1231L14.9107 31.1148C14.9107 31.1148 14.7845 31.167 14.7565 31.2383C14.7565 31.2383 14.6303 31.529 14.4227 31.3535C14.4227 31.3535 14.0077 31.0106 14.3667 30.8406C14.3667 30.8406 15.0341 30.7171 15.4323 30.7171L15.5304 30.6842L15.5501 30.6376L15.5529 30.6403Z" fill="#ABB7C2"/>
<path d="M18.8029 33.2048C18.8029 33.2048 17.9672 34.0139 17.3643 33.7095C17.3643 33.7095 16.8848 33.2487 17.813 32.3573C17.813 32.3573 18.9123 31.3068 19.5909 31.1834C19.5909 31.1834 19.9331 31.0929 19.877 31.3726C19.877 31.3726 19.605 31.8362 19.5517 32.0446C19.5517 32.0446 19.3666 32.7248 18.8029 33.2021M20.2584 31.7045C20.2584 31.7045 20.4967 31.4549 20.2724 30.9475C20.2724 30.9475 20.1714 30.8542 20.0789 31.0298C20.0789 31.0298 19.7087 30.2728 17.9757 31.6798C17.9757 31.6798 17.1091 32.3984 16.8231 33.3008C16.8231 33.3008 16.6913 34.2004 17.5578 34.2169C17.5578 34.2169 18.1075 34.2169 18.9039 33.5723C18.9039 33.5723 19.0581 33.405 19.1114 33.5723C19.1114 33.5723 19.1198 34.1483 19.5152 34.1099C19.5152 34.1099 19.7788 34.0578 19.7171 33.8C19.7171 33.8 19.6302 33.6628 19.6022 33.6491C19.6022 33.6491 19.4788 33.4352 19.5713 33.1856C19.5713 33.1856 20.1883 31.9157 20.2612 31.7018" fill="#ABB7C2"/>
<path d="M20.3259 33.7944L21.3999 31.4823C21.3999 31.4823 21.5093 31.2958 21.7252 31.3945C21.7252 31.3945 21.9411 31.474 21.7981 31.8361C21.7981 31.8361 21.6635 32.0555 21.9075 31.9321C21.9075 31.9321 23.5873 30.9173 24.2715 30.8624C24.2715 30.8624 25.3091 30.6677 24.1173 32.2749C24.1173 32.2749 23.935 32.6452 24.308 32.4779L26.257 30.8871C26.257 30.8871 26.7617 30.4812 27.0786 30.6402C27.0786 30.6402 27.4572 30.6073 27.1403 31.5152C27.1403 31.5152 26.9048 32.3078 26.5262 32.8043C26.5262 32.8043 26.1027 33.2459 26.0915 33.3693C26.0915 33.3693 26.0915 33.6189 25.9008 33.6271C25.9008 33.6271 25.5755 33.671 25.5867 33.2212C25.5867 33.2212 25.6765 32.914 25.912 32.7357C25.912 32.7357 26.3888 32.1981 26.4617 32.0473C26.4617 32.0473 26.7057 31.5892 26.7505 31.4219C26.7505 31.4219 26.9945 30.8487 26.5963 31.0955L23.4022 33.5393C23.4022 33.5393 22.8525 33.8657 22.8974 33.4077C22.8974 33.4077 23.6714 32.2338 23.9715 31.88C23.9715 31.88 24.4959 31.2107 23.9911 31.3424C23.9911 31.3424 21.9776 32.0308 20.8419 33.8767C20.8419 33.8767 20.6147 34.2031 20.4464 34.0879C20.4464 34.0879 20.2389 34.0605 20.3287 33.7972" fill="#ABB7C2"/>
<path d="M29.3584 32.0393C29.3668 32.0063 28.6741 33.0678 28.3124 33.2708C28.3124 33.2708 27.4458 34.1183 27.8777 32.9526C27.8777 32.9526 28.1329 32.0502 28.4554 31.7184C28.4554 31.7184 28.8368 31.1616 29.106 31.2603C29.106 31.2603 29.263 31.5675 29.3976 31.5894C29.3976 31.5894 29.636 31.6745 29.3584 32.0393ZM29.751 31.2247C29.6472 31.1396 29.5743 30.9997 29.5743 30.9997C29.5323 30.517 29.0892 30.5801 29.0892 30.5801C28.8115 30.5801 28.4077 31.0189 28.4077 31.0189C28.2423 31.2027 27.8076 31.8555 27.8076 31.8555C27.6926 32.0694 27.5496 32.4781 27.5496 32.4781C27.2804 32.991 27.415 34.0771 27.415 34.0771C27.415 34.4008 27.6842 34.3679 27.7459 34.335C27.8076 34.3048 28.3657 33.7891 28.3657 33.7891C28.5087 33.6602 29.6893 32.426 29.6893 32.426C30.2053 31.7074 29.751 31.2247 29.751 31.2247Z" fill="#ABB7C2"/>
<path d="M36.6858 33.2376C36.6858 33.2376 36.0352 33.6271 35.6398 33.6271C35.6398 33.6271 36.4699 31.507 37.5888 30.9063C37.5888 30.9063 38.1301 30.8021 38.1301 31.2958C38.1301 31.2958 37.9141 32.6013 36.6858 33.2376ZM38.2394 30.5909C37.6253 30.0972 36.7952 31.0846 36.7952 31.0846C36.5793 31.2272 36.5064 31.016 36.5064 31.016C36.3269 30.6265 36.1839 31.0846 36.1839 31.0846C36.1839 31.474 35.4632 32.8509 35.4632 32.8509C34.8126 34.2278 33.2618 36.4522 33.2618 36.4522C33.1889 36.6277 33.0094 36.9459 33.0094 36.9459C32.6476 37.8647 33.2982 37.3683 33.2982 37.3683L34.9948 34.6502C35.2472 34.2634 35.5024 34.1208 35.5024 34.1208C35.609 34.1208 35.9707 34.0495 35.9707 34.0495C37.2327 33.7313 38.0992 32.4614 38.0992 32.4614C38.9657 31.3314 38.245 30.5881 38.245 30.5881" fill="#ABB7C2"/>
<path d="M40.2251 32.0007C40.2251 32.0007 39.6474 33.2377 39.0165 33.6244C39.0165 33.6244 38.5846 34.1181 38.6547 33.4297C38.6547 33.4297 38.8706 32.1406 39.8101 31.9102C39.8101 31.9102 40.0456 31.9267 40.0989 31.8581C40.0989 31.8581 40.3177 31.7703 40.2251 31.998M40.441 31.4878C40.2616 31.241 39.6839 31.4001 39.6839 31.4001C39.5745 31.4522 39.3586 31.5948 39.3586 31.5948C37.6816 32.3902 38.22 33.9591 38.22 33.9591C38.3995 34.5076 38.7809 34.4363 38.7809 34.4363C39.1595 34.365 39.6642 33.7122 39.6642 33.7122C39.6839 33.608 39.9895 33.235 39.9895 33.235C40.2055 33.0046 40.5476 32.371 40.5476 32.371C40.7832 31.7868 40.4382 31.4878 40.4382 31.4878" fill="#ABB7C2"/>
<path d="M40.9654 32.796C40.9654 32.796 40.7298 33.3802 41.0214 33.4324C41.0214 33.4324 41.1476 33.4845 41.4168 33.1307C41.4168 33.1307 42.7713 31.5782 43.5846 31.4192C43.5846 31.4192 44.3417 31.1559 43.9463 31.7894C43.9463 31.7894 42.8639 33.5009 42.8274 33.5722C42.8274 33.5722 42.5021 34.1372 42.8442 34.332C42.8442 34.332 43.1527 34.4911 43.2957 33.959C43.2957 33.959 43.2789 33.66 43.4584 33.4132C43.4584 33.4132 44.2352 32.1076 44.3081 31.965C44.3081 31.965 44.5969 31.4548 44.3249 30.9255C44.3249 30.9255 43.8201 30.6238 42.0506 31.8086C42.0506 31.8086 41.5458 32.2502 41.8515 31.773C41.8515 31.773 42.0142 31.4905 41.8347 31.4192C41.8347 31.4192 41.5458 31.4192 40.9682 32.796" fill="#ABB7C2"/>
<path d="M45.3683 31.5071C45.3683 31.5071 44.5915 32.8675 44.3391 33.9262C44.3391 33.9262 44.14 34.4034 44.4485 34.579C44.4485 34.579 44.5578 34.6311 44.6644 34.2773C44.6644 34.2773 45.2589 32.5822 45.5506 32.1406C45.5506 32.1406 45.73 31.8746 45.7833 31.7868C45.8366 31.699 45.9656 31.4687 45.7132 31.3096C45.7132 31.3096 45.4244 31.3973 45.3711 31.5043" fill="#ABB7C2"/>
<path d="M45.9628 29.5076C45.9432 29.5953 45.9628 29.631 45.9432 29.7023C45.9264 29.7736 45.9965 29.6858 45.9264 29.7736C45.8535 29.8641 45.8366 29.8806 45.8731 29.9492C45.9095 30.0205 45.8731 30.0013 45.9264 30.089C45.9825 30.1768 46.0694 30.2673 46.1619 30.2673C46.2545 30.2673 46.1619 30.3743 46.4143 30.2317C46.6667 30.0918 46.7761 30.1439 46.7929 30.0918C46.8125 30.0397 46.8294 29.9684 46.7929 29.9162C46.7564 29.8641 46.7564 29.8449 46.7228 29.7928C46.6863 29.7407 46.5237 29.6529 46.5237 29.6529L46.3807 29.5295C46.3807 29.5295 46.3106 29.4774 46.218 29.4774C46.1255 29.4774 46.1086 29.4609 46.0554 29.4609C46.0021 29.4609 45.9656 29.5131 45.9656 29.5131" fill="#ABB7C2"/>
<path d="M47.118 32.0363C47.118 32.0363 48.1809 31.1367 48.652 31.1202C48.652 31.1202 49.1568 31.1367 48.7613 31.4548C48.7613 31.4548 48.6352 31.7017 47.4433 32.0363C47.4433 32.0363 47.0479 32.1954 47.1208 32.0363M48.2397 32.1954C49.3054 31.8224 49.3222 31.1367 49.3222 31.1367C49.1399 30.6073 48.8707 30.7307 48.8707 30.7307C47.7686 30.6786 46.5067 32.1076 46.5067 32.1076C46.3272 32.2996 46.0916 32.338 46.0916 32.338C45.8393 32.4614 46.0019 32.6562 46.0019 32.6562C45.9486 32.7439 45.8589 33.202 45.8589 33.202C45.8589 33.7505 46.3272 33.9096 46.3272 33.9096C46.4702 34.0687 46.7058 34.0852 46.7058 34.0852C47.2638 34.0852 47.878 33.7149 47.878 33.7149C48.8174 33.2925 48.6015 33.1691 48.6015 33.1691C48.565 32.9579 48.1837 33.1334 48.1837 33.1334C47.1012 33.6271 46.6329 33.5585 46.6329 33.5585C46.0384 33.2952 46.7422 32.5327 46.7422 32.5327C47.1377 32.4971 48.2397 32.1981 48.2397 32.1981" fill="#ABB7C2"/>
<path d="M49.6447 31.7539C49.6447 31.7539 49.1035 32.5849 48.8511 33.0238C48.8511 33.0238 48.6351 33.608 49.0502 33.5888C49.0502 33.5888 49.1932 33.6601 49.5017 33.3255C49.5017 33.3255 51.5769 31.6497 51.9919 31.614C51.9919 31.614 52.4069 31.5427 52.191 31.8087C52.191 31.8087 51.1786 33.0265 51.1085 33.3803C51.1085 33.3803 50.9655 33.9454 51.3441 33.9454C51.3441 33.9454 51.9947 33.8576 52.1574 33.682C52.1574 33.682 52.3901 33.3447 52.0115 33.416C52.0115 33.416 51.4703 33.5586 51.6694 33.2213L52.5163 32.1269C52.5163 32.1269 52.8416 31.7923 52.7322 31.4385C52.7322 31.4385 52.679 31.2794 52.679 31.2081C52.679 31.2081 52.5696 30.9969 52.0284 31.1916C52.0284 31.1916 50.9627 31.5098 50.0261 32.2695C50.0261 32.2695 50.1354 31.987 50.2616 31.8444C50.2616 31.8444 50.3317 31.5619 50.1719 31.4385C50.1719 31.4385 50.0289 31.3671 49.6475 31.7566" fill="#ABB7C2"/>
<path d="M55.3601 31.6359C55.3601 31.6359 55.161 31.4411 54.7291 31.688C54.7291 31.688 54.2973 32.0226 54.1683 32.0583C54.1683 32.0583 53.8261 32.1981 53.7 32.3408C53.7 32.3408 53.0157 33.2952 53.1587 33.4187C53.1587 33.4187 53.4307 33.5256 54.0449 33.1554C54.0449 33.1554 55.2732 32.5026 56.1032 31.5838C56.1032 31.5838 57.6484 29.2881 57.7746 29.0933C57.7746 29.0933 58.0438 28.7395 58.2065 28.6709C58.2065 28.6709 58.2794 28.5118 58.3888 28.2815C58.3888 28.2815 58.6776 27.9468 58.658 28.2458C58.658 28.2458 58.4112 29.2881 57.7073 30.3111C57.7073 30.3111 56.1734 32.0061 55.9742 32.9579C55.9742 32.9579 55.6293 33.9645 56.0472 33.7149L56.3893 33.4845C56.3893 33.4845 56.7314 33.3254 56.5884 33.6107C56.5884 33.6107 56.2463 34.3841 55.576 34.1373C55.576 34.1373 55.1442 33.9617 55.5592 32.8838C55.5592 32.8838 55.5592 32.5465 55.3966 32.7247C55.3966 32.7247 53.8626 34.0495 53.0325 34.0139C53.0325 34.0139 52.7241 34.066 52.6876 33.6079C52.6876 33.6079 52.6343 33.1663 52.9428 32.6534C52.9428 32.6534 53.6298 31.7703 53.9523 31.6825C53.9523 31.6825 54.0617 31.6825 54.1514 31.5234C54.1514 31.5234 54.6927 31.1696 55.0544 31.1504C55.0544 31.1504 55.5424 31.0434 55.7219 31.5399C55.7219 31.5399 55.7583 31.9293 55.3601 31.6276" fill="#ABB7C2"/>
<path d="M58.8682 31.647C58.8682 31.647 57.6763 32.0529 57.5137 33.3256C57.5137 33.3256 57.567 33.5368 57.623 33.6245C57.623 33.6245 57.7128 33.8549 57.7492 33.94C57.7492 33.94 58.2176 34.4693 59.2832 33.7644C59.2832 33.7644 60.6208 33.0924 60.2591 31.9816C60.2591 31.9816 60.06 30.6404 57.9119 30.8681C57.9119 30.8681 57.4239 30.9586 57.2276 31.2219C57.2276 31.2219 56.9388 31.5921 57.6427 31.348C57.6427 31.348 58.6354 30.9421 59.2495 31.4194C59.2495 31.4194 60.1525 32.0365 59.8637 32.6015C59.8637 32.6015 59.0701 33.7672 58.1138 33.556C58.1138 33.556 57.825 33.0952 58.3662 32.5494C58.3662 32.5494 58.7616 32.1242 58.9439 32.0886C58.9439 32.0886 59.4318 31.6662 58.871 31.647" fill="#ABB7C2"/>
<path d="M69.8833 28.597C69.8833 28.597 69.5692 29.0907 69.5692 29.2086C69.5692 29.2086 69.5215 29.4198 69.4009 29.5158C69.4009 29.5158 68.8232 30.3386 68.6774 30.6458C68.6774 30.6458 68.2932 31.4001 68.1951 31.518C68.1951 31.518 67.2079 32.648 66.9191 34.2251C66.9191 34.2251 66.7985 34.4857 66.9415 34.7216L67.0846 34.9328C67.0846 34.9328 67.2528 35.026 67.2528 34.6503C67.2528 34.6503 67.9034 32.862 68.2652 32.1297C68.2652 32.1297 68.9382 30.9996 69.227 30.6458L69.9477 29.5871C69.9477 29.5871 70.3572 28.9755 70.3572 28.7396L70.2618 28.4818C70.2618 28.4818 70.3095 27.9634 69.8776 28.5997" fill="#ABB7C2"/>
<path d="M66.4958 30.7472C66.4958 30.7472 67.0651 31.0489 66.479 31.8141C66.479 31.8141 65.5929 32.8975 64.1206 32.8893C64.1206 32.8893 64.7964 30.8185 66.493 30.7472M67.396 32.3051C67.396 32.3051 67.3091 32.2365 67.0259 32.6424C66.7454 33.0456 66.2491 33.2047 65.9266 33.4543C65.9266 33.4543 65.1946 33.9754 64.4375 33.948C64.4375 33.948 64.1907 33.9617 64.101 33.4132C64.101 33.4132 66.1593 33.1992 66.9501 31.6797C66.9501 31.6797 67.3876 30.6704 66.594 30.3796C66.594 30.3796 64.6983 30.3577 63.8149 32.6616C63.8149 32.6616 63.3718 32.5601 63.3382 32.8838C63.3382 32.8838 63.3073 33.1444 63.5036 33.2376C63.5036 33.2376 63.5121 34.2634 64.4431 34.428C64.4431 34.428 65.7611 34.343 66.8969 33.1581C66.8969 33.1581 67.5671 32.4395 67.396 32.3051Z" fill="#ABB7C2"/>
<path d="M73.7367 32.9663C73.7367 32.9663 72.6009 33.7644 71.8101 33.619C71.8101 33.619 71.5381 33.4984 71.7849 33.1857C71.7849 33.1857 72.7496 32.1462 74.0844 31.6634C74.0844 31.6634 74.7266 31.5181 74.4798 31.8335C74.4798 31.8335 74.1601 32.2915 74.0844 32.4616C74.0844 32.4616 74.1573 32.703 73.7367 32.969M75.8623 32.9937C75.6408 32.969 74.7743 33.3338 74.7743 33.3338C74.1069 33.4545 74.5275 32.8511 74.5275 32.8511C74.7238 32.6097 75.0463 32.1763 75.0463 32.1763C75.4669 31.3535 75.2454 31.2795 75.2454 31.2795C75.122 31.1835 74.8752 31.4495 74.8752 31.4495C74.5527 31.6909 74.6537 31.2081 74.6537 31.2081C74.6285 31.0381 73.9105 31.2795 73.9105 31.2795C73.7619 31.3288 73.4675 31.5208 73.4675 31.5208C73.4198 31.6662 72.9234 31.8116 72.9234 31.8116C72.6767 31.8582 71.7624 32.511 71.7624 32.511C71.2689 32.8511 71.2437 33.4792 71.2437 33.4792C71.2913 34.2279 71.8606 34.1292 71.8606 34.1292C72.873 34.2032 73.8376 33.4792 73.8376 33.4792C73.8881 33.7699 74.233 33.7946 74.233 33.7946C74.9257 33.9619 75.5427 33.4078 75.5427 33.4078C76.1344 33.1445 75.8623 32.9964 75.8623 32.9964" fill="#ABB7C2"/>
<path d="M79.0843 28.0265C79.0843 28.0265 76.7371 31.071 76.193 32.2065C76.193 32.2065 75.6013 33.172 75.6995 33.9208C75.6995 33.9208 75.6995 34.4529 76.2687 34.0908C76.2687 34.0908 76.4426 33.9208 76.2435 33.8248C76.2435 33.8248 75.8481 33.7781 76.7371 32.2065C76.7371 32.2065 77.6008 30.4676 78.6384 29.3787L79.1095 28.8713C79.1095 28.8713 79.2553 28.8466 79.3815 28.6793C79.3815 28.6793 79.6535 28.2432 79.7264 28.0979C79.7264 28.0979 79.7012 27.7852 79.6283 27.7605C79.5526 27.7358 79.5273 27.7111 79.4544 27.7358L79.3815 27.7605L79.2329 27.9059L79.0843 28.0265Z" fill="#ABB7C2"/>
<path d="M77.7299 31.6742L76.9811 32.9798C76.9811 32.9798 76.7736 33.1965 76.9615 33.3419C76.9615 33.3419 76.8353 33.8493 77.2111 33.4132C77.2111 33.4132 78.2122 32.327 78.5459 32.157C78.5459 32.157 79.7546 31.6002 79.5667 32.157L79.2751 32.5903C79.2751 32.5903 79.1489 32.6863 79.2134 32.8317C79.2134 32.8317 79.1517 33.3144 79.5275 32.9524L80.8202 32.2749C80.8202 32.2749 81.9027 31.6221 81.6531 32.0335C81.6531 32.0335 80.4865 33.4817 80.7978 33.9891C80.7978 33.9891 81.0698 34.3759 81.1315 33.8465C81.1315 33.8465 81.2773 33.2897 81.6111 32.903C81.6111 32.903 82.4439 31.9595 82.2785 31.6934C82.2785 31.6934 82.1944 31.5481 82.1944 31.4521C82.1944 31.4521 82.1944 31.186 81.8382 31.3287L80.2734 32.1021C80.2734 32.1021 79.8359 32.2694 79.9397 31.9321C79.9397 31.9321 80.1276 31.2546 79.1264 31.57C79.1264 31.57 78.5207 31.7867 78.3749 31.8361C78.3749 31.8361 78.1029 32.0061 78.2094 31.7154C78.2094 31.7154 78.0412 31.4027 77.7299 31.6688" fill="#ABB7C2"/>
<path d="M85.397 31.1916C85.397 31.1916 85.125 31.145 84.8782 31.2876C84.8782 31.2876 82.7526 32.6892 82.7273 33.1966C82.7273 33.1966 82.5058 33.4379 82.9993 33.3173C82.9993 33.3173 84.7773 32.6645 85.1222 32.3518C85.1222 32.3518 85.3213 32.1571 85.4195 32.0117C85.4195 32.0117 85.9383 31.4577 86.014 31.6003C86.014 31.6003 86.0869 31.7703 85.9411 32.1324C85.9411 32.1324 85.5933 32.6398 86.1878 32.9525C86.1878 32.9525 87.2731 33.4818 87.5451 33.5093C87.5451 33.5093 88.0163 33.6053 87.9658 33.8219C87.9153 34.0386 87.719 34.0139 86.9534 33.8713C86.9534 33.8713 85.6438 33.4352 85.3241 32.7605C85.3241 32.7605 83.7677 33.5093 83.2742 33.704C83.2742 33.704 81.5215 34.3787 82.1861 33.1966C82.1861 33.1966 83.0751 31.5783 84.8053 30.9256C84.8053 30.9256 85.0998 30.9009 85.1755 30.7802C85.1755 30.7802 85.5204 30.6568 85.5709 30.8762C85.5709 30.8762 85.7195 31.2382 85.6466 31.2849C85.6466 31.2849 85.4727 31.3809 85.3998 31.1889" fill="#ABB7C2"/>
<path d="M3.0595 18.5146C2.89685 18.5146 2.35562 18.5146 2.12567 18.5311V21.6249C2.39208 21.6578 2.7987 21.6907 3.28945 21.6907C4.67759 21.6907 5.38427 21.0352 5.38427 20.0368C5.38427 18.9562 4.45044 18.5146 3.0595 18.5146ZM3.37358 14C2.9305 14 2.50425 14.0164 2.12567 14.0329V16.9128C2.39208 16.9293 2.65007 16.9293 2.995 16.9293C4.45044 16.9293 5.2048 16.3368 5.2048 15.3577C5.2048 14.5403 4.71404 14 3.37358 14ZM3.22496 23.4242C2.55473 23.4242 1.39374 23.3912 0 23.3912V12.3598C0.933835 12.3132 2.37245 12.2803 3.73254 12.2803C6.12181 12.2803 7.44544 13.2457 7.44544 15.0121C7.44544 16.1092 6.74156 17.0719 5.69555 17.4806V17.5135C7.00236 17.7932 7.65857 18.8739 7.65857 19.9847C7.65857 21.5892 6.56208 23.4214 3.22215 23.4214" fill="#ABB7C2"/>
<path d="M13.1268 19.6115C10.8048 19.6115 10.2916 20.2808 10.2916 20.9692C10.2916 21.5205 10.6702 21.8798 11.3068 21.8798C12.392 21.8798 13.1268 20.8485 13.1268 19.82V19.6115ZM13.2978 23.4103C13.2978 22.9111 13.3146 22.3954 13.3847 21.9484L13.3679 21.9319C12.9557 22.8946 11.9069 23.5639 10.6365 23.5639C9.09135 23.5639 8.19678 22.6889 8.19678 21.3148C8.19678 19.2714 10.2243 18.1853 13.1296 18.1853V17.7218C13.1296 16.8331 12.7005 16.3668 11.461 16.3668C10.687 16.3668 9.65782 16.6247 8.93712 17.0361L8.74923 15.1957C9.60735 14.8857 10.7066 14.6636 11.8059 14.6636C14.557 14.6636 15.3281 15.7662 15.3281 17.6367L15.3954 23.3856L13.3006 23.4103H13.2978Z" fill="#ABB7C2"/>
<path d="M83.4225 19.6115C81.1006 19.6115 80.5846 20.2808 80.5846 20.9692C80.5846 21.5205 80.966 21.8798 81.5997 21.8798C82.6822 21.8798 83.4253 20.8485 83.4253 19.82V19.6115H83.4225ZM83.5908 23.4103C83.5908 22.9111 83.6104 22.3954 83.6777 21.9484L83.6609 21.9319C83.2515 22.8946 82.1998 23.5639 80.9295 23.5639C79.3843 23.5639 78.4897 22.6889 78.4897 21.3148C78.4897 19.2714 80.5145 18.1853 83.4225 18.1853V17.7218C83.4225 16.8331 82.9907 16.3668 81.754 16.3668C80.98 16.3668 79.9536 16.6247 79.2273 17.0361L79.0394 15.1957C79.8947 14.8857 80.994 14.6636 82.0961 14.6636C84.8471 14.6636 85.6183 15.7662 85.6183 17.6367L85.6856 23.3856L83.588 23.4103H83.5908Z" fill="#ABB7C2"/>
<path d="M28.716 23.5501C26.3408 23.5501 24.8657 22.3104 24.8657 19.4058C24.8657 16.7426 26.2595 14.6992 29.2825 14.6992C29.8658 14.6992 30.4856 14.7842 31.0352 14.9406L30.8109 16.8468C30.3481 16.674 29.8125 16.5369 29.2629 16.5369C27.8719 16.5369 27.1653 17.5709 27.1653 19.1809C27.1653 20.6428 27.7317 21.6412 29.1928 21.6412C29.7789 21.6412 30.4126 21.5178 30.881 21.2791L31.0492 23.1497C30.4631 23.3746 29.6218 23.5474 28.7132 23.5474" fill="#ABB7C2"/>
<path d="M35.7771 16.537C34.7984 16.537 33.8366 17.2968 33.8366 19.0439C33.8366 20.7911 34.4731 21.6907 35.7435 21.6907C36.826 21.6907 37.6504 20.8185 37.6504 19.0823C37.6504 17.3462 37.0671 16.537 35.7771 16.537ZM35.5528 23.564C33.1327 23.564 31.5679 22.3106 31.5679 19.2716C31.5679 16.6083 33.3402 14.6802 35.9342 14.6802C38.3543 14.6802 39.9191 16.0214 39.9191 18.9616C39.9191 21.6413 38.1159 23.564 35.5528 23.564Z" fill="#ABB7C2"/>
<path d="M48.1695 16.537C47.188 16.537 46.2233 17.2968 46.2233 19.0439C46.2233 20.7911 46.8599 21.6907 48.133 21.6907C49.2127 21.6907 50.0399 20.8185 50.0399 19.0823C50.0399 17.3462 49.4566 16.537 48.1695 16.537ZM47.9423 23.564C45.5194 23.564 43.9546 22.3106 43.9546 19.2716C43.9546 16.6083 45.7241 14.6802 48.3209 14.6802C50.7438 14.6802 52.3058 16.0214 52.3058 18.9616C52.3058 21.6413 50.5027 23.564 47.9423 23.564Z" fill="#ABB7C2"/>
<path d="M76.5799 13.7558C75.8424 13.7558 75.2227 13.1524 75.2227 12.4145C75.2227 11.6767 75.8424 11.0925 76.5799 11.0925C77.3175 11.0925 77.9541 11.6767 77.9541 12.4145C77.9541 13.1524 77.3399 13.7558 76.5799 13.7558ZM77.6792 23.3939H75.3404V14.8885C76.4257 14.7514 76.4061 14.8035 77.6792 14.8364V23.3939Z" fill="#ABB7C2"/>
<path d="M21.484 14.6636C20.093 14.6636 19.0947 15.3685 18.5787 16.3833L18.5619 16.3668L18.618 14.8364C17.8496 14.9049 17.1597 15.0613 16.582 15.2999V23.3938H18.8002V19.2714C18.8002 17.7739 19.678 16.504 20.7941 16.504C21.5989 16.504 21.8429 17.0361 21.8429 17.9275V23.3911H24.0247V17.3954C24.0247 15.9006 23.4049 14.6636 21.4812 14.6636" fill="#ABB7C2"/>
<path d="M40.8755 11.943V23.394H43.0012V11.4355C42.1907 11.5123 41.4728 11.6824 40.8755 11.9457" fill="#ABB7C2"/>
<path d="M70.1919 21.8882C69.746 21.8882 69.4039 21.8388 69.1094 21.7401V19.4499C69.1094 18.0922 69.7657 16.8333 70.8453 16.8333C71.7988 16.8333 72.2391 17.5985 72.2391 19.1235C72.2391 21.1367 71.3865 21.8882 70.1947 21.8882M71.4538 15.0998C70.3097 15.0998 69.4067 15.6566 69.0001 16.5398H68.9804C69.0618 16.1147 69.1122 15.4427 69.1122 14.9517V11.4382C68.3018 11.5178 67.5867 11.6906 66.9922 11.9566V23.1636C67.9204 23.4269 68.8683 23.5585 70.0461 23.5585C72.8448 23.5585 74.4488 21.6605 74.4488 18.9095C74.4488 16.5069 73.4 15.0998 71.4538 15.0998Z" fill="#ABB7C2"/>
<path d="M63.243 14.6636C61.8016 14.6636 60.8537 15.5413 60.4583 16.3833C60.2508 15.5577 59.617 14.6636 58.1027 14.6636C56.8324 14.6636 55.8004 15.3356 55.2872 16.3833H55.2676C55.3349 15.9252 55.3657 15.2642 55.3713 14.8419C54.5777 14.9187 53.8738 15.086 53.2905 15.3465V23.3938H55.4975V19.3043C55.4975 17.7081 56.4398 16.504 57.4549 16.504C58.299 16.504 58.4701 17.1376 58.4701 17.9796V23.3938H60.635V19.3043C60.635 17.6367 61.6305 16.504 62.5924 16.504C63.3973 16.504 63.6104 17.069 63.6104 17.9796V23.3938H65.809V17.5161C65.809 15.5769 64.8976 14.6636 63.2458 14.6636" fill="#ABB7C2"/>
<path d="M100.941 12.0554C101.065 12.4641 101.025 12.8343 100.529 13.0318C99.9373 13.2677 99.497 13.424 98.7651 13.7038C98.3921 13.8409 98.0303 13.9808 97.6181 14.1372C97.2171 14.2853 96.802 14.4471 96.3505 14.6117C94.5502 15.2864 92.5058 16.0379 89.9539 16.9595C89.4071 17.1405 88.8518 16.8635 88.6499 16.2902C88.2321 14.9819 87.7581 13.7148 87.2954 12.5354C87.0991 11.9951 87.3852 11.5041 87.9208 11.345C89.2164 10.9885 90.3774 10.7059 91.5019 10.4372C92.6208 10.1684 93.6051 9.93797 94.5502 9.73501C96.4347 9.31536 97.6489 9.06029 98.9389 8.84086C99.5615 8.7339 99.7858 8.9972 99.9541 9.38668C100.321 10.2589 100.644 11.1366 100.944 12.0581" fill="#ABB7C2"/>
<path d="M99.7298 4.89946C99.5503 4.55387 99.3933 4.35365 98.7427 4.34268C96.9367 4.30702 94.8363 4.43868 91.6674 4.89672C90.0802 5.12437 88.3639 5.44527 86.4991 5.89783C85.5624 6.14194 84.6314 6.36959 83.6891 6.68501C82.6992 6.98397 81.7934 7.30213 80.868 7.6532C80.3212 7.86714 79.9959 8.34987 80.0856 8.75854C80.324 9.71851 80.568 10.6812 80.8596 11.792C81.0026 12.272 81.5663 12.4915 82.1608 12.2693C84.2276 11.5013 86.3869 10.8403 88.406 10.3055C90.4363 9.78434 92.1666 9.39212 93.7594 9.05202C96.9115 8.38278 98.5632 8.1661 100.257 7.87537C100.641 7.8068 100.809 7.56544 100.641 7.15676L99.7326 4.89946H99.7298Z" fill="#ABB7C2"/>
<path d="M97.5985 1.10618C97.3545 0.700247 97.119 0.664591 96.8049 0.617964C95.6607 0.439684 92.9854 0.464369 90.742 0.697504C89.6118 0.790759 88.4621 0.960811 87.2029 1.18846C85.9522 1.43257 84.6959 1.71233 83.3779 2.09358C82.9348 2.22797 82.6684 2.47756 82.8394 2.97401C83.0722 3.64599 83.2797 4.21648 83.5601 5.00914C83.748 5.53301 84.2107 5.5385 84.7015 5.39313C86.1709 4.968 87.5675 4.64161 88.936 4.38105C90.3073 4.11226 91.5272 3.94495 92.691 3.79135C95.0269 3.51707 97.0292 3.45948 98.1566 3.44302C98.4174 3.43753 98.5884 3.20988 98.3977 2.91366L97.6013 1.10892L97.5985 1.10618Z" fill="#ABB7C2"/>
<path d="M3.6623 4.74314C3.49123 4.05197 3.17154 3.39096 2.28818 3.39096C1.4497 3.39096 0.734597 4.16442 0.734597 5.95819C0.734597 7.75197 1.4497 8.52543 2.28818 8.52543C3.4071 8.52543 3.70156 7.50786 3.63986 6.61097H2.41438V6.07888H4.27644V8.91216H3.7324V8.33343C3.4071 8.77502 2.8855 9.03284 2.28818 9.03284C1.02905 9.03558 0.0952148 7.90556 0.0952148 5.96094C0.0952148 4.01631 1.02905 2.88354 2.28538 2.88354C3.39589 2.88354 4.07173 3.62684 4.27364 4.60052L3.65949 4.74589L3.6623 4.74314Z" fill="#ABB7C2"/>
<path d="M5.47975 5.62634H5.49378C5.73495 5.12442 6.04622 4.66089 6.6828 4.66089H6.91556V5.19847C6.12475 5.0915 5.71251 5.92805 5.47975 6.53694V8.91493H4.87402V4.72123H5.47975V5.62634Z" fill="#ABB7C2"/>
<path d="M9.53162 4.72119H10.1374V8.91489H9.53162V8.48153C9.17547 8.76404 8.84176 9.03557 8.35101 9.03557C7.74527 9.03557 7.25732 8.70918 7.25732 7.61482V4.72119H7.86306V7.46396C7.86306 7.90555 7.94158 8.5501 8.42953 8.5501C8.8025 8.5501 9.29045 8.19354 9.53162 7.91104V4.72119Z" fill="#ABB7C2"/>
<path d="M11.3826 7.73807C11.5536 8.09463 11.9659 8.51976 12.3921 8.51976C12.8184 8.51976 13.4101 8.11658 13.4101 6.88781C13.4101 6.25698 13.2306 5.11873 12.3837 5.11873C11.9182 5.11873 11.5705 5.42866 11.3826 5.79345V7.73807ZM11.3826 10.2148H10.7769V4.72102H11.3826V5.15438C11.663 4.86639 12.0416 4.60034 12.4538 4.60034C13.1914 4.60034 14.0467 5.25312 14.0467 6.90153C14.0467 8.54993 13.0596 9.03541 12.4791 9.03541C12.0051 9.03541 11.6714 8.78581 11.3854 8.43474V10.2121L11.3826 10.2148Z" fill="#ABB7C2"/>
<path d="M17.2774 6.81924C17.2774 6.10612 17.098 5.10227 16.1669 5.10227C15.2359 5.10227 15.0564 6.10612 15.0564 6.81924C15.0564 7.53237 15.2359 8.53622 16.1669 8.53622C17.098 8.53622 17.2774 7.53237 17.2774 6.81924ZM14.4507 6.81924C14.4507 5.24764 15.2107 4.60034 16.1669 4.60034C17.1232 4.60034 17.8832 5.24489 17.8832 6.81924C17.8832 8.3936 17.1232 9.03815 16.1669 9.03815C15.2107 9.03815 14.4507 8.3936 14.4507 6.81924Z" fill="#ABB7C2"/>
</g>
<defs>
<clipPath id="clip0_2040_8550">
<rect width="101" height="37" fill="white" transform="translate(0 0.5)"/>
</clipPath>
</defs>
</svg>
