<svg width="71" height="22" viewBox="0 0 71 22" fill="none" xmlns="http://www.w3.org/2000/svg">
<g clip-path="url(#clip0_2040_8548)">
<path fill-rule="evenodd" clip-rule="evenodd" d="M25.0287 18.3835C24.0507 18.1671 22.8929 18.0532 21.7294 18.0646C20.6896 18.0077 19.6385 18.0874 17.7388 18.5259C15.839 18.9701 13.0961 19.7618 11.275 20.2174C9.45393 20.6673 8.55463 20.7869 7.66095 20.8039C7.22254 20.8039 6.78413 20.7641 6.40192 20.6957C6.0141 20.6274 5.68248 20.5192 5.39583 20.3996C5.10355 20.28 4.86187 20.1319 4.64828 19.9782C4.4347 19.8187 4.25484 19.6479 4.09746 19.4599C3.94008 19.272 3.81081 19.0727 3.70401 18.8562C3.59722 18.6398 3.50729 18.412 3.44546 18.1614C3.38364 17.9109 3.33867 17.6432 3.31619 17.347C3.29371 17.0566 3.29933 16.7434 3.32743 16.4245C3.37239 15.9461 3.46795 15.4734 3.66467 14.8355C3.86139 14.1977 4.15929 13.389 4.62018 12.4094C5.07545 11.4299 5.69372 10.2795 6.3963 9.13478C7.1045 7.99577 7.89139 6.86815 8.63894 5.91138C9.38087 4.96031 10.0834 4.19147 10.6961 3.57641C11.3087 2.96704 11.8427 2.51713 12.298 2.17542C12.7533 1.83942 13.1355 1.61161 13.4783 1.44076C13.8156 1.26991 14.1134 1.1674 14.372 1.09336C14.6362 1.02502 14.8722 0.990852 15.1027 0.990852C15.2544 0.990852 15.3725 1.00224 15.4905 1.10475C15.6029 1.23004 15.6142 1.33256 15.6198 1.5148C15.6198 1.59453 15.6198 1.70273 15.6085 1.81094C15.2601 1.9761 14.8722 2.24376 14.5743 2.50004C14.4338 2.61964 14.3327 2.72784 14.254 2.81896C14.046 3.06385 13.9111 3.29165 13.8886 3.53654C13.8493 3.71309 14.0404 4.03201 14.1809 4.11744C14.6024 4.45345 15.1308 4.23134 15.6591 3.62766C15.7603 3.50807 15.8615 3.36569 15.957 3.20623C16.047 3.05246 16.1369 2.88161 16.2043 2.71076C16.4629 2.03305 16.6146 1.33256 16.2268 0.734575C16.1369 0.597893 16.0245 0.478297 15.884 0.381481C15.7491 0.284665 15.5804 0.204935 15.395 0.147984C15.2039 0.0910334 14.9959 0.0625581 14.6699 0.0739483C14.3495 0.0739483 13.9223 0.125204 13.439 0.239105C12.9556 0.353006 12.416 0.529553 11.809 0.802915C11.202 1.07628 10.5275 1.44646 9.77993 1.94762C9.03238 2.44879 8.21177 3.08663 7.36867 3.85546C6.52558 4.62999 5.65438 5.52981 4.85062 6.48658C3.21502 8.42859 1.93351 10.5073 1.20283 12.1361C0.826242 12.9619 0.562072 13.6965 0.382211 14.3458C0.20235 14.995 0.0955581 15.5645 0.0449723 16.1283C-0.0224755 16.8801 7.10459e-06 17.6261 0.118041 18.2526C0.179868 18.5487 0.252936 18.8164 0.348487 19.0727C0.444038 19.3232 0.556451 19.5567 0.696967 19.7731C0.831863 19.9896 0.989241 20.1889 1.17472 20.3768C1.3602 20.5648 1.56817 20.7413 1.81548 20.9008C2.06278 21.0659 2.34382 21.2083 2.68668 21.3393C3.02391 21.4703 3.42298 21.5842 3.9176 21.6639C4.41221 21.7436 4.99676 21.7892 5.59255 21.7892C6.51996 21.8177 7.4586 21.7436 9.03238 21.3962C10.6062 21.0431 12.8207 20.4281 14.4057 20.0807C15.9851 19.7333 16.9294 19.6592 17.868 19.6934C18.4582 19.6934 19.0484 19.7333 19.5205 19.8187C19.9926 19.8984 20.3467 20.0123 20.6784 20.1604C21.01 20.3028 21.3135 20.485 21.6451 20.7584C21.9767 21.0318 22.3365 21.3962 22.6568 21.7949C23.691 21.0887 24.7533 20.673 25.5515 20.5363C25.9505 20.4566 26.3102 20.4224 26.67 20.4224C26.8217 20.4224 26.9679 20.4395 27.1477 20.4622C27.322 20.485 27.5299 20.5249 28.0976 20.7128C28.6653 20.9065 29.6096 21.2482 30.5426 21.607C29.6321 20.7413 28.6316 19.9668 27.7267 19.4314C26.8217 18.8904 26.0236 18.5829 25.0456 18.3722L25.0287 18.3835ZM36.8883 5.6608H34.7356L33.6508 7.67115H35.7192L36.8883 5.6608ZM68.2009 2.16403C67.3129 2.69937 66.5204 3.05246 65.6098 3.28026C64.6993 3.51946 63.6707 3.64475 62.6533 3.63336L60.7985 5.91138C60.9503 5.93416 61.1021 5.95125 61.2313 5.96264C61.4843 5.99111 61.7597 6.0082 62.1194 6.0025C62.7826 6.0025 63.4571 5.91138 64.1653 5.72344C65.5929 5.34757 67.1892 4.5104 68.4258 3.43973C69.0496 2.90439 69.5836 2.32919 70.0052 1.77107C70.4267 1.20726 70.7527 0.654844 70.9944 0.0682532C70.0782 0.888341 69.089 1.61731 68.2009 2.15834V2.16403ZM65.7503 16.5099C65.3681 17.0395 64.9691 17.5521 64.6487 17.945C64.3283 18.338 64.0866 18.5943 63.8899 18.7936C63.6932 18.9872 63.547 19.1182 63.4178 19.2093C63.2997 19.3061 63.1986 19.3688 63.1142 19.4087C62.9456 19.4941 62.8332 19.5396 62.6758 19.5112C62.5185 19.4713 62.5241 19.3346 62.5297 19.2492C62.5522 19.1809 62.5016 19.2777 62.7208 18.8449C62.8838 18.5316 63.1985 17.9279 63.5245 17.33L67.2286 10.9458H65.4075L64.778 11.4925C64.5531 11.3388 64.3171 11.1964 64.1428 11.111C63.9686 11.0255 63.8562 10.9971 63.7494 10.9743C63.637 10.9515 63.5246 10.9458 63.4009 10.9458C62.7714 10.9458 62.1756 11.1565 61.5124 11.5552C61.3156 11.6748 61.1021 11.8228 60.8604 12.0051C60.6243 12.193 60.3601 12.4265 60.0397 12.7284C59.7137 13.0302 59.3428 13.4061 58.6796 14.2489C58.0163 15.0918 57.0608 16.4017 56.3863 17.3015C55.7175 18.2013 55.3296 18.6911 55.0542 18.9929C54.7901 19.3005 54.6383 19.42 54.5203 19.5055C54.4022 19.5909 54.3179 19.6365 54.2392 19.6649C54.1325 19.7048 54.0481 19.7219 53.947 19.7048C53.7784 19.6934 53.576 19.4428 53.5479 19.2663C53.4861 18.936 53.5198 18.7879 53.6378 18.281C53.7053 17.9849 53.8289 17.5407 54.0088 16.9769C54.1887 16.4131 54.4303 15.7297 54.6833 15.0519C56.0941 14.1293 57.4655 13.1213 58.5109 12.2386C59.562 11.3615 60.2927 10.6098 61.0458 9.70998C61.7934 8.80447 62.569 7.75658 63.2772 6.64604L62.4398 6.73716C61.9002 7.52308 61.31 8.26913 60.6187 9.05505C59.9273 9.83527 59.1348 10.6497 58.2636 11.4356C57.3924 12.2215 56.4425 12.9789 55.4645 13.6737C56.0828 12.4892 56.746 11.316 57.443 10.1713C58.1343 9.03227 58.865 7.91604 59.5845 6.89093C60.3039 5.87151 61.0177 4.93753 61.6585 4.163C62.3049 3.38847 62.8726 2.7734 63.3391 2.3178C63.8056 1.8622 64.1653 1.56036 64.4463 1.36103C64.7217 1.1617 64.9241 1.0535 65.0758 0.985157C65.2276 0.922511 65.3344 0.899731 65.4356 0.899731C65.4862 0.899731 65.5367 0.916816 65.5817 0.950987C65.7784 1.12753 65.7447 1.22435 65.711 1.41798C65.7054 1.47493 65.6885 1.53188 65.6042 1.74829C65.5199 1.96471 65.3625 2.34628 65.1995 2.72215L65.9527 2.63103C66.0932 2.40892 66.2225 2.18112 66.3011 2.01596C66.3798 1.8565 66.4079 1.77677 66.4304 1.66856C66.4529 1.57175 66.4698 1.45785 66.481 1.34395C66.5091 0.968072 66.4417 0.609283 66.1044 0.30175C66.0145 0.22202 65.9077 0.165069 65.7953 0.125204C65.4075 0.0056076 65.059 0.0739483 64.6093 0.193544C64.3002 0.284665 63.9405 0.427042 63.5133 0.666234C63.0861 0.899731 62.5915 1.23004 61.9901 1.70843C61.3887 2.19251 60.6861 2.83035 59.8936 3.67322C59.0955 4.51609 58.2074 5.56398 57.2856 6.78842C56.3695 8.00716 55.4196 9.40245 54.554 10.8319C53.6884 12.2557 52.8959 13.7193 52.1877 15.2114H51.1929C51.3896 14.7957 51.5751 14.3628 51.6931 14.061C51.8055 13.7478 51.8617 13.5655 51.9011 13.3776C52.0135 12.865 52.0416 12.2955 51.8505 11.8399C51.7943 11.6976 51.7212 11.578 51.6369 11.4754C51.3109 11.0939 51.0186 11.0198 50.6195 11.0085C50.4622 11.0085 50.2654 11.0369 50.0462 11.0939C49.8214 11.1451 49.5741 11.2363 49.2875 11.3786C49.0008 11.5153 48.6748 11.7033 48.3095 11.9652C47.9441 12.2272 47.5338 12.5632 47.1066 12.9789C46.6739 13.3947 46.2186 13.8958 45.7914 14.4312C44.909 15.536 44.2064 16.732 43.8073 17.6432C43.605 18.1045 43.4588 18.5202 43.3633 18.879C43.2621 19.2435 43.2115 19.551 43.1834 19.8244C43.1609 20.0921 43.1666 20.3256 43.2003 20.5249C43.2284 20.7299 43.2902 20.9178 43.3689 21.0773C43.4532 21.2425 43.5544 21.3848 43.6837 21.5044C43.8073 21.6183 43.9591 21.7152 44.1221 21.7778C44.2907 21.8405 44.4762 21.8689 44.6617 21.8746C45.0495 21.8746 45.4317 21.7778 45.9094 21.5386C46.1568 21.4133 46.4265 21.2425 46.7357 21.009C47.0448 20.7698 47.3933 20.4622 47.7924 20.0522C48.197 19.6365 48.6467 19.1068 49.1694 18.4063C49.6865 17.7115 50.2711 16.8402 50.8163 15.9518H51.8111C51.4795 16.8231 51.1704 17.7058 50.9905 18.264C50.8106 18.8221 50.7601 19.0613 50.7263 19.2891C50.6533 19.7162 50.6027 20.1376 50.6364 20.5021C50.6533 20.6673 50.687 20.821 50.7376 20.9577C50.7882 21.0944 50.85 21.2197 50.9287 21.3336C51.0074 21.4418 51.1029 21.5443 51.2153 21.624C51.3277 21.7038 51.4514 21.7664 51.5919 21.812C51.7324 21.8518 51.8842 21.8803 52.0472 21.8803C52.598 21.8803 53.1264 21.6867 53.7783 21.2254C54.0257 21.0488 54.3011 20.8267 54.6383 20.5078C54.9699 20.1889 55.369 19.7674 55.74 19.3232C55.7175 19.5966 55.7062 19.87 55.7119 20.1035C55.7119 20.3313 55.7343 20.5078 55.7568 20.6559C55.7793 20.7983 55.813 20.9178 55.8467 21.0261C55.8805 21.1286 55.9198 21.214 55.9592 21.2823C56.0491 21.4418 56.1446 21.5386 56.2402 21.6126C56.4425 21.7493 56.6112 21.7892 56.8809 21.7892C56.9877 21.7892 57.1283 21.7778 57.2744 21.7493C57.561 21.6924 57.8252 21.5899 58.1681 21.3848C58.3423 21.2766 58.5334 21.14 58.8032 20.9008C59.0674 20.6673 59.4159 20.3256 59.7419 19.9725C59.7194 20.2231 59.7081 20.4736 59.7137 20.6673C59.7137 20.8609 59.7362 20.9862 59.7531 21.0887C59.77 21.1969 59.7924 21.2766 59.8205 21.3507C59.888 21.5614 60.1016 21.7778 60.2702 21.8234C60.821 21.9714 61.2763 21.8461 61.8889 21.5443C62.1306 21.419 62.4004 21.2482 62.6983 21.0147C62.9962 20.7755 63.3278 20.4793 63.6988 20.0807C64.0698 19.6763 64.4801 19.1809 64.9185 18.5544C65.3569 17.9336 65.829 17.1876 66.2562 16.4131L65.7503 16.5042V16.5099ZM49.3886 17.1079C49.1188 17.5008 48.8434 17.871 48.568 18.1899C48.3038 18.5088 48.0397 18.7879 47.8205 18.9929C47.6013 19.2036 47.4102 19.3574 47.2584 19.4599C47.1066 19.5624 46.9942 19.6251 46.9043 19.6592C46.8144 19.6991 46.7469 19.7105 46.6795 19.7105C46.4715 19.7105 46.2635 19.6137 46.0949 19.3802C46.0387 19.3061 45.9938 19.215 45.96 19.1182C45.8813 18.8847 45.8589 18.6911 45.887 18.3835C45.9038 18.2127 45.9375 17.9906 45.9994 17.7571C46.0556 17.5236 46.1399 17.2787 46.2467 17.0224C46.6176 16.1454 47.3034 15.2114 48.2195 14.4198C48.3095 14.6248 48.4219 14.8241 48.6017 15.0235C48.686 15.1146 48.7816 15.2057 48.9053 15.3025C49.0233 15.3936 49.1694 15.4848 49.383 15.5873C49.5966 15.6841 49.872 15.7923 50.1586 15.8834C49.917 16.3105 49.6528 16.7263 49.383 17.1136L49.3886 17.1079ZM51.131 13.2181C51.1198 13.3548 51.0973 13.4801 51.0748 13.6111C51.0467 13.7421 51.013 13.8674 50.9006 14.1407C50.7882 14.4084 50.5914 14.8241 50.3779 15.2342C50.153 15.1601 49.9282 15.069 49.7708 14.9836C49.6135 14.9039 49.5179 14.8355 49.4392 14.7729C49.3605 14.7102 49.2987 14.6476 49.2481 14.5849C49.1413 14.454 49.0739 14.3401 49.0289 14.2034C48.8434 13.5143 48.9446 12.8081 49.7315 12.25C49.9676 12.1076 50.198 12.0393 50.4116 12.045C50.6308 12.045 50.7882 12.0563 50.9624 12.2158C51.131 12.4094 51.1366 12.5689 51.1535 12.8366C51.1535 12.9448 51.1479 13.0871 51.1366 13.2295L51.131 13.2181ZM60.939 17.609C60.6861 18.0134 60.3995 18.3949 60.169 18.674C59.9442 18.9588 59.77 19.1353 59.6182 19.2663C59.4664 19.3973 59.3484 19.477 59.2191 19.534C58.9718 19.6422 58.702 19.6592 58.5278 19.5055C58.3817 19.3289 58.3985 19.1922 58.4154 18.936C58.4266 18.8221 58.4491 18.6683 58.4884 18.4975C58.5278 18.3209 58.584 18.1216 58.6627 17.9052C58.7414 17.6831 58.8425 17.4325 58.9887 17.142C59.1292 16.8516 59.3091 16.527 59.5339 16.1568C59.7643 15.7923 60.0341 15.388 60.3545 14.9722C60.6749 14.5622 61.0346 14.1293 61.3831 13.7535C61.7316 13.3776 62.0688 13.053 62.3498 12.8138C62.6309 12.5689 62.8557 12.4094 63.0299 12.2955C63.2042 12.1873 63.3278 12.1304 63.4234 12.0962C63.5189 12.062 63.592 12.045 63.6594 12.045C63.7831 12.045 63.8787 12.045 63.9742 12.1076C64.1147 12.2386 64.036 12.3924 63.9911 12.5689C63.963 12.6771 63.9067 12.8081 63.8281 12.9676C63.7494 13.127 63.6426 13.3206 63.5302 13.5086L60.9334 17.6147L60.939 17.609ZM44.4987 14.0211C44.6167 13.5598 44.6898 13.1213 44.7235 12.6828C44.7516 12.3582 44.7291 12.0279 44.6504 11.7887C44.6111 11.6805 44.5661 11.5837 44.5099 11.4982C44.375 11.2932 44.2289 11.1907 44.049 11.1053C43.9478 11.0597 43.8298 11.0198 43.6893 10.9914C43.5488 10.9629 43.3858 10.9458 43.2059 10.9458C43.0261 10.9458 42.8068 10.9686 42.5989 11.0028C41.7558 11.1622 40.8677 11.6235 39.9459 12.66C39.7099 12.9277 39.4738 13.2352 39.2434 13.5826C39.0129 13.9357 38.7881 14.3287 38.5745 14.7672C38.3609 15.2 38.1642 15.6727 37.9956 16.1682C37.827 16.6636 37.6864 17.1819 37.5796 17.7058C38.0574 17.3072 38.5408 16.9142 38.8949 16.6523C39.2434 16.3903 39.4569 16.265 39.7436 16.1055C40.0246 15.9518 40.3843 15.7695 40.7497 15.6044C40.8733 15.0235 41.0701 14.4369 41.3061 13.9471C41.4129 13.7136 41.5253 13.5143 41.6321 13.3434C41.7389 13.1669 41.8457 13.0245 41.9525 12.8992C42.2448 12.5461 42.5202 12.3525 42.79 12.2329C43.189 12.0962 43.5038 12.0393 43.8354 12.3582C43.9759 12.5404 44.0097 12.6885 44.0265 12.8764C44.0265 13.5712 43.8748 14.192 43.6162 14.9096C43.4982 15.2285 43.352 15.5588 43.1722 15.9062C42.9923 16.2479 42.7731 16.6067 42.509 16.9826C41.9862 17.7286 41.2443 18.5316 40.4462 19.1752C39.6818 19.7959 38.8836 20.2344 38.3384 20.411C38.0743 20.4964 37.8719 20.5306 37.6808 20.5306C37.4897 20.5306 37.3155 20.5078 37.1412 20.4509C36.7984 20.3426 36.4499 20.1092 36.1745 19.7674C36.0396 19.5966 35.9272 19.403 35.8429 19.2093C35.6686 18.7993 35.6124 18.3779 35.6518 17.9792C35.708 17.5065 35.8204 17.0452 36.1183 16.2536C36.4162 15.4563 36.8996 14.3287 37.5459 13.0587C38.1923 11.8001 39.0017 10.3991 39.7886 9.17465C40.5698 7.9559 41.3286 6.9251 42.0087 6.07654C42.6888 5.22797 43.2902 4.56165 43.8354 4.02632C44.375 3.48529 44.8584 3.06955 45.2912 2.73354C45.724 2.40323 46.1005 2.15264 46.449 1.95332C46.7919 1.75399 47.1066 1.61161 47.3989 1.49771C48.1633 1.19018 48.8547 1.17309 49.6303 1.18448C49.0289 1.53758 48.4444 1.93054 47.9273 2.34628C46.8818 3.17775 46.1118 4.0434 45.6115 4.78376C45.3586 5.15963 45.1619 5.50703 45.0101 5.83165C44.8584 6.15627 44.7516 6.45811 44.6729 6.74855C44.5942 7.03331 44.5492 7.30667 44.5268 7.51739C44.5043 7.7281 44.5099 7.88187 44.5268 8.01855C44.5436 8.15523 44.5774 8.27483 44.6223 8.37734C44.6673 8.47985 44.7235 8.57097 44.7909 8.6507C44.8584 8.73043 44.9427 8.79877 45.0326 8.85572C45.1282 8.91267 45.2406 8.95823 45.3699 8.9924C45.4991 9.02658 45.6509 9.04366 45.797 9.04366C46.1118 9.04366 46.4378 8.95823 46.8256 8.77599C47.028 8.67918 47.2528 8.54249 47.4945 8.36595C47.7362 8.1894 48.0003 7.96729 48.2757 7.69393C48.5455 7.42057 48.8209 7.10165 49.0851 6.75425C49.3493 6.40685 49.6022 6.01959 49.8158 5.64371C50.2317 4.90905 50.524 4.16869 50.6814 3.53085C50.7601 3.22331 50.805 2.93856 50.8275 2.6595C50.8275 2.59116 50.8331 2.51713 50.8331 2.38045C50.8331 2.24376 50.8275 2.03305 50.8219 1.88498C50.8219 1.7369 50.8219 1.65148 50.8331 1.56605C51.5188 1.55466 52.1989 1.64009 52.8285 1.81094C53.458 1.98179 54.0425 2.24376 54.8912 2.78479C55.7343 3.32582 56.8472 4.14591 57.9039 5.04004L59.9105 2.93856C59.2472 2.35767 58.5559 1.82803 57.9432 1.42368C57.3362 1.01933 56.8135 0.745965 56.3526 0.546638C55.8861 0.347311 55.4758 0.22202 55.0992 0.136594C54.5203 0.0113027 54.0538 -0.0171726 53.413 0.0568631C53.1938 0.0796433 52.969 0.119509 52.5193 0.2448C52.0697 0.375786 51.4008 0.597893 50.7376 0.837086C50.3835 0.603588 50.0069 0.387176 49.7371 0.261885C49.4617 0.136594 49.2931 0.0910334 49.1188 0.0625582C48.4556 -0.0456479 47.8486 0.0283878 47.028 0.26758C46.4322 0.449822 45.724 0.72888 44.8865 1.17309C44.049 1.623 43.0879 2.23237 42.093 2.98412C41.1038 3.73587 40.0808 4.63569 39.1478 5.57537C38.2092 6.51506 37.3604 7.5003 36.6354 8.45707C35.9103 9.40814 35.3089 10.3307 34.8143 11.1964C34.3197 12.062 33.9375 12.865 33.634 13.6225C33.3304 14.3799 33.1112 15.0861 32.9482 15.7467C32.7852 16.4074 32.6897 17.0167 32.6447 17.5122C32.5998 18.0077 32.6054 18.3836 32.656 18.7423C32.7065 19.1011 32.7909 19.4485 32.9258 19.7674C33.0606 20.0864 33.2349 20.3939 33.4541 20.6673C33.6733 20.9406 33.9375 21.1855 34.2297 21.3905C34.522 21.5899 34.8593 21.7493 35.2077 21.8518C35.9384 22.0626 36.6298 22.0796 37.4335 21.8291C37.8494 21.7038 38.3272 21.5101 38.8443 21.2197C39.8954 20.6445 41.0813 19.6763 41.9919 18.6284C42.9305 17.5578 43.5994 16.4529 44.0265 15.4677C44.2401 14.9665 44.3975 14.4938 44.5211 14.0382L44.4987 14.0211ZM49.9732 1.82233C49.9338 2.21529 49.8608 2.61394 49.7315 3.07524C49.6078 3.54224 49.428 4.07188 49.2312 4.57304C49.0289 5.06851 48.8097 5.52981 48.5961 5.91708C48.3825 6.30434 48.1802 6.60618 47.9947 6.86245C47.5169 7.5003 47.1066 7.85339 46.6739 8.05842C46.2242 8.25205 45.8083 8.28052 45.4486 8.04133C45.3474 7.97299 45.2406 7.82492 45.2069 7.69393C45.1338 7.23833 45.2631 6.85106 45.4486 6.35559C45.5329 6.15057 45.634 5.93986 45.7802 5.70066C45.9207 5.45578 46.1005 5.1938 46.3366 4.89196C46.5727 4.59013 46.865 4.25412 47.2303 3.89533C47.6013 3.53085 48.0453 3.13219 48.5174 2.7791C48.9839 2.42031 49.4729 2.10708 49.9732 1.82803V1.82233ZM30.1941 12.9391C29.8232 13.389 29.6545 13.5598 29.5253 13.6737C29.396 13.7933 29.3117 13.8617 29.2386 13.9072C29.0868 14.0154 28.9295 14.0496 28.7777 14.0268C28.6878 14.0268 28.5529 13.9186 28.5697 13.7706C28.5754 13.6908 28.5473 13.6908 28.626 13.5029C28.6709 13.4004 28.744 13.2238 28.9576 12.7967C29.1712 12.3696 29.5196 11.6919 29.8794 11.0141L32.9988 5.62663H31.0091L30.6381 6.08223C30.374 5.92277 30.1042 5.78039 29.9018 5.69497C29.7051 5.60954 29.5815 5.58107 29.4466 5.56398C29.3117 5.5412 29.1712 5.52981 29.025 5.52981C28.5585 5.53551 28.092 5.67219 27.5243 6.0082C27.3107 6.13918 27.069 6.31003 26.7599 6.54923C26.4508 6.78842 26.0798 7.10165 25.3828 7.89895C24.6859 8.69057 23.6629 9.96626 22.8142 10.9971C21.9711 12.0336 21.2966 12.8252 20.8189 13.3434C20.3355 13.8617 20.0545 14.0838 19.8184 14.2546C19.5823 14.4255 19.4025 14.5394 19.2451 14.6191C19.0821 14.7045 18.9472 14.7558 18.8123 14.7843C18.4751 14.864 18.121 14.8583 17.868 14.6761C17.7107 14.5451 17.6769 14.4312 17.6432 14.2888C17.5701 13.9015 17.6432 13.5997 17.7219 13.2238C17.7725 13.0074 17.8456 12.7511 17.9524 12.4664C18.0591 12.1816 18.1997 11.8513 18.3908 11.4811C18.5819 11.111 18.8235 10.6895 19.1214 10.2396C19.7116 9.32841 20.5716 8.29191 21.2404 7.64837C21.572 7.32375 21.8418 7.10165 22.0554 6.95358C22.269 6.8055 22.4151 6.72577 22.5276 6.68021C22.64 6.63465 22.7187 6.61187 22.7973 6.61187C22.9041 6.61187 22.9997 6.62896 23.0896 6.70299C23.2077 6.8112 23.2189 6.87954 23.2358 7.05609C23.2358 7.13012 23.2358 7.23833 23.2245 7.34653C23.039 7.37501 22.8479 7.42057 22.7018 7.46613C22.5557 7.51169 22.4489 7.56295 22.3589 7.60851C22.269 7.65976 22.1959 7.70532 22.1341 7.75658C21.6901 8.09828 21.6114 8.53111 21.6283 8.81586C21.6507 8.95254 21.7407 9.09492 21.8587 9.20312C22.2072 9.51635 22.6681 9.31133 23.1346 8.75321C23.2189 8.6507 23.3088 8.53111 23.3875 8.40581C23.6461 8.00147 23.8034 7.6142 23.8765 7.27819C23.9945 6.74286 23.9777 6.1164 23.3594 5.64941C23.129 5.49564 22.9154 5.433 22.6231 5.433C22.4601 5.433 22.2578 5.45578 22.0554 5.49564C21.8475 5.5412 21.6395 5.60954 21.4034 5.70636C21.1674 5.80317 20.9032 5.93416 20.403 6.33281C19.9083 6.73716 19.1776 7.41487 18.6043 7.91034C18.0254 8.40581 17.6039 8.71335 17.2441 8.94115C16.8788 9.16895 16.5753 9.31702 16.283 9.43662C15.9907 9.55621 15.7041 9.64734 15.4174 9.71568C15.5917 9.32841 15.7491 8.93545 15.8671 8.59945C15.9851 8.25774 16.0694 7.97299 16.12 7.76227C16.1762 7.54586 16.1987 7.39779 16.2099 7.24402C16.2324 6.94218 16.1987 6.62326 16.1088 6.37837C16.0638 6.25878 16.0076 6.15627 15.9458 6.06515C15.7996 5.86012 15.6366 5.74053 15.468 5.6608C15.0071 5.45578 14.5968 5.48995 14.1022 5.61524C13.8493 5.68358 13.557 5.79178 13.231 5.95125C12.8994 6.1164 12.5284 6.33851 12.1237 6.63465C11.7134 6.93079 11.275 7.30667 10.831 7.73949C10.3926 8.17232 9.94855 8.66779 9.55511 9.16895C8.77384 10.177 8.17805 11.2192 7.8127 12.0905C7.63284 12.5176 7.50357 12.9106 7.41364 13.2694C7.32371 13.6339 7.2675 13.9528 7.2394 14.2148C7.21692 14.4767 7.21692 14.6761 7.2394 14.8583C7.25626 15.0406 7.29561 15.2 7.34619 15.3424C7.39678 15.4905 7.4586 15.6158 7.54291 15.7297C7.62722 15.8436 7.71715 15.9404 7.83519 16.0258C7.9476 16.1112 8.07688 16.1739 8.22863 16.2194C8.38039 16.265 8.54901 16.2935 8.74011 16.2935C8.93121 16.2935 9.13918 16.265 9.35838 16.2137C9.57759 16.1625 9.80241 16.0827 10.0497 15.9632C10.2914 15.8436 10.5556 15.6898 10.8479 15.4791C11.1457 15.2627 11.4661 14.9893 11.8483 14.6134C12.2249 14.2319 12.6633 13.7535 13.2085 13.0473C13.7537 12.3411 14.4057 11.4014 15.024 10.4446L16.5472 10.0802C16.0975 10.9059 15.676 11.7545 15.4343 12.2955C15.1926 12.8366 15.1252 13.0644 15.0746 13.3206C14.906 14.1066 14.861 14.9096 15.2151 15.5303C15.3219 15.7183 15.4624 15.8834 15.631 16.0315C15.7996 16.1682 15.9964 16.2821 16.2268 16.3561C16.4573 16.4301 16.7214 16.4757 16.9856 16.47C17.6769 16.47 18.284 16.3105 19.1046 15.7809C19.3856 15.5987 19.7004 15.3709 20.1332 14.9779C20.566 14.5849 21.1112 14.0382 21.6339 13.4573C21.5889 13.9585 21.5608 14.4654 21.5552 14.79C21.5552 15.1146 21.5777 15.2627 21.6001 15.3823C21.6226 15.5019 21.6507 15.593 21.6788 15.6727C21.7069 15.7467 21.7407 15.8151 21.78 15.872C21.9149 16.0771 22.0554 16.1511 22.2184 16.2137C22.7749 16.3618 23.2189 16.2821 23.7866 16.0201C23.9889 15.9233 24.2137 15.7923 24.506 15.5816C24.7983 15.3652 25.158 15.0576 25.5009 14.733C25.484 14.938 25.4728 15.1431 25.4728 15.2968C25.4728 15.4449 25.4896 15.536 25.5065 15.6158C25.5346 15.7467 25.5627 15.8322 25.6358 15.9404C25.8325 16.1853 26.0405 16.2251 26.3103 16.265C26.417 16.2764 26.5519 16.2878 26.6868 16.2878C27.2152 16.2878 27.7548 16.0998 28.4011 15.6727C28.7384 15.4506 29.0981 15.1488 29.4915 14.7558C29.885 14.3571 30.3121 13.856 30.7618 13.2295C31.2115 12.6088 31.6836 11.857 32.1108 11.0825L31.7061 10.9914C31.144 11.7317 30.5651 12.455 30.1941 12.9049V12.9391ZM12.5903 12.848C12.1743 13.4118 12.0001 13.5883 11.8539 13.725C11.7078 13.8617 11.5898 13.9585 11.4886 14.0325C11.3874 14.1066 11.2919 14.1578 11.2076 14.1977C10.8029 14.3742 10.3476 14.4027 10.0666 13.9585C9.97103 13.7706 9.94293 13.6054 9.97103 13.3605C9.9879 13.2181 10.0216 13.0416 10.1003 12.8081C10.179 12.5689 10.297 12.2728 10.4881 11.8912C10.6792 11.5096 10.949 11.0483 11.2975 10.5358C11.6404 10.0232 12.0675 9.46509 12.5116 8.92976C12.7083 9.20312 12.9163 9.46509 13.0849 9.64734C13.2535 9.82958 13.3828 9.93209 13.5739 10.046C13.765 10.1599 14.0235 10.2852 14.2877 10.3877C13.6582 11.3502 13.0006 12.2898 12.5903 12.848ZM15.3388 7.85339C15.3275 7.97868 15.305 8.12676 15.2769 8.26344C15.2488 8.40012 15.2095 8.52541 15.1139 8.75321C15.0128 8.98671 14.8554 9.32272 14.6868 9.66442C14.4675 9.59038 14.254 9.49926 14.091 9.41384C13.928 9.32841 13.8156 9.25438 13.72 9.18034C13.6245 9.112 13.5514 9.03796 13.4952 8.96962C13.4334 8.90698 13.3884 8.83864 13.349 8.78169C13.0568 8.25774 13.0849 7.71102 13.6301 7.16999C13.7088 7.09026 13.7987 7.02192 13.8999 6.95358C13.9954 6.88523 14.1078 6.82259 14.209 6.78272C14.5294 6.66313 14.8329 6.53784 15.1139 6.77703C15.4174 7.1529 15.3612 7.48322 15.3444 7.85339H15.3388ZM26.6981 12.3924C26.5182 12.6771 26.3271 12.9448 26.1585 13.1669C25.9955 13.3833 25.8494 13.5484 25.7313 13.6737C25.6133 13.8047 25.5121 13.8958 25.4222 13.9699C25.2704 14.0895 25.1468 14.1578 25.0231 14.1977C24.832 14.2489 24.6128 14.2091 24.4554 14.0325C24.2924 13.8218 24.2756 13.6965 24.2924 13.463C24.3037 13.3605 24.3262 13.2238 24.3767 13.053C24.4273 12.8764 24.4948 12.6714 24.6128 12.398C24.7308 12.1304 24.8882 11.8058 25.1243 11.39C25.3604 10.9857 25.6695 10.4902 26.0405 9.97765C26.4058 9.46509 26.833 8.92406 27.2208 8.47415C27.6086 8.02425 27.9627 7.66546 28.2381 7.40918C28.5135 7.14721 28.7215 6.99344 28.8733 6.89093C29.0306 6.78272 29.1318 6.73147 29.2217 6.6973C29.3791 6.63465 29.5253 6.62896 29.6658 6.6973C29.9075 6.86245 29.8007 7.1529 29.7782 7.30097C29.7613 7.36362 29.7388 7.41487 29.6321 7.6142C29.5196 7.80783 29.3173 8.14384 29.1093 8.47415L26.6981 12.398V12.3924ZM65.7953 21.2539L65.6098 20.5704H65.3063V21.5728H65.4918V20.7812L65.6941 21.5728H65.8908L66.0876 20.7812V21.5728H66.2787V20.5704H65.9695L65.7897 21.2539H65.7953ZM67.1555 21.214C67.1274 21.1855 67.088 21.157 67.0487 21.1286C67.1386 21.1172 67.2061 21.083 67.251 21.0318C67.296 20.9862 67.3185 20.9235 67.3185 20.8495C67.3185 20.7869 67.3016 20.7356 67.2735 20.69C67.2454 20.6445 67.2061 20.6103 67.1555 20.5932C67.1049 20.5761 67.0262 20.5648 66.9194 20.5648H66.4922V21.5671H66.6946V21.1513H66.7339C66.7789 21.1513 66.8126 21.1513 66.8351 21.1627C66.8576 21.1684 66.8801 21.1855 66.8969 21.2026C66.9194 21.2197 66.9531 21.2709 67.0037 21.3507L67.1499 21.5671H67.3916L67.2679 21.3735C67.2173 21.2937 67.178 21.2425 67.1499 21.2083L67.1555 21.214ZM66.8407 20.9919H66.689V20.7413H66.8464C66.9307 20.7413 66.9756 20.7413 66.9925 20.7413C67.0262 20.7413 67.0487 20.7584 67.0656 20.7812C67.0824 20.8039 67.0937 20.8324 67.0937 20.8609C67.0937 20.8894 67.088 20.9178 67.0712 20.9349C67.0599 20.9577 67.0375 20.9691 67.015 20.9748C66.9925 20.9805 66.9307 20.9862 66.8351 20.9862L66.8407 20.9919Z" fill="#ABB7C2"/>
</g>
<defs>
<clipPath id="clip0_2040_8548">
<rect width="71" height="22" fill="white"/>
</clipPath>
</defs>
</svg>
