<svg width="35" height="48" viewBox="0 0 35 48" fill="none" xmlns="http://www.w3.org/2000/svg">
<g clip-path="url(#clip0_2040_8594)">
<path fill-rule="evenodd" clip-rule="evenodd" d="M24.945 33.6419C25.2263 33.9855 24.79 34.4339 24.4513 34.1514C24.26 33.7959 24.5891 33.4306 24.945 33.6419Z" fill="#ABB7C2"/>
<path fill-rule="evenodd" clip-rule="evenodd" d="M8.41528 34.4733C7.99242 34.1039 7.28446 33.8156 6.71235 34.2422C5.72312 34.9789 6.16129 37.3804 7.5179 37.2935C7.93119 37.2659 8.046 37.019 8.41337 36.8768C8.76352 37.6352 7.74559 37.7991 7.07016 37.7082C5.15675 37.4535 5.16632 33.5865 7.33804 33.547C7.79725 33.5371 8.80753 33.7169 8.41337 34.4713L8.41528 34.4733Z" fill="#ABB7C2"/>
<path fill-rule="evenodd" clip-rule="evenodd" d="M29.2444 33.6871C29.3477 34.7832 29.2597 36.0749 29.2884 37.248C29.2808 37.4573 29.6041 37.325 29.5563 37.5719C29.5084 37.7654 29.0569 37.6449 28.9287 37.6193C28.6321 36.537 28.8713 34.9037 28.7947 33.5963C28.9937 33.5765 29.1411 33.6081 29.2425 33.6891L29.2444 33.6871Z" fill="#ABB7C2"/>
<path fill-rule="evenodd" clip-rule="evenodd" d="M10.2061 34.7973C10.6443 34.7459 11.0021 34.8506 11.2355 35.0738C11.8076 35.6228 11.6718 37.1119 11.1016 37.5247C9.81192 38.4588 8.56056 36.6834 9.22068 35.3977C9.38715 35.0718 9.69329 34.8565 10.2061 34.7973ZM10.5639 37.2936C11.3216 37.0961 11.3618 34.9019 10.1162 35.2594C9.19198 35.5241 9.47134 37.576 10.5639 37.2936Z" fill="#ABB7C2"/>
<path fill-rule="evenodd" clip-rule="evenodd" d="M14.4177 35.121C14.7563 34.7557 15.47 34.6253 15.8508 34.89C16.4822 35.3264 16.0192 36.6812 16.1646 37.6193H15.6709C15.6212 36.8985 15.7762 35.9683 15.581 35.3995C15.3323 35.0934 14.653 35.2178 14.5057 35.5377C14.5899 36.1598 14.5363 36.9261 14.5497 37.6193H14.056C13.924 36.9222 14.2875 35.8518 13.9221 35.3995C13.6599 35.0736 13.0859 35.2198 12.8027 35.5377V37.6193H12.3091V34.7991C12.5808 34.7813 12.6937 34.9275 12.8027 35.0756C13.1778 34.6905 14.1039 34.649 14.4157 35.123L14.4177 35.121Z" fill="#ABB7C2"/>
<path fill-rule="evenodd" clip-rule="evenodd" d="M19.2548 36.2764C18.7305 36.383 18.0168 36.2941 17.4179 36.3218C17.3758 37.0268 17.8446 37.3764 18.4492 37.2935C18.7324 37.254 18.8587 37.0209 19.0768 37.017C19.3619 37.7438 18.3401 37.8109 17.8216 37.7102C16.8649 37.5226 16.4688 35.6365 17.3739 34.9828C18.1852 34.3942 19.4786 34.961 19.2548 36.2783V36.2764ZM17.4179 35.9525H18.7611C18.8816 34.9255 17.3126 34.9551 17.4179 35.9525Z" fill="#ABB7C2"/>
<path fill-rule="evenodd" clip-rule="evenodd" d="M21.4053 34.8899C21.5029 35.0814 21.3441 35.2078 21.3154 35.3974C21.0762 35.1683 20.529 35.2414 20.4199 35.5357V37.6173H19.9263V34.797C20.1597 34.803 20.3377 34.8662 20.374 35.0735C20.5864 34.8346 21.0781 34.6213 21.4053 34.8879V34.8899Z" fill="#ABB7C2"/>
<path fill-rule="evenodd" clip-rule="evenodd" d="M23.7798 35.5378C23.4315 35.4371 23.4641 35.2633 23.1981 35.2139C21.8779 34.9749 21.7631 37.4713 23.1541 37.2955C23.4335 37.2599 23.5368 37.0071 23.7817 37.019C24.0324 38.1151 22.2146 37.7181 21.9008 37.2481C21.2407 36.2626 21.9085 34.7656 22.9762 34.7517C23.2287 34.7498 24.0917 34.8386 23.7817 35.5378H23.7798Z" fill="#ABB7C2"/>
<path fill-rule="evenodd" clip-rule="evenodd" d="M28.2153 37.5246C28.1119 37.8149 27.4365 37.6648 27.4537 37.3843C26.6788 38.1802 25.1309 37.3745 25.8407 36.3218C26.1182 35.911 26.8855 35.8537 27.4537 35.8142C27.5379 34.9492 26.3784 35.1981 25.9747 35.4429C25.5996 34.651 27.2777 34.6075 27.6757 34.9808C28.1789 35.4489 27.7235 36.4936 27.9455 37.2461C27.9359 37.4416 28.265 37.2876 28.2134 37.5246H28.2153ZM26.1985 36.7385C26.1086 37.4791 27.182 37.3982 27.4537 36.8787V36.231C26.8338 36.225 26.2579 36.2626 26.1985 36.7385Z" fill="#ABB7C2"/>
<path fill-rule="evenodd" clip-rule="evenodd" d="M24.9452 34.9353C25.0447 35.6187 24.9625 36.4896 24.9893 37.246C24.9816 37.4554 25.305 37.323 25.2571 37.5699C25.1844 37.7635 24.6793 37.6588 24.5855 37.5699C24.3904 36.8175 24.5473 35.6996 24.4956 34.7951C24.7214 34.7615 24.8343 34.8465 24.9433 34.9334L24.9452 34.9353Z" fill="#ABB7C2"/>
<path fill-rule="evenodd" clip-rule="evenodd" d="M13.5182 39.9635C13.6196 40.3822 13.5354 40.9944 13.5622 41.4901C14.2012 41.3479 15.8295 41.1939 15.399 42.4144C14.8327 42.2781 14.1649 42.2406 13.5622 42.369C13.8147 43.4532 13.1106 45.8172 13.832 46.3919C14.1649 46.6566 14.8097 46.5065 15.2651 46.3445C15.4679 47.9482 13.08 47.573 12.6227 46.7139C12.2744 46.0621 12.4428 44.6165 12.4428 43.2932C12.4428 41.4565 12.0793 39.9161 13.5182 39.9635Z" fill="#ABB7C2"/>
<path fill-rule="evenodd" clip-rule="evenodd" d="M19.6105 42.2287C18.6041 42.1497 17.7296 42.4815 17.5498 43.3841C17.3163 44.5473 17.7603 46.0937 17.5058 47.3142C16.0765 47.8198 16.4304 45.7678 16.4304 44.4466V41.5335C17.0255 41.2768 17.6722 41.5513 17.5498 42.3196C17.6416 41.4466 19.9836 40.6567 19.6105 42.2267V42.2287Z" fill="#ABB7C2"/>
<path fill-rule="evenodd" clip-rule="evenodd" d="M21.044 44.6798C21.0708 45.999 22.1193 46.7001 23.4625 46.5283C23.849 46.4789 24.1571 46.2301 24.4919 46.2044C24.7885 47.3914 23.4223 47.5079 22.6551 47.5C22.016 47.4921 21.3138 47.3005 20.9081 46.9924C18.9392 45.4974 19.7964 41.5731 22.1174 41.3046C23.5888 41.1347 25.1004 42.1242 24.5359 43.6627C24.1666 44.6679 22.5096 45.0352 21.0421 44.6798H21.044ZM23.4625 43.2933C23.6003 42.7245 23.187 42.3454 22.8808 42.2762C21.8993 42.0531 20.9177 42.9122 21.0899 43.8483C21.9433 43.9964 23.2884 44.0181 23.4644 43.2933H23.4625Z" fill="#ABB7C2"/>
<path fill-rule="evenodd" clip-rule="evenodd" d="M29.3306 42.5526C28.8351 42.5072 28.3242 42.1477 27.5397 42.2287C27.0365 42.2801 26.5753 42.521 26.6442 43.1076C26.738 43.9213 28.2055 43.781 28.9728 44.2629C29.6674 44.6994 29.9678 45.9219 29.3765 46.7138C29.0417 47.1622 28.1156 47.4999 27.2259 47.4999C26.4108 47.4999 25.2685 47.3123 25.6588 46.1589C26.3132 46.5104 28.7356 47.0101 28.5251 45.6039C28.4428 45.0569 27.7406 44.9601 27.1819 44.8179C26.1314 44.5513 24.9279 43.785 25.6129 42.3215C25.8482 41.8199 26.5313 41.3874 27.3139 41.3044C28.2496 41.2057 29.654 41.2689 29.3306 42.5526Z" fill="#ABB7C2"/>
<path fill-rule="evenodd" clip-rule="evenodd" d="M34.9753 47.2707C34.5334 47.484 33.7929 47.3596 33.856 46.7612C33.1289 47.7605 30.7199 47.7625 30.4521 46.2516C30.1115 44.328 31.9809 43.7355 33.856 43.9863C33.8713 43.4432 33.8063 43.1055 33.6321 42.829C33.0696 41.9423 31.5217 42.4143 30.8099 42.6908C30.299 41.1622 33.1079 40.9884 34.0799 41.5808C35.4767 42.4301 34.828 45.1259 34.9753 47.2687V47.2707ZM31.7493 45.2365C30.8386 46.6762 33.5116 47.1206 33.8541 45.8843C33.9555 45.5189 33.7795 45.2029 33.8541 44.7744C33.1155 44.7052 32.0765 44.7191 31.7493 45.2365Z" fill="#ABB7C2"/>
<path fill-rule="evenodd" clip-rule="evenodd" d="M4.73771 47.3163C2.75351 47.8258 3.99914 44.0911 3.52844 42.8785C3.11515 41.812 1.5806 42.3453 1.15391 43.0642V47.3182C-0.304108 47.8436 0.034565 45.8094 0.034565 44.5434V41.5375C0.51483 41.3203 1.21131 41.4684 1.15391 42.0925C1.76811 41.3144 3.58967 41.0339 4.33398 41.9068C5.28112 43.0187 4.45453 45.4993 4.73771 47.3163Z" fill="#ABB7C2"/>
<path fill-rule="evenodd" clip-rule="evenodd" d="M9.71059 41.49C11.1763 40.9824 10.8299 43.0186 10.8299 44.3102C10.8299 45.5307 10.8644 46.5597 10.7859 47.3161C10.2578 47.4642 9.69528 47.3201 9.71059 46.7611C8.86104 47.6913 6.57069 47.8671 6.30664 46.2062C6.09808 44.8968 6.46163 42.9515 6.30664 41.49C8.66204 40.7731 6.39274 46.1924 8.05358 46.5301C8.68883 46.6604 9.29729 46.3109 9.71059 45.744V41.49Z" fill="#ABB7C2"/>
<path d="M3.26614 17.5971C3.26614 18.4365 2.58689 19.1159 1.75073 19.1159C0.91457 19.1159 0.233398 18.4345 0.233398 17.5971C0.233398 16.7598 0.912657 16.0764 1.75073 16.0764C2.5888 16.0764 3.26614 16.7558 3.26614 17.5971Z" fill="#ABB7C2"/>
<path d="M5.91605 8.17475C5.91605 9.0141 5.23679 9.69546 4.39872 9.69546C3.56065 9.69546 2.8833 9.0141 2.8833 8.17475C2.8833 7.33539 3.56256 6.65601 4.39872 6.65601C5.23488 6.65601 5.91605 7.33737 5.91605 8.17475Z" fill="#ABB7C2"/>
<path d="M13.9277 2.38009C13.9277 3.21945 13.2485 3.89883 12.4104 3.89883C11.5723 3.89883 10.8931 3.21747 10.8931 2.38009C10.8931 1.54271 11.5723 0.859375 12.4104 0.859375C13.2485 0.859375 13.9277 1.53876 13.9277 2.38009Z" fill="#ABB7C2"/>
<path d="M23.6055 2.38009C23.6055 3.21945 22.9262 3.89883 22.0881 3.89883C21.2501 3.89883 20.5708 3.21747 20.5708 2.38009C20.5708 1.54271 21.2501 0.859375 22.0881 0.859375C22.9262 0.859375 23.6055 1.53876 23.6055 2.38009Z" fill="#ABB7C2"/>
<path d="M31.8106 8.23578C31.8106 9.07514 31.1313 9.75452 30.2933 9.75452C29.4552 9.75452 28.7778 9.07316 28.7778 8.23578C28.7778 7.3984 29.4571 6.71704 30.2933 6.71704C31.1294 6.71704 31.8106 7.39643 31.8106 8.23578Z" fill="#ABB7C2"/>
<path d="M34.755 17.2339C34.755 18.0732 34.0757 18.7526 33.2395 18.7526C32.4034 18.7526 31.7241 18.0712 31.7241 17.2339C31.7241 16.3965 32.4034 15.7131 33.2395 15.7131C34.0757 15.7131 34.755 16.3925 34.755 17.2339Z" fill="#ABB7C2"/>
<path d="M6.1726 19.4201C6.1726 19.4201 4.3874 19.825 3.58185 20.4135C3.6603 20.3108 1.69715 21.6281 1.3623 22.116C1.3623 22.0962 1.69524 20.6979 3.36564 19.5228C3.5034 19.4221 5.70191 18.409 6.3295 19.0982C6.31037 19.1792 6.38882 19.2997 6.1726 19.4221V19.4201Z" fill="#ABB7C2"/>
<path d="M9.06963 10.7521C9.06963 10.7521 8.19138 9.14252 8.13589 8.14715C8.10528 8.27354 7.87184 5.92334 8.0517 5.34863C8.03448 5.36246 7.08735 6.54546 7.2385 8.57966C7.24616 8.74951 7.89672 11.074 8.90508 11.0859C8.96057 11.0168 9.11555 10.995 9.06963 10.7521Z" fill="#ABB7C2"/>
<path d="M27.8134 12.2312C27.8134 12.2312 29.4724 11.4926 30.4463 11.5143C30.3276 11.4748 32.6371 11.4254 33.1767 11.6486C33.1652 11.6308 32.1148 10.6078 30.1191 10.5999C29.9526 10.5959 27.6221 11.0541 27.5054 12.0436C27.5666 12.1028 27.5723 12.2569 27.8134 12.2312Z" fill="#ABB7C2"/>
<path d="M2.42232 14.0522C2.42232 14.0522 2.90259 16.1279 5.61197 17.5677C5.68085 17.5973 7.10443 18.4189 9.03696 18.409C9.01783 18.4189 9.66456 18.4287 9.97836 18.328C9.96879 18.328 10.164 18.3083 10.1448 18.0338C10.1353 18.0555 10.1353 17.8402 9.82146 17.8619C9.50766 17.8817 8.01521 17.6704 6.78871 17.0206C6.73896 17.0206 4.26493 15.7942 2.42041 14.0522H2.42232Z" fill="#ABB7C2"/>
<path d="M28.8636 18.7921C28.8636 18.7921 30.6029 19.3786 31.3472 20.0462C31.2802 19.9376 33.1056 21.4504 33.3907 21.9678C33.3907 21.9481 33.1956 20.5221 31.6495 19.1812C31.5232 19.0666 29.4319 17.8323 28.7411 18.4524C28.7526 18.5353 28.6627 18.6479 28.8655 18.7901L28.8636 18.7921Z" fill="#ABB7C2"/>
<path d="M2.37256 11.8934C2.37256 11.8934 6.30843 11.7413 10.9217 14.4767C11.0001 14.5379 12.9824 15.5905 14.5935 17.1508C14.6126 17.212 14.869 17.4351 14.869 17.4351C14.869 17.4351 15.0259 17.5378 15.2421 17.3344C15.223 17.3344 15.3588 17.131 15.0852 16.7676C14.8097 16.4022 13.6329 14.0125 9.68559 12.2489C9.58801 12.2489 4.83702 9.95994 2.37256 11.8954V11.8934Z" fill="#ABB7C2"/>
<path d="M24.6024 18.1285C24.6024 18.1285 27.1339 18.6598 29.8433 16.989C29.9466 16.8981 31.2707 16.1832 31.8887 14.5104C31.9327 14.4353 32.1987 13.6612 31.9327 12.9304C31.948 12.96 31.3721 14.4511 28.988 16.0903C28.9593 16.0903 28.1193 16.9258 25.0865 17.6565L24.5718 17.7177C24.5718 17.7177 24.2925 17.7315 24.2619 17.8994C24.2332 18.0673 24.6005 18.1265 24.6005 18.1265L24.6024 18.1285Z" fill="#ABB7C2"/>
<path d="M8.46484 4.23871C8.46484 4.23871 8.48206 4.24463 8.51651 4.25846C8.91641 4.42041 11.6009 5.6034 13.5315 9.05563C13.5602 9.10105 14.3715 10.3176 14.9455 12.2768C14.9455 12.3084 15.0776 12.9305 15.3722 12.9147C15.6669 12.8989 15.6956 12.3518 15.5789 11.6685C15.4603 10.9832 15.1809 8.52239 13.1642 6.13467C13.1489 6.07542 10.8375 3.47638 8.46676 4.23476L8.46484 4.23871Z" fill="#ABB7C2"/>
<path d="M16.6065 1.33545C16.6065 1.33545 15.4144 2.4908 15.1045 3.88907C15.1045 3.84364 14.8385 4.66523 14.8098 5.6369C14.7964 5.6369 14.9418 6.53353 14.6778 6.57896C14.4137 6.62438 14.0444 5.06022 14.4711 3.46445C14.8978 1.86869 15.8545 1.5053 16.6065 1.33742V1.33545Z" fill="#ABB7C2"/>
<path d="M18.3726 0.5C18.3726 0.5 18.9026 1.70077 19.1379 3.72115C19.1226 3.72115 19.2106 4.8923 19.0939 5.57564C18.9772 6.25897 19.2259 6.27477 19.3446 6.29057C19.4632 6.3044 19.9339 5.80473 19.9932 4.26822C20.0525 2.73368 19.4345 1.48748 18.3745 0.5H18.3726Z" fill="#ABB7C2"/>
<path d="M24.484 4.74026C24.484 4.74026 21.9812 5.85018 20.0238 9.26883C19.9358 9.34585 18.6538 11.8679 18.8452 14.2082C18.8452 14.1766 18.8739 15.1799 18.8739 15.1799C18.8739 15.1799 18.8892 15.5749 18.6672 15.5907C18.4472 15.6065 18.0932 15.2411 17.8272 13.4024C17.7029 12.5374 17.7622 11.6092 17.9191 10.754C18.1142 9.69147 18.4874 8.66054 19.092 7.77181C19.8019 6.73101 20.7299 5.82648 21.8549 5.28337C22.1764 5.12932 22.517 5.0049 22.8595 4.9101C23.1178 4.839 23.3818 4.79161 23.6497 4.76791C23.7856 4.75408 23.9233 4.74816 24.0611 4.74421C24.1721 4.74223 24.3826 4.78173 24.482 4.73828L24.484 4.74026Z" fill="#ABB7C2"/>
<path d="M27.2508 3.66189C27.2336 3.62041 27.8115 6.80799 26.2941 9.9067C26.2348 9.98372 25.5594 11.7612 23.7034 13.4024C23.6881 13.3866 23.1294 13.8132 23.38 14.0699C23.6307 14.3286 24.0861 14.0383 24.4094 13.827C24.7328 13.6137 26.6481 12.5354 27.6201 9.73883C27.6201 9.73883 28.661 6.80602 27.2527 3.65991L27.2508 3.66189Z" fill="#ABB7C2"/>
<path d="M30.8689 32.1664C30.8689 32.1664 30.4556 32.0045 30.4767 31.9235C26.4662 29.8853 22.3638 29.2553 19.796 29.0736C19.6621 28.6826 18.9235 26.3423 19.2871 23.5852C19.2718 23.4786 19.4631 21.2291 20.6111 18.8295C20.7145 18.6478 21.1259 17.7354 21.3191 17.4767C21.5104 17.218 21.6731 16.9612 21.4798 16.823C21.2885 16.6867 18.8451 18.952 18.0644 22.1277C17.2895 25.2797 18.095 28.1 18.669 29.0183C17.787 28.9927 17.2455 29.0223 17.1862 29.0262C16.7269 29.0262 16.2754 29.042 15.8315 29.0657C16.1242 28.6569 16.3423 28.0684 16.3423 28.0545C17.2857 25.1375 15.9597 23.206 15.9444 23.131C15.5923 22.4931 15.3856 22.6748 15.3856 22.6748C15.179 22.7814 15.2976 23.0698 15.2976 23.0698C15.2976 23.0698 15.4603 23.601 15.6363 24.6201C15.8123 25.6392 15.665 26.4904 15.665 26.4904C15.5999 27.9953 14.9494 28.9551 14.8097 29.1427C8.81883 29.6957 4.60743 32.0677 4.60743 32.0677C4.31851 32.3718 4.70119 32.3106 4.70119 32.3106C4.70119 32.3106 5.01499 32.2099 5.01499 32.2296C11.7884 30.1026 17.1077 30.3257 17.1077 30.3257C24.2925 30.0828 30.1437 32.2099 30.5934 32.3106C31.0449 32.4133 30.8689 32.1684 30.8689 32.1684V32.1664Z" fill="#ABB7C2"/>
</g>
<defs>
<clipPath id="clip0_2040_8594">
<rect width="35" height="47" fill="white" transform="translate(0 0.5)"/>
</clipPath>
</defs>
</svg>
