<svg width="60" height="50" viewBox="0 0 60 50" fill="none" xmlns="http://www.w3.org/2000/svg">
<g clip-path="url(#clip0_2040_8634)">
<path d="M48.3533 10.7603C47.9993 11.0774 47.7518 11.4663 47.6107 11.8897C46.6192 14.889 45.3109 17.254 43.7537 18.9475C42.0901 20.783 40.1084 21.8062 37.8072 22.053C39.1168 20.3596 39.7889 18.8068 39.7543 17.4292C39.7543 16.8639 39.6133 16.3702 39.4003 16.0171C39.1528 15.6641 38.8693 15.4518 38.5153 15.3469C38.1253 15.2766 37.7726 15.3469 37.3481 15.5579C36.9581 15.8048 36.6054 16.1936 36.2514 16.7232C35.5087 18.0636 35.1547 19.9349 35.2253 22.4047C33.7027 23.9575 32.465 24.5216 31.6158 24.134C30.7667 23.7107 30.3422 22.5454 30.2716 20.5348C30.2357 18.5228 30.5897 16.053 31.2977 13.0178C32.0763 9.84186 33.2089 6.48814 34.6596 2.95922C34.9777 2.28901 35.0496 1.72364 34.9777 1.30028C34.8366 0.876912 34.6237 0.63006 34.2351 0.523888C33.881 0.453548 33.4565 0.523888 33.0679 0.806572C32.5728 1.1596 32.2187 1.6533 31.9353 2.35935C31.4402 3.77144 30.6616 6.24128 29.6354 9.84054L27.0522 18.2401C26.0606 21.2753 25.141 23.6045 24.3624 25.2634C23.3709 27.2754 22.4512 28.4048 21.6021 28.6517C22.6641 26.6397 23.1233 25.0166 22.9463 23.781C22.8398 23.2515 22.6628 22.8639 22.3807 22.5813C22.0972 22.3689 21.7791 22.2282 21.3891 22.2641C20.9992 22.2999 20.6106 22.4764 20.2565 22.7578C19.832 23.075 19.478 23.5342 19.2304 24.0637C18.5224 25.44 18.3107 27.1692 18.5583 29.2516L17.3192 30.4871L16.1161 31.7572C15.1964 32.7101 14.3114 33.2397 13.6033 33.4162C14.2408 30.3106 15.09 27.2051 16.1866 24.0637C17.2127 20.994 18.1683 18.7697 19.0175 17.3589C19.2304 17.0059 19.3009 16.6528 19.265 16.2998C19.2291 16.0171 19.088 15.8061 18.8751 15.6641C18.6621 15.5234 18.4146 15.4876 18.167 15.5579C17.8489 15.6283 17.6 15.8406 17.3525 16.122C16.2904 17.6044 15.3002 19.7929 14.3446 22.6516C13.779 24.4871 13.071 27.0989 12.2205 30.5216L11.3355 34.1926L10.4504 37.1919C9.84883 39.0619 9.17673 40.0506 8.50329 40.121C6.94612 40.0506 5.63651 38.462 4.53984 35.3565C4.11528 34.1926 3.69072 32.7101 3.30077 30.945L2.27464 26.2867C1.95655 25.4745 1.63713 25.0869 1.24851 25.1214C1.0715 25.1214 0.930419 25.2276 0.823946 25.4745C0.68287 25.6868 0.540463 26.004 0.505859 26.357C0.505859 27.1334 0.68287 28.3332 1.00096 29.9563C1.39091 31.8979 1.88601 33.6975 2.48758 35.391C3.19562 37.4733 4.04474 39.0964 4.89386 40.2962C5.95593 41.7083 7.01799 42.4143 8.1506 42.3426C10.1683 42.413 11.583 41.2836 12.3975 39.0606L12.5745 38.6014L12.8926 37.4016L13.0696 36.3426L13.3531 34.1899C14.4857 35.249 15.7594 35.0366 17.2114 33.59L18.698 31.8607C19.1931 31.1905 19.4766 30.8017 19.6536 30.6968C20.3257 31.4029 21.0338 31.5794 21.8829 31.2609C22.5909 30.9782 23.3336 30.308 24.1481 29.2489C24.8562 28.296 25.5642 27.1321 26.2709 25.72C26.9084 24.4844 27.474 23.144 27.9691 21.7677C29.0658 24.5906 30.4114 26.0027 32.0391 25.9668C32.6766 25.931 33.3487 25.72 34.1273 25.2966L36.0384 23.8845C36.9581 24.2734 38.0202 24.3437 39.0822 24.0969C40.1443 23.8845 41.2064 23.3563 42.303 22.5441C43.3997 21.6974 44.4272 20.6741 45.4533 19.3682C46.4435 18.0981 47.3645 16.6157 48.1431 14.9567C48.3201 16.333 48.7806 17.3562 49.4167 18.1326C49.7002 18.4856 50.0542 18.6967 50.4083 18.8387C50.7263 18.9448 51.0804 18.9448 51.3998 18.8387C53.1699 19.0152 54.1255 21.4147 54.373 26.073C54.5847 29.7081 54.3025 34.4023 53.5585 40.2948C53.452 40.8589 53.5226 41.3181 53.6291 41.6711C53.7701 41.9883 53.9125 42.1648 54.1242 42.2351C54.3371 42.2351 54.5141 42.129 54.6898 41.9179C54.8668 41.6353 54.9733 41.2822 55.0079 40.8244C55.4684 38.0015 55.857 35.1773 56.1751 32.3544C56.4932 29.2489 56.6356 26.4605 56.6356 24.1314C56.6715 21.4492 56.4586 19.4372 56.034 18.061C55.5389 16.544 54.8309 15.9428 53.8753 16.2255C52.9197 16.5785 52.177 16.755 51.6101 16.7895C51.079 16.8254 50.6545 16.6489 50.4069 16.2958C50.1594 15.9428 50.017 15.4133 50.017 14.7072C49.981 14.037 50.0529 13.1545 50.2299 12.025C50.4069 11.319 50.371 10.8253 50.194 10.4723C50.017 10.1896 49.7335 10.1192 49.3795 10.1896C49.0254 10.2254 48.6714 10.4019 48.3533 10.7549V10.7603ZM37.5943 17.7836C37.7354 17.6071 37.8778 17.5367 37.9842 17.6071C38.0907 17.6429 38.1612 17.8194 38.1612 18.1366C38.1612 18.4193 38.0548 18.7365 37.9483 19.0895C37.8418 19.4067 37.6648 19.6894 37.5237 19.9017C37.3467 20.0782 37.2403 20.1844 37.1338 20.1141C36.9927 20.0079 36.9568 19.8314 36.9568 19.55C36.9568 19.2328 37.0273 18.9143 37.1338 18.5971C37.2749 18.2441 37.4173 17.9614 37.5943 17.7849V17.7836ZM21.2441 24.6304C21.3851 24.7007 21.4211 24.8772 21.4211 25.1599C21.4211 25.4426 21.3851 25.7598 21.2441 26.1128L20.8195 26.8892C20.6784 27.1016 20.5014 27.1719 20.4296 27.1361C20.3231 27.0657 20.2525 26.8892 20.2525 26.572C20.2885 26.2548 20.3231 25.9363 20.4655 25.6191C20.536 25.3019 20.6784 25.0192 20.8554 24.8069C21.0325 24.5946 21.1735 24.5242 21.2454 24.6304H21.2441Z" fill="#ABB7C2"/>
<path d="M23.6504 15.9122C23.4734 15.7715 23.2258 15.8777 22.9424 16.2294C22.6243 16.5824 22.4113 17.0416 22.2343 17.6057C22.0214 18.2414 21.9162 18.7696 21.9162 19.2991C21.8803 19.7928 21.9522 20.1113 22.1292 20.252C22.3421 20.3224 22.5897 20.1817 22.8372 19.8632C23.1553 19.546 23.3682 19.0509 23.6158 18.4869C23.7928 17.887 23.8993 17.3217 23.8993 16.8279C23.9352 16.3688 23.8287 16.0157 23.6517 15.9109L23.6504 15.9122Z" fill="#ABB7C2"/>
<path d="M0 45.2822H0.421898V48.1529H1.80205V48.5019H0V45.2822Z" fill="#ABB7C2"/>
<path d="M2.41951 47.4217C2.42883 47.9897 2.78817 48.2246 3.2154 48.2246C3.51751 48.2246 3.70384 48.1716 3.85689 48.1052L3.93409 48.4065C3.78502 48.4728 3.52683 48.5551 3.15817 48.5551C2.4448 48.5551 2.01758 48.0826 2.01758 47.3846C2.01758 46.6865 2.43016 46.1423 3.10493 46.1423C3.86621 46.1423 4.06318 46.8019 4.06318 47.2266C4.06318 47.3129 4.05786 47.3753 4.04854 47.423H2.41951V47.4217ZM3.65593 47.1204C3.66125 46.8577 3.54546 46.4423 3.07166 46.4423C2.64044 46.4423 2.45811 46.8298 2.42484 47.1204H3.65593Z" fill="#ABB7C2"/>
<path d="M6.2142 47.9473C6.2142 48.1477 6.22351 48.3441 6.24747 48.502H5.86949L5.83622 48.21H5.82158C5.69248 48.3919 5.4436 48.5538 5.11221 48.5538C4.6424 48.5538 4.40283 48.2246 4.40283 47.8902C4.40283 47.3315 4.90059 47.0249 5.79629 47.0302V46.9824C5.79629 46.7966 5.74306 46.4476 5.26925 46.4516C5.04832 46.4516 4.8234 46.5139 4.66103 46.6241L4.5652 46.3427C4.75685 46.2233 5.03901 46.1423 5.33181 46.1423C6.04118 46.1423 6.21287 46.6254 6.21287 47.0833V47.9486L6.2142 47.9473ZM5.80694 47.3209C5.34645 47.3116 4.82473 47.3925 4.82473 47.8411C4.82473 48.1185 5.00706 48.2419 5.21735 48.2419C5.52346 48.2419 5.72043 48.0508 5.78698 47.8544C5.80162 47.8066 5.80561 47.7588 5.80561 47.7203V47.3195L5.80694 47.3209Z" fill="#ABB7C2"/>
<path d="M7.38388 45.6354V46.1901H7.98811V46.51H7.38388V47.7562C7.38388 48.0428 7.46506 48.2047 7.70063 48.2047C7.81509 48.2047 7.88297 48.1955 7.94552 48.1755L7.96415 48.4954C7.88297 48.5246 7.75387 48.5525 7.59017 48.5525C7.39319 48.5525 7.23615 48.4861 7.135 48.3759C7.02054 48.2472 6.97263 48.0415 6.97263 47.7694V46.5086H6.61328V46.1888H6.97263V45.7588L7.38521 45.634L7.38388 45.6354Z" fill="#ABB7C2"/>
<path d="M8.4608 45.1097H8.8827V46.5577H8.89202C8.95856 46.4382 9.06504 46.3281 9.19413 46.2564C9.31924 46.1847 9.46697 46.1423 9.62535 46.1423C9.93678 46.1423 10.4345 46.3334 10.4345 47.1257V48.5019H10.0126V47.1735C10.0126 46.8005 9.87423 46.49 9.47629 46.49C9.20345 46.49 8.99184 46.6811 8.91065 46.9054C8.88669 46.9677 8.88137 47.0301 8.88137 47.1058V48.5006H8.45947V45.1084L8.4608 45.1097Z" fill="#ABB7C2"/>
<path d="M11.3555 47.4217C11.3649 47.9897 11.7242 48.2246 12.1514 48.2246C12.4535 48.2246 12.6399 48.1716 12.7929 48.1052L12.8701 48.4065C12.7211 48.4728 12.4629 48.5551 12.0942 48.5551C11.3808 48.5551 10.9536 48.0826 10.9536 47.3846C10.9536 46.6865 11.3662 46.1423 12.041 46.1423C12.8022 46.1423 12.9992 46.8019 12.9992 47.2266C12.9992 47.3129 12.9939 47.3753 12.9846 47.423H11.3555V47.4217ZM12.592 47.1204C12.5973 46.8577 12.4815 46.4423 12.0077 46.4423C11.5765 46.4423 11.3941 46.8298 11.3609 47.1204H12.592Z" fill="#ABB7C2"/>
<path d="M13.5206 46.9106C13.5206 46.6386 13.5153 46.4036 13.502 46.1886H13.8706L13.8892 46.6478H13.9039C14.009 46.3373 14.2686 46.1409 14.5507 46.1409C14.5933 46.1409 14.6279 46.1462 14.6652 46.1502V46.547C14.6226 46.5377 14.5787 46.5377 14.5214 46.5377C14.2246 46.5377 14.013 46.758 13.9558 47.0725C13.9465 47.1296 13.9412 47.2013 13.9412 47.269V48.5019H13.5193V46.9106H13.5206Z" fill="#ABB7C2"/>
<path d="M16.0653 47.9949C16.2516 48.1144 16.5205 48.2046 16.808 48.2046C17.2339 48.2046 17.4841 47.9803 17.4841 47.6552C17.4841 47.3592 17.3111 47.1827 16.8758 47.0194C16.3488 46.8283 16.0227 46.551 16.0227 46.1024C16.0227 45.6007 16.4393 45.2278 17.0675 45.2278C17.3936 45.2278 17.6371 45.3048 17.7769 45.3857L17.6624 45.7255C17.5613 45.6631 17.3457 45.5728 17.0542 45.5728C16.6137 45.5728 16.446 45.8356 16.446 46.0559C16.446 46.3572 16.6429 46.5045 17.0875 46.677C17.6331 46.8867 17.9073 47.1495 17.9073 47.6233C17.9073 48.1197 17.5426 48.555 16.7814 48.555C16.4699 48.555 16.1292 48.4594 15.9575 48.3453L16.068 47.9962L16.0653 47.9949Z" fill="#ABB7C2"/>
<path d="M18.4652 45.1097H18.8871V46.5577H18.8964C18.963 46.4382 19.0694 46.3281 19.1985 46.2564C19.3236 46.1847 19.4714 46.1423 19.6297 46.1423C19.9412 46.1423 20.4389 46.3334 20.4389 47.1257V48.5019H20.017V47.1735C20.017 46.8005 19.8786 46.49 19.4807 46.49C19.2078 46.49 18.9962 46.6811 18.915 46.9054C18.8911 46.9677 18.8858 47.0301 18.8858 47.1058V48.5006H18.4639V45.1084L18.4652 45.1097Z" fill="#ABB7C2"/>
<path d="M23.2232 47.3262C23.2232 48.1808 22.6243 48.5538 22.0693 48.5538C21.4465 48.5538 20.958 48.0946 20.958 47.3646C20.958 46.5949 21.4704 46.1423 22.1079 46.1423C22.7454 46.1423 23.2245 46.6254 23.2245 47.3275L23.2232 47.3262ZM21.3879 47.35C21.3879 47.857 21.6754 48.2379 22.0879 48.2379C22.5005 48.2379 22.792 47.861 22.792 47.3394C22.792 46.9479 22.595 46.4555 22.0973 46.4555C21.5995 46.4555 21.3879 46.9147 21.3879 47.3487V47.35Z" fill="#ABB7C2"/>
<path d="M23.9898 47.4217C23.9991 47.9897 24.3585 48.2246 24.7857 48.2246C25.0878 48.2246 25.2742 48.1716 25.4272 48.1052L25.5044 48.4065C25.3553 48.4728 25.0971 48.5551 24.7285 48.5551C24.0151 48.5551 23.5879 48.0826 23.5879 47.3846C23.5879 46.6865 24.0005 46.1423 24.6752 46.1423C25.4365 46.1423 25.6335 46.8019 25.6335 47.2266C25.6335 47.3129 25.6282 47.3753 25.6189 47.423H23.9898V47.4217ZM25.2262 47.1204C25.2316 46.8577 25.1158 46.4423 24.642 46.4423C24.2108 46.4423 24.0284 46.8298 23.9951 47.1204H25.2262Z" fill="#ABB7C2"/>
<path d="M26.0979 48.0759C26.227 48.1528 26.4479 48.2378 26.6582 48.2378C26.9603 48.2378 27.104 48.0891 27.104 47.894C27.104 47.699 26.9842 47.5888 26.6781 47.4733C26.2562 47.3207 26.0606 47.0964 26.0606 46.819C26.0606 46.4461 26.3667 46.1409 26.8605 46.1409C27.0947 46.1409 27.301 46.2032 27.4261 46.2842L27.325 46.5894C27.2345 46.5324 27.0668 46.4514 26.8512 46.4514C26.6023 46.4514 26.4679 46.5948 26.4679 46.7673C26.4679 46.9584 26.6023 47.0447 26.9044 47.1641C27.3023 47.3127 27.5126 47.5131 27.5126 47.8569C27.5126 48.2683 27.1919 48.555 26.6502 48.555C26.396 48.555 26.1617 48.4886 25.998 48.3931L26.0992 48.0772L26.0979 48.0759Z" fill="#ABB7C2"/>
<path d="M28.7129 48.6878L30.0451 45.2239H30.3752L29.0336 48.6878H28.7129Z" fill="#ABB7C2"/>
<path d="M31.7421 45.33C31.9244 45.2875 32.2159 45.2583 32.5033 45.2583C32.9199 45.2583 33.1887 45.33 33.3844 45.4919C33.5521 45.6166 33.6572 45.8077 33.6572 46.0599C33.6572 46.3758 33.4469 46.6478 33.1116 46.7673V46.7819C33.4177 46.8535 33.777 47.107 33.777 47.5848C33.777 47.8622 33.6665 48.0772 33.4989 48.2298C33.2779 48.4355 32.9146 48.5311 32.3875 48.5311C32.1001 48.5311 31.8791 48.5125 31.7407 48.4926V45.33H31.7421ZM32.1586 46.6478H32.5366C32.9731 46.6478 33.2313 46.4143 33.2313 46.1037C33.2313 45.7308 32.9492 45.5781 32.5273 45.5781C32.3356 45.5781 32.2252 45.5927 32.1586 45.6073V46.6492V46.6478ZM32.1586 48.186C32.2451 48.2006 32.3596 48.2046 32.5087 48.2046C32.9399 48.2046 33.3378 48.0467 33.3378 47.5782C33.3378 47.1429 32.9598 46.9571 32.5047 46.9571H32.16V48.1847L32.1586 48.186Z" fill="#ABB7C2"/>
<path d="M34.5782 47.4217C34.5875 47.9897 34.9469 48.2246 35.3741 48.2246C35.6762 48.2246 35.8625 48.1716 36.0156 48.1052L36.0928 48.4065C35.9437 48.4728 35.6855 48.5551 35.3169 48.5551C34.6035 48.5551 34.1763 48.0826 34.1763 47.3846C34.1763 46.6865 34.5888 46.1423 35.2636 46.1423C36.0249 46.1423 36.2219 46.8019 36.2219 47.2266C36.2219 47.3129 36.2165 47.3753 36.2072 47.423H34.5782V47.4217ZM35.8146 47.1204C35.8199 46.8577 35.7041 46.4423 35.2303 46.4423C34.7991 46.4423 34.6168 46.8298 34.5835 47.1204H35.8146Z" fill="#ABB7C2"/>
<path d="M36.7437 45.1096H37.1656V48.5018H36.7437V45.1096Z" fill="#ABB7C2"/>
<path d="M38.3819 45.6354V46.1901H38.9862V46.51H38.3819V47.7562C38.3819 48.0428 38.4631 48.2047 38.6987 48.2047C38.8131 48.2047 38.881 48.1955 38.9436 48.1755L38.9622 48.4954C38.881 48.5246 38.7519 48.5525 38.5882 48.5525C38.3912 48.5525 38.2342 48.4861 38.133 48.3759C38.0186 48.2472 37.9707 48.0415 37.9707 47.7694V46.5086H37.6113V46.1888H37.9707V45.7588L38.3833 45.634L38.3819 45.6354Z" fill="#ABB7C2"/>
<path d="M39.403 48.0759C39.5321 48.1528 39.7531 48.2378 39.9634 48.2378C40.2655 48.2378 40.4092 48.0891 40.4092 47.894C40.4092 47.699 40.2894 47.5888 39.9833 47.4733C39.5614 47.3207 39.3658 47.0964 39.3658 46.819C39.3658 46.4461 39.6719 46.1409 40.1657 46.1409C40.3999 46.1409 40.6062 46.2032 40.7313 46.2842L40.6301 46.5894C40.5396 46.5324 40.3719 46.4514 40.1563 46.4514C39.9075 46.4514 39.773 46.5948 39.773 46.7673C39.773 46.9584 39.9075 47.0447 40.2096 47.1641C40.6075 47.3127 40.8178 47.5131 40.8178 47.8569C40.8178 48.2683 40.497 48.555 39.9554 48.555C39.7012 48.555 39.4669 48.4886 39.3032 48.3931L39.4044 48.0772L39.403 48.0759Z" fill="#ABB7C2"/>
<path d="M44.0023 47.9473C44.0023 48.1477 44.0116 48.3441 44.0356 48.502H43.6576L43.6243 48.21H43.6097C43.4806 48.3919 43.2317 48.5538 42.9003 48.5538C42.4305 48.5538 42.1909 48.2246 42.1909 47.8902C42.1909 47.3315 42.6887 47.0249 43.5844 47.0302V46.9824C43.5844 46.7966 43.5311 46.4476 43.0573 46.4516C42.8364 46.4516 42.6115 46.5139 42.4491 46.6241L42.3533 46.3427C42.5449 46.2233 42.8271 46.1423 43.1199 46.1423C43.8293 46.1423 44.0009 46.6254 44.0009 47.0833V47.9486L44.0023 47.9473ZM43.595 47.3209C43.1345 47.3116 42.6128 47.3925 42.6128 47.8411C42.6128 48.1185 42.7951 48.2419 43.0054 48.2419C43.3115 48.2419 43.5085 48.0508 43.5751 47.8544C43.5897 47.8066 43.5937 47.7588 43.5937 47.7203V47.3195L43.595 47.3209Z" fill="#ABB7C2"/>
<path d="M44.6827 46.8151C44.6827 46.5709 44.6774 46.3798 44.6641 46.1886H45.038L45.062 46.5709H45.0713C45.1858 46.3559 45.4546 46.1409 45.8379 46.1409C46.1587 46.1409 46.6578 46.332 46.6578 47.1243V48.5006H46.2359V47.1681C46.2359 46.7952 46.0975 46.4846 45.6995 46.4846C45.4267 46.4846 45.2111 46.681 45.1339 46.9146C45.1152 46.9677 45.1046 47.0394 45.1046 47.111V48.5006H44.6827V46.8137V46.8151Z" fill="#ABB7C2"/>
<path d="M49.3396 45.1096V47.9046C49.3396 48.1103 49.3489 48.3439 49.3582 48.5018H48.9843L48.9656 48.101H48.951C48.8259 48.3585 48.5491 48.5549 48.1697 48.5549C47.6094 48.5549 47.1729 48.0825 47.1729 47.3804C47.1676 46.6106 47.652 46.1435 48.2123 46.1435C48.5717 46.1435 48.8059 46.3107 48.9124 46.4925H48.9217V45.1123H49.3383L49.3396 45.1096ZM48.923 47.1309C48.923 47.0778 48.9177 47.0061 48.9044 46.9544C48.8419 46.6916 48.6116 46.4713 48.2962 46.4713C47.8596 46.4713 47.6014 46.8535 47.6014 47.3591C47.6014 47.8276 47.8357 48.2138 48.2869 48.2138C48.569 48.2138 48.8285 48.0227 48.9044 47.7122C48.919 47.6551 48.923 47.598 48.923 47.5304V47.1296V47.1309Z" fill="#ABB7C2"/>
<path d="M51.0736 45.33C51.2559 45.2875 51.5474 45.2583 51.8349 45.2583C52.2515 45.2583 52.5203 45.33 52.7159 45.4919C52.8836 45.6166 52.9888 45.8077 52.9888 46.0599C52.9888 46.3758 52.7785 46.6478 52.4431 46.7673V46.7819C52.7492 46.8535 53.1086 47.107 53.1086 47.5848C53.1086 47.8622 52.9981 48.0772 52.8304 48.2298C52.6095 48.4355 52.2461 48.5311 51.7191 48.5311C51.4316 48.5311 51.2107 48.5125 51.0723 48.4926V45.33H51.0736ZM51.4902 46.6478H51.8682C52.3047 46.6478 52.5629 46.4143 52.5629 46.1037C52.5629 45.7308 52.2807 45.5781 51.8588 45.5781C51.6672 45.5781 51.5567 45.5927 51.4902 45.6073V46.6492V46.6478ZM51.4902 48.186C51.5767 48.2006 51.6911 48.2046 51.8402 48.2046C52.2714 48.2046 52.6694 48.0467 52.6694 47.5782C52.6694 47.1429 52.2914 46.9571 51.8362 46.9571H51.4915V48.1847L51.4902 48.186Z" fill="#ABB7C2"/>
<path d="M55.286 47.9473C55.286 48.1477 55.2953 48.3441 55.3192 48.502H54.9413L54.908 48.21H54.8934C54.7643 48.3919 54.5154 48.5538 54.184 48.5538C53.7142 48.5538 53.4746 48.2246 53.4746 47.8902C53.4746 47.3315 53.9724 47.0249 54.8681 47.0302V46.9824C54.8681 46.7966 54.8148 46.4476 54.341 46.4516C54.1201 46.4516 53.8952 46.5139 53.7328 46.6241L53.637 46.3427C53.8286 46.2233 54.1108 46.1423 54.4036 46.1423C55.113 46.1423 55.2846 46.6254 55.2846 47.0833V47.9486L55.286 47.9473ZM54.8787 47.3209C54.4182 47.3116 53.8965 47.3925 53.8965 47.8411C53.8965 48.1185 54.0788 48.2419 54.2891 48.2419C54.5952 48.2419 54.7922 48.0508 54.8588 47.8544C54.8734 47.8066 54.8774 47.7588 54.8774 47.7203V47.3195L54.8787 47.3209Z" fill="#ABB7C2"/>
<path d="M57.9491 48.1621C57.9491 48.697 57.8386 49.0168 57.619 49.2225C57.3888 49.4282 57.0627 49.4999 56.7712 49.4999C56.4798 49.4999 56.187 49.4335 55.9993 49.3088L56.1044 48.9836C56.2575 49.0845 56.4971 49.1694 56.7845 49.1694C57.2158 49.1694 57.5325 48.9452 57.5325 48.3572V48.1037H57.5232C57.3981 48.3187 57.1452 48.4913 56.7859 48.4913C56.2109 48.4913 55.7983 48.0042 55.7983 47.3632C55.7983 46.5802 56.3107 46.1409 56.8471 46.1409C57.249 46.1409 57.4646 46.3466 57.5711 46.5377H57.5804L57.5951 46.1886H57.9691C57.9544 46.3506 57.9504 46.5417 57.9504 46.819V48.1608L57.9491 48.1621ZM57.5272 47.1017C57.5272 47.0301 57.5219 46.9677 57.5032 46.9159C57.426 46.6678 57.2251 46.4673 56.9136 46.4673C56.5117 46.4673 56.2242 46.8071 56.2242 47.3419C56.2242 47.7958 56.4585 48.1727 56.9096 48.1727C57.1732 48.1727 57.4074 48.0108 57.4939 47.7427C57.5179 47.6711 57.5272 47.5901 57.5272 47.5185V47.1031V47.1017Z" fill="#ABB7C2"/>
<path d="M58.5868 48.0759C58.7159 48.1528 58.9368 48.2378 59.1471 48.2378C59.4492 48.2378 59.5929 48.0891 59.5929 47.894C59.5929 47.699 59.4732 47.5888 59.167 47.4733C58.7451 47.3207 58.5495 47.0964 58.5495 46.819C58.5495 46.4461 58.8556 46.1409 59.3494 46.1409C59.5836 46.1409 59.7899 46.2032 59.915 46.2842L59.8139 46.5894C59.7234 46.5324 59.5557 46.4514 59.3401 46.4514C59.0912 46.4514 58.9568 46.5948 58.9568 46.7673C58.9568 46.9584 59.0912 47.0447 59.3933 47.1641C59.7912 47.3127 60.0015 47.5131 60.0015 47.8569C60.0015 48.2683 59.6808 48.555 59.1391 48.555C58.8849 48.555 58.6507 48.4886 58.4883 48.3931L58.5894 48.0772L58.5868 48.0759Z" fill="#ABB7C2"/>
<path d="M50.7928 29.9232C50.7928 30.7102 50.158 31.3353 49.3501 31.3353C48.5422 31.3353 47.8994 30.7102 47.8994 29.9232C47.8994 29.1362 48.5436 28.519 49.3581 28.519C50.1726 28.519 50.7915 29.1348 50.7915 29.9232H50.7928ZM48.2601 29.9232C48.2601 30.5483 48.7326 31.0446 49.3594 31.0446C49.969 31.0526 50.4321 30.5483 50.4321 29.9325C50.4321 29.3167 49.969 28.8031 49.3421 28.8031C48.7153 28.8031 48.2601 29.3087 48.2601 29.9245V29.9232ZM49.1265 30.6505H48.8004V29.2463C48.9295 29.2291 49.1092 29.2039 49.3408 29.2039C49.607 29.2039 49.7268 29.2463 49.8212 29.3153C49.9064 29.3751 49.9676 29.4786 49.9676 29.6153C49.9676 29.7865 49.8385 29.898 49.6762 29.9497V29.967C49.8133 30.0094 49.8825 30.1209 49.9251 30.3094C49.9676 30.5231 50.0023 30.6 50.0275 30.6518H49.6842C49.6416 30.6 49.615 30.4806 49.5724 30.3094C49.5471 30.1634 49.4606 30.0957 49.2809 30.0957H49.1265V30.6518V30.6505ZM49.1345 29.8635H49.2889C49.4686 29.8635 49.615 29.8037 49.615 29.6577C49.615 29.529 49.5205 29.4441 49.3142 29.4441C49.2277 29.4441 49.1678 29.452 49.1345 29.4613V29.8635Z" fill="#ABB7C2"/>
</g>
<defs>
<clipPath id="clip0_2040_8634">
<rect width="60" height="49" fill="white" transform="translate(0 0.5)"/>
</clipPath>
</defs>
</svg>
